0
SECTION
2
HEADER
9
$INSUNITS
70
4
9
$ACADVER
1
AC1014
9
$HANDSEED
5
FFFF
0
ENDSEC
0
SECTION
2
TABLES
0
TABLE
2
VPORT
5
8
100
AcDbSymbolTable
0
ENDTAB
0
TABLE
2
LTYPE
5
5
100
AcDbSymbolTable
0
LTYPE
5
14
100
AcDbSymbolTableRecord
100
AcDbLinetypeTableRecord
2
BYBLOCK
70
0
0
LTYPE
5
15
100
AcDbSymbolTableRecord
100
AcDbLinetypeTableRecord
2
BYLAYER
70
0
0
ENDTAB
0
TABLE
2
LAYER
5
2
100
AcDbSymbolTable
70
2
0
LAYER
5
50
100
AcDbSymbolTableRecord
100
AcDbLayerTableRecord
2
0
70
0
6
CONTINUOUS
0
ENDTAB
0
TABLE
2
STYLE
5
3
100
AcDbSymbolTable
70
1
0
STYLE
5
11
100
AcDbSymbolTableRecord
100
AcDbTextStyleTableRecord
2
STANDARD
70
0
0
ENDTAB
0
TABLE
2
VIEW
5
6
100
AcDbSymbolTable
70
0
0
ENDTAB
0
TABLE
2
UCS
5
7
100
AcDbSymbolTable
70
0
0
ENDTAB
0
TABLE
2
APPID
5
9
100
AcDbSymbolTable
70
2
0
APPID
5
12
100
AcDbSymbolTableRecord
100
AcDbRegAppTableRecord
2
ACAD
70
0
0
ENDTAB
0
TABLE
2
DIMSTYLE
5
A
100
AcDbSymbolTable
70
1
0
ENDTAB
0
TABLE
2
BLOCK_RECORD
5
1
100
AcDbSymbolTable
70
1
0
BLOCK_RECORD
5
1F
100
AcDbSymbolTableRecord
100
AcDbBlockTableRecord
2
*MODEL_SPACE
0
BLOCK_RECORD
5
1B
100
AcDbSymbolTableRecord
100
AcDbBlockTableRecord
2
*PAPER_SPACE
0
ENDTAB
0
ENDSEC
0
SECTION
2
BLOCKS
0
BLOCK
5
20
100
AcDbEntity
100
AcDbBlockBegin
2
*MODEL_SPACE
0
ENDBLK
5
21
100
AcDbEntity
100
AcDbBlockEnd
0
BLOCK
5
1C
100
AcDbEntity
100
AcDbBlockBegin
2
*PAPER_SPACE
0
ENDBLK
5
1D
100
AcDbEntity
100
AcDbBlockEnd
0
ENDSEC
0
SECTION
2
ENTITIES
0
CIRCLE
5
100
100
AcDbEntity
8
0
100
AcDbCircle
10
-53.695996436216937
20
-132.18840681409918
30
0
40
0.44999999999999929
210
0
220
-0
230
1
0
CIRCLE
5
101
100
AcDbEntity
8
0
100
AcDbCircle
10
-53.815721257244661
20
-135.00816225481262
30
0
40
0.44999999999999929
210
0
220
-0
230
1
0
CIRCLE
5
102
100
AcDbEntity
8
0
100
AcDbCircle
10
-38.727075372530749
20
-135.00644611501329
30
0
40
0.45000000000000367
210
-1.2325951644078312e-32
220
-3.0258173569694267e-80
230
1
0
CIRCLE
5
103
100
AcDbEntity
8
0
100
AcDbCircle
10
-38.591099339787299
20
-132.20677368267471
30
0
40
0.45000000000000367
210
-1.2325951644078312e-32
220
-3.0258173569694267e-80
230
1
0
CIRCLE
5
104
100
AcDbEntity
8
0
100
AcDbCircle
10
-101.43187326918192
20
-147.67662368709131
30
0
40
3.4770129843427533
210
0
220
-0
230
1
0
CIRCLE
5
105
100
AcDbEntity
8
0
100
AcDbCircle
10
-101.46312870396858
20
-118.64536825230454
30
0
40
3.499999999999996
210
-1.2325951644078312e-32
220
-3.0258173569694263e-80
230
1
0
LWPOLYLINE
5
106
100
AcDbEntity
8
0
100
AcDbPolyline
90
2
70
1
43
0.0
10
-87.486229762957265
20
-151.83875391412832
42
-1.4775637728133586
10
-87.755965952534964
20
-151.04797465660408
42
-1.0938816885224321
0
CIRCLE
5
107
100
AcDbEntity
8
0
100
AcDbCircle
10
-68.328356483670035
20
-134.46725653083635
30
0
40
0.35376240929963387
210
-1.2325951644078309e-32
220
-3.4211388289180165e-49
230
1
0
CIRCLE
5
108
100
AcDbEntity
8
0
100
AcDbCircle
10
-68.328356483670035
20
-132.60280389131182
30
0
40
0.35059761178512616
210
0
220
-0
230
1
0
CIRCLE
5
109
100
AcDbEntity
8
0
100
AcDbCircle
10
-61.577314287258972
20
-129.03884636268711
30
0
40
0.37098291370551095
210
1.2325951644078309e-32
220
-3.0790249460262088e-48
230
1
0
SPLINE
5
110
100
AcDbEntity
8
0
100
AcDbSpline
70
0
71
3
72
77
73
73
74
0
42
0.000000001
43
0.0000000001
44
0.0000000001
40
-0.99481577621309181
40
-0.99481577621309181
40
-0.99481577621309181
40
-0.99481577621309181
40
-0.9356109532975837
40
-0.9356109532975837
40
-0.9356109532975837
40
-0.85439799042186326
40
-0.85439799042186326
40
-0.85439799042186326
40
-0.77729260364170771
40
-0.77729260364170771
40
-0.77729260364170771
40
-0.73230251105974853
40
-0.73230251105974853
40
-0.73230251105974853
40
-0.72587122762056988
40
-0.72587122762056988
40
-0.72587122762056988
40
-0.6941787350171319
40
-0.6941787350171319
40
-0.6941787350171319
40
-0.68239088473938347
40
-0.68239088473938347
40
-0.68239088473938347
40
-0.63273565252220454
40
-0.63273565252220454
40
-0.63273565252220454
40
-0.58026931716823371
40
-0.58026931716823371
40
-0.58026931716823371
40
-0.51458630258648397
40
-0.51458630258648397
40
-0.51458630258648397
40
-0.46385063345139405
40
-0.46385063345139405
40
-0.46385063345139405
40
-0.45573192706891169
40
-0.45573192706891169
40
-0.45573192706891169
40
-0.42343480601870526
40
-0.42343480601870526
40
-0.42343480601870526
40
-0.41111097015498216
40
-0.41111097015498216
40
-0.41111097015498216
40
-0.39024267204635399
40
-0.39024267204635399
40
-0.39024267204635399
40
-0.38699165712618755
40
-0.38699165712618755
40
-0.38699165712618755
40
-0.37384204820452477
40
-0.37384204820452477
40
-0.37384204820452477
40
-0.31748494968122543
40
-0.31748494968122543
40
-0.31748494968122543
40
-0.29941903671564291
40
-0.29941903671564291
40
-0.29941903671564291
40
-0.22571368483430421
40
-0.22571368483430421
40
-0.22571368483430421
40
-0.12906577529342514
40
-0.12906577529342514
40
-0.12906577529342514
40
-0.045000551892551664
40
-0.045000551892551664
40
-0.045000551892551664
40
-0.018092362499673525
40
-0.018092362499673525
40
-0.018092362499673525
40
-0.0067910975925081956
40
-0.0067910975925081956
40
-0.0067910975925081956
40
-0.0067910975925081956
10
-72.887725029604809
20
-142.97645229483859
30
0
10
-78.544391361084124
20
-147.26181522615508
30
0
10
-83.633360859622897
20
-150.68875833096169
30
0
10
-88.11817969224316
20
-153.25895145961593
30
0
10
-94.26490614770627
20
-156.78156289369213
30
0
10
-99.30754945004189
20
-158.65984844626399
30
0
10
-103.01067855267917
20
-159.25983263720465
30
0
10
-106.52875059409872
20
-159.82983372248648
30
0
10
-108.90452416617265
20
-159.2743472806041
30
0
10
-110.20942427312548
20
-158.58923640670415
30
0
10
-111.00207796437277
20
-158.1730699429136
30
0
10
-111.33943499982898
20
-157.80138141607819
30
0
10
-111.52621627164311
20
-157.48687452208119
30
0
10
-111.55502535889951
20
-157.43836507322752
30
0
10
-111.57993925226748
20
-157.39219756419689
30
0
10
-111.6028108495177
20
-157.34473883978578
30
0
10
-111.7155189790125
20
-157.11086868204933
30
0
10
-111.80403473486632
20
-156.80610612891508
30
0
10
-111.86527728163884
20
-156.11024063114525
30
0
10
-111.88780373967614
20
-155.85428483307328
30
0
10
-111.90409811869287
20
-155.5522933295488
30
0
10
-111.91359011505381
20
-155.2014712303839
30
0
10
-111.95369090241293
20
-153.71935494372255
30
0
10
-111.87272022556979
20
-151.38657875148598
30
0
10
-111.83717705170406
20
-148.26575880137091
30
0
10
-111.79961243669233
20
-144.96744896585585
30
0
10
-111.81804348483759
20
-140.81007390701859
30
0
10
-111.90879182224475
20
-136.34020659832461
30
0
10
-112.02238669690277
20
-130.74501850808917
30
0
10
-112.24440366793542
20
-124.75363845483697
30
0
10
-112.34133207455781
20
-119.88808159821026
30
0
10
-112.41610715446771
20
-116.13456479711661
30
0
10
-112.3962685795313
20
-113.0548922575714
30
0
10
-112.2002863394022
20
-111.11777276434233
30
0
10
-112.16910885958988
20
-110.80960961724081
30
0
10
-112.13286969021408
20
-110.52967673413386
30
0
10
-112.09325336631625
20
-110.27687479839929
30
0
10
-111.93565520372566
20
-109.2712004538064
30
0
10
-111.70070283979032
20
-108.67847953537418
30
0
10
-111.60199465053758
20
-108.51114483793557
30
0
10
-111.5334039659821
20
-108.39486673037345
30
0
10
-111.49046788987995
20
-108.33797903163503
30
0
10
-111.46099068714442
20
-108.30501020040739
30
0
10
-111.41107611014942
20
-108.24918315061865
30
0
10
-111.36884630681519
20
-108.21148014066324
30
0
10
-111.13341658079264
20
-108.08542878745222
30
0
10
-111.1010870055068
20
-108.06811922003959
30
0
10
-111.06545641734994
20
-108.04981618779168
30
0
10
-111.02647485993072
20
-108.03062028285275
30
0
10
-110.88629326552106
20
-107.96158988133399
30
0
10
-110.70498891046046
20
-107.88693062927396
30
0
10
-110.48957288356583
20
-107.81451474754583
30
0
10
-109.56633460906481
20
-107.50415198272779
30
0
10
-108.03282739577334
20
-107.24685202390361
30
0
10
-106.15297983978756
20
-107.26761779538016
30
0
10
-105.5484465103018
20
-107.27429578420436
30
0
10
-104.90505615583206
20
-107.30694490665023
30
0
10
-104.22810768323849
20
-107.3695449647096
30
0
10
-101.48662456120952
20
-107.62306057122305
30
0
10
-98.090411505566678
20
-108.43076703085309
30
0
10
-94.557413014991511
20
-109.73915131979155
30
0
10
-89.923940210294532
20
-111.45507705173327
30
0
10
-84.994033453090196
20
-114.04763671536087
30
0
10
-81.018252678502108
20
-116.55568490592067
30
0
10
-77.552981911742535
20
-118.741687245869
30
0
10
-74.789736963962127
20
-120.85350518451997
30
0
10
-73.347422897255811
20
-122.20398995782011
30
0
10
-72.899255086037797
20
-122.62362380796714
30
0
10
-72.565655852354126
20
-122.99612246112795
30
0
10
-72.384197820400388
20
-123.22656188782277
30
0
10
-72.316290140386684
20
-123.31280004814032
30
0
10
-72.261787549222291
20
-123.39394372022839
30
0
10
-72.237625711770136
20
-123.43168284709142
30
0
0
LINE
5
111
100
AcDbEntity
8
0
100
AcDbLine
10
-72.887725029604809
20
-142.97645229483859
30
0
11
-37.469510386491166
21
-142.97645229483859
31
0
0
LINE
5
112
100
AcDbEntity
8
0
100
AcDbLine
10
-37.469510386491166
20
-142.97645229483859
30
0
11
-37.469510386491166
21
-124.56121928837592
31
0
0
LINE
5
113
100
AcDbEntity
8
0
100
AcDbLine
10
-37.469510386491166
20
-124.56121928837592
30
0
11
-47.982972422665711
21
-124.56121928837592
31
0
0
LINE
5
114
100
AcDbEntity
8
0
100
AcDbLine
10
-47.982972422665711
20
-124.56121928837592
30
0
11
-47.982972422665711
21
-124.56171490738156
31
0
0
LINE
5
115
100
AcDbEntity
8
0
100
AcDbLine
10
-47.982972422665711
20
-124.56171490738156
30
0
11
-57.083855148778326
21
-124.56171490738156
31
0
0
LINE
5
116
100
AcDbEntity
8
0
100
AcDbLine
10
-57.083855148778326
20
-124.56171490738156
30
0
11
-57.083855148778326
21
-124.56121928837592
31
0
0
LINE
5
117
100
AcDbEntity
8
0
100
AcDbLine
10
-57.083855148778326
20
-124.56121928837592
30
0
11
-63.873168110215616
21
-124.56121928837591
31
-1.2325951644078309e-31
0
LINE
5
118
100
AcDbEntity
8
0
100
AcDbLine
10
-63.873168110215616
20
-124.56121928837591
30
-1.2325951644078309e-31
11
-63.873168110215616
21
-124.56171490738154
31
0
0
LINE
5
119
100
AcDbEntity
8
0
100
AcDbLine
10
-63.873168110215616
20
-124.56171490738154
30
0
11
-71.921842247531572
21
-124.56171490738154
31
0
0
LINE
5
120
100
AcDbEntity
8
0
100
AcDbLine
10
-71.921842247531572
20
-124.56171490738154
30
0
11
-71.921842247531572
21
-124.56121928837591
31
0
0
LINE
5
121
100
AcDbEntity
8
0
100
AcDbLine
10
-71.921842247531572
20
-124.56121928837591
30
0
11
-71.999017501879038
21
-124.56121928837591
31
0
0
LINE
5
122
100
AcDbEntity
8
0
100
AcDbLine
10
-71.999017501879038
20
-124.56121928837591
30
0
11
-71.999017501879038
21
-123.75189720077705
31
0
0
LINE
5
123
100
AcDbEntity
8
0
100
AcDbLine
10
-71.999017501879038
20
-123.75189720077705
30
0
11
-72.210020434199848
21
-123.48805115941451
31
0
0
LINE
5
124
100
AcDbEntity
8
0
100
AcDbLine
10
-72.210020434199848
20
-123.48805115941451
30
0
11
-72.237625711770136
21
-123.43168284709142
31
0
0
CIRCLE
5
125
100
AcDbEntity
8
0
100
AcDbCircle
10
-55.583128703968612
20
-141.00536825230472
30
0
40
0.44999999999999929
210
-7.5964541966078376e-64
220
-3.4211388289180104e-48
230
1
0
CIRCLE
5
126
100
AcDbEntity
8
0
100
AcDbCircle
10
-73.363128703968613
20
-141.00536825230472
30
0
40
0.44999999999999929
210
-7.5964541966078376e-64
220
-3.4211388289180104e-48
230
1
0
CIRCLE
5
127
100
AcDbEntity
8
0
100
AcDbCircle
10
-68.2831287039686
20
-141.00536825230472
30
0
40
0.44999999999999929
210
-7.5964541966078376e-64
220
-3.4211388289180104e-48
230
1
0
CIRCLE
5
128
100
AcDbEntity
8
0
100
AcDbCircle
10
-63.203128703968616
20
-141.00536825230472
30
0
40
0.44999999999999929
210
-7.5964541966078376e-64
220
-3.4211388289180104e-48
230
1
0
CIRCLE
5
129
100
AcDbEntity
8
0
100
AcDbCircle
10
-75.903128703968605
20
-141.00536825230472
30
0
40
0.44999999999999929
210
-7.5964541966078376e-64
220
-3.4211388289180104e-48
230
1
0
CIRCLE
5
130
100
AcDbEntity
8
0
100
AcDbCircle
10
-65.743128703968608
20
-141.00536825230472
30
0
40
0.44999999999999929
210
-7.5964541966078376e-64
220
-3.4211388289180104e-48
230
1
0
CIRCLE
5
131
100
AcDbEntity
8
0
100
AcDbCircle
10
-73.755594597153134
20
-124.80771944161667
30
0
40
0.39101314871491155
210
6.8368087769470537e-64
220
3.0790249460262094e-48
230
1
0
CIRCLE
5
132
100
AcDbEntity
8
0
100
AcDbCircle
10
-55.583128703968612
20
-125.76536825230474
30
0
40
0.44999999999999929
210
-7.5964541966078376e-64
220
-3.4211388289180104e-48
230
1
0
LINE
5
133
100
AcDbEntity
8
0
100
AcDbLine
10
-94.163128703968596
20
-119.44504070104826
30
0
11
-94.163128703968596
21
-117.84569580356097
31
0
0
ARC
5
134
100
AcDbEntity
8
0
100
AcDbCircle
10
-93.663128791140409
20
-117.84536825453971
30
1.1559707371148746e-48
40
0.50000000223519714
210
1.1039637750951688e-37
220
-1.6851883397365494e-34
230
1
100
AcDbArc
50
-1.7075472925031877e-06
51
180.0375343541759
0
LINE
5
135
100
AcDbEntity
8
0
100
AcDbLine
10
-93.163128788905212
20
-117.84536827152701
30
-5.5201051680425171e-38
11
-93.163128788905212
21
-119.44536825006936
31
0
0
ARC
5
136
100
AcDbEntity
8
0
100
AcDbCircle
10
-93.663128791140394
20
-119.44536825006936
30
3.2500818874721099e-47
40
0.50000002011657685
210
2.3300479566450158e-36
220
3.5567921139681872e-33
230
1
100
AcDbArc
50
-180.03753435415646
51
0
0
LINE
5
137
100
AcDbEntity
8
0
100
AcDbLine
10
-108.73187326918192
20
-146.8769512383476
30
0
11
-108.73187326918192
21
-148.4762961358349
31
0
0
ARC
5
138
100
AcDbEntity
8
0
100
AcDbCircle
10
-109.23187318201015
20
-148.47662368485615
30
6.6284564810286452e-48
40
0.50000000223516172
210
2.2079275501309977e-36
220
-3.3703766794730977e-33
230
1
100
AcDbArc
50
-180.00000170754728
51
0.037534354175900411
0
LINE
5
139
100
AcDbEntity
8
0
100
AcDbLine
10
-109.7318731842453
20
-148.47662366786886
30
1.1040210336085032e-36
11
-109.73187318424529
21
-146.87662368932649
31
0
0
ARC
5
140
100
AcDbEntity
8
0
100
AcDbCircle
10
-109.23187318201013
20
-146.87662368932646
30
-1.2273335548743362e-46
40
0.50000002011657685
210
4.4344947506410699e-36
220
6.7692065792507325e-33
230
1
100
AcDbArc
50
-0.037534354156460718
51
180
0
CIRCLE
5
141
100
AcDbEntity
8
0
100
AcDbCircle
10
-96.444999559989952
20
-139.53321144024272
30
0
40
0.60000000000000497
210
-0
220
0
230
1
0
CIRCLE
5
142
100
AcDbEntity
8
0
100
AcDbCircle
10
-101.47625558765675
20
-126.80195628392163
30
0
40
0.60000000000000497
210
-0
220
0
230
1
0
CIRCLE
5
143
100
AcDbEntity
8
0
100
AcDbCircle
10
-106.47625547589809
20
-126.80195656065749
30
0
40
0.60000000000000497
210
-0
220
0
230
1
0
CIRCLE
5
144
100
AcDbEntity
8
0
100
AcDbCircle
10
-101.44499944823113
20
-139.53321171697854
30
0
40
0.60000000000000497
210
-0
220
0
230
1
0
ARC
5
145
100
AcDbEntity
8
0
100
AcDbCircle
10
-96.476255587656894
20
-126.80195600718579
30
-6.0939035390102061e-47
40
0.59999999999999121
210
1.3779535812264492e-32
220
1.8907065800370839e-34
230
1
100
AcDbArc
50
115.9486056044389
51
297.35116408545173
0
ARC
5
146
100
AcDbEntity
8
0
100
AcDbCircle
10
-96.463128703968579
20
-126.79536825230456
30
0
40
0.59999999999997566
210
-8.3866333191215909e-33
220
-1.0935069112071993e-32
230
1
100
AcDbArc
50
-64.05139439556477
51
117.35116408545538
0
ARC
5
147
100
AcDbEntity
8
0
100
AcDbCircle
10
-106.44499944823112
20
-139.53321199371433
30
0
40
0.60000000000000997
210
0
220
0
230
1
100
AcDbArc
50
115.95178062462175
51
297.35430259780367
0
ARC
5
148
100
AcDbEntity
8
0
100
AcDbCircle
10
-106.43187326918188
20
-139.52662368709133
30
0
40
0.6000000000000103
210
-7.5673542734568994e-47
220
-3.68296495640833e-47
230
1
100
AcDbArc
50
-64.048219375239896
51
117.35430259766537
0
CIRCLE
5
149
100
AcDbEntity
8
0
100
AcDbCircle
10
-85.399516408304606
20
-150.31320403834715
30
0
40
0.44999999999999929
210
0
220
-0
230
1
0
CIRCLE
5
150
100
AcDbEntity
8
0
100
AcDbCircle
10
-39.631530117082704
20
-129.20457292169399
30
0
40
0.45000000000000367
210
-1.2325951644078312e-32
220
-3.0258173569694267e-80
230
1
0
CIRCLE
5
151
100
AcDbEntity
8
0
100
AcDbCircle
10
-51.46769909520404
20
-140.99769274832198
30
0
40
0.44999999999999929
210
0
220
-0
230
1
0
CIRCLE
5
152
100
AcDbEntity
8
0
100
AcDbCircle
10
-85.824895271781145
20
-146.86562391384803
30
0
40
0.44999999999999929
210
0
220
-0
230
1
0
CIRCLE
5
153
100
AcDbEntity
8
0
100
AcDbCircle
10
-39.631530117082704
20
-138.25909186261907
30
0
40
0.45000000000000367
210
-1.2325951644078312e-32
220
-3.0258173569694267e-80
230
1
0
CIRCLE
5
154
100
AcDbEntity
8
0
100
AcDbCircle
10
-42.183236735225272
20
-139.14018541888257
30
0
40
0.44999999999999929
210
0
220
-0
230
1
0
CIRCLE
5
155
100
AcDbEntity
8
0
100
AcDbCircle
10
-89.44390318401291
20
-146.86562391384803
30
0
40
0.44999999999999929
210
0
220
-0
230
1
0
LWPOLYLINE
5
156
100
AcDbEntity
8
0
100
AcDbPolyline
90
4
70
1
43
0.0
10
-52.491198297015359
20
-128.59941328906879
10
-52.491198297015359
20
-124.66094884735797
10
-45.89192603307729
20
-124.66094884735797
10
-45.89192603307729
20
-128.59941328906879
0
LWPOLYLINE
5
157
100
AcDbEntity
8
0
100
AcDbPolyline
90
6
70
1
43
0.0
10
-37.670026045376758
20
-124.65137737605426
10
-37.670026045376758
20
-127.26399246998656
10
-41.289067647761556
20
-127.26399246998656
10
-41.289067647761556
20
-128.59905030639419
10
-45.638239866132821
20
-128.59905030639419
10
-45.638239866132807
20
-124.65137737605426
0
LWPOLYLINE
5
158
100
AcDbEntity
8
0
100
AcDbPolyline
90
58
70
1
43
0.0
10
-92.732191698688098
20
-152.64952603127148
10
-92.732191698688098
20
-145.71814656715094
10
-88.101837051608896
20
-145.71814656715094
10
-87.185697779578803
20
-150.04400119414149
10
-86.340461256097413
20
-151.85661676821479
10
-88.15307683017069
20
-152.70185329169618
10
-88.251356458640871
20
-152.4910919482968
10
-101.59797286819285
20
-158.13773735233801
42
-0.10039544238731378
10
-101.83175686269486
20
-158.18515700169687
10
-107.40894417003695
20
-158.18515700169687
42
-0.41421356237310375
10
-108.00894417003697
20
-157.58515700169687
10
-108.00894417003693
20
-143.28190448584559
10
-106.15867329687048
20
-141.97261130873633
42
-0.079347926159183998
10
-105.13996305801497
20
-141.47111204517554
10
-105.13996305801497
20
-124.85833770621343
10
-98.44311821389978
20
-124.8583377062134
42
-0.34285420522139104
10
-97.861714012637464
20
-125.31011775224455
42
0.34285420522141297
10
-97.183409111164778
20
-125.83719447261417
10
-71.978839815234679
20
-125.83719447261419
10
-71.978839815234679
20
-124.6388345555836
10
-52.917839815234686
20
-124.6388345555836
10
-52.917839815234693
20
-126.62814220199743
42
-0.0038410327588290377
10
-52.9177690003675
20
-126.6373602726142
10
-52.9177690003675
20
-128.91652201500128
10
-41.030002447035642
20
-128.91652201500128
10
-41.030002447035642
20
-127.54549779619214
10
-37.475417572326208
20
-127.54549779619214
10
-37.475417572326215
20
-130.64549779619216
10
-53.617769000367481
20
-130.64549779619216
42
-0.41421356237309076
10
-54.217769000367483
20
-130.04549779619214
10
-54.217769000367497
20
-128.17418078398259
42
0.41421356237307771
10
-54.817769000367491
20
-127.5741807839826
10
-93.763437318882822
20
-127.57418078398257
42
0.41421356237309503
10
-93.988437318882831
20
-127.79918078398256
10
-93.988437318882831
20
-140.02216707397926
42
-0.21525043702152624
10
-94.259287056669891
20
-140.62216707397926
10
-97.914555069458686
20
-140.62216707397926
10
-97.914555069458686
20
-128.03879383574721
10
-98.324816344280137
20
-128.03879383574721
42
-0.34435097704617973
10
-98.779711847591841
20
-127.45660427465835
10
-98.779711847591869
20
-126.46697700403566
42
0.033604685764822846
10
-98.785120145330794
20
-126.38659847703806
10
-98.794625666817069
20
-125.60044874099971
10
-101.71116736411656
20
-125.60044857957732
10
-101.71116736410931
20
-125.6003176632062
10
-103.70015129427416
20
-125.60031755312158
10
-103.70015146070298
20
-128.60731755312159
10
-103.70012866438759
20
-128.60731755312284
10
-103.70012879539324
20
-130.9742978016298
10
-103.69996305801493
20
-130.97429780163898
10
-103.69996305801493
20
-142.11570457866026
10
-103.69987395872113
20
-142.11583049226849
10
-103.69987396297998
20
-142.19277799045042
10
-106.4089441700369
20
-144.10977684172647
10
-106.40894417003695
20
-155.98515700169688
42
0.41421356237310375
10
-105.80894417003694
20
-156.58515700169687
10
-102.15629336116557
20
-156.58515700169684
42
0.10039544238731776
10
-101.92250936666355
20
-156.53773735233801
0
LINE
5
159
100
AcDbEntity
8
0
100
AcDbLine
10
-86.042677278188478
20
-151.6995691386899
30
0
11
-85.91662121331359
21
-151.90809900274925
31
-2.1763008371575765e-31
0
LINE
5
160
100
AcDbEntity
8
0
100
AcDbLine
10
-85.91662121331359
20
-151.90809900274925
30
-2.1763008371575765e-31
11
-84.196912061973279
21
-150.8553375042668
31
-3.0814879110195774e-32
0
SPLINE
5
161
100
AcDbEntity
8
0
100
AcDbSpline
70
0
71
3
72
11
73
7
74
0
42
0.000000001
43
0.0000000001
44
0.0000000001
40
-1.4849467941200341
40
-1.4849467941200341
40
-1.4849467941200341
40
-1.4849467941200341
40
-0.7875724941765988
40
-0.7875724941765988
40
-0.7875724941765988
40
-0.11311941349423653
40
-0.11311941349423653
40
-0.11311941349423653
40
-0.11311941349423653
10
-84.196912061973279
20
-150.8553375042668
30
0
10
-82.233323633256219
20
-149.61207474226484
30
0
10
-80.28098193223677
20
-148.29614093846115
30
0
10
-78.380575859670145
20
-146.95835823803822
30
0
10
-76.542632096476936
20
-145.66454561228221
30
0
10
-74.714417600141417
20
-144.32295388366074
30
0
10
-72.918074810367358
20
-142.96228494709518
30
0
0
LINE
5
162
100
AcDbEntity
8
0
100
AcDbLine
10
-72.918074810367358
20
-142.96228494709521
30
0
11
-72.888455716023742
21
-142.9263884983003
31
0
0
LINE
5
163
100
AcDbEntity
8
0
100
AcDbLine
10
-72.888455716023742
20
-142.9263884983003
30
0
11
-67.034728385980387
21
-142.9263884983003
31
0
0
LINE
5
164
100
AcDbEntity
8
0
100
AcDbLine
10
-67.034728385980387
20
-142.9263884983003
30
0
11
-67.034728385980387
21
-139.9206831202452
31
0
0
LINE
5
165
100
AcDbEntity
8
0
100
AcDbLine
10
-67.034728385980387
20
-139.9206831202452
30
0
11
-69.034728385980401
21
-139.9206831202452
31
0
0
LINE
5
166
100
AcDbEntity
8
0
100
AcDbLine
10
-69.034728385980401
20
-139.9206831202452
30
0
11
-69.034728385980401
21
-139.92038038501661
31
0
0
LINE
5
167
100
AcDbEntity
8
0
100
AcDbLine
10
-69.034728385980401
20
-139.92038038501661
30
0
11
-71.589562554241496
21
-139.92038038501661
31
0
0
ARC
5
168
100
AcDbEntity
8
0
100
AcDbCircle
10
-71.589562554241496
20
-141.00536825230472
30
0
40
1.0849878672881097
210
-1.0641382162699259e-48
220
0
230
1
100
AcDbArc
50
90
51
110.59535002819715
0
LINE
5
169
100
AcDbEntity
8
0
100
AcDbLine
10
-71.971224048263437
20
-139.98972403500059
30
5.6331721084716533e-33
11
-71.971224048263437
21
-141.87904478366104
31
0
0
LINE
5
170
100
AcDbEntity
8
0
100
AcDbLine
10
-71.971224048263437
20
-141.87904478366104
30
0
11
-72.171224048263426
21
-141.87904478366104
31
0
0
LINE
5
171
100
AcDbEntity
8
0
100
AcDbLine
10
-72.171224048263426
20
-141.87904478366104
30
0
11
-72.452891531676414
21
-141.87904478366104
31
0
0
LINE
5
172
100
AcDbEntity
8
0
100
AcDbLine
10
-72.452891531676414
20
-141.87904478366104
30
0
11
-72.595296134652813
21
-141.87904804683714
31
0
0
LINE
5
173
100
AcDbEntity
8
0
100
AcDbLine
10
-72.595296134652813
20
-141.87904804683714
30
0
11
-73.565857298834857
21
-141.87904804683714
31
0
0
SPLINE
5
174
100
AcDbEntity
8
0
100
AcDbSpline
70
0
71
3
72
14
73
10
74
0
42
0.000000001
43
0.0000000001
44
0.0000000001
40
-1
40
-1
40
-1
40
-1
40
-0.8571428571428571
40
-0.7142857142857143
40
-0.5714285714285714
40
-0.42857142857142855
40
-0.2857142857142857
40
-0.14285714285714285
40
-0.0080028830224639479
40
-0.0080028830224639479
40
-0.0080028830224639479
40
-0.0080028830224639479
10
-74.264285725999585
20
-142.39417742015956
30
0
10
-74.230974363101325
20
-142.36915921115877
30
0
10
-74.164289101719604
20
-142.31920605833318
30
0
10
-74.06407422786593
20
-142.24452659278387
30
0
10
-73.963672998374236
20
-142.17009785752134
30
0
10
-73.863086040551806
20
-142.09592031757657
30
0
10
-73.762313982866374
20
-142.02199443641121
30
0
10
-73.663242655936642
20
-141.94969641505099
30
0
10
-73.597707714999231
20
-141.90211540019851
30
0
10
-73.565857298834857
20
-141.87904804683714
30
0
0
SPLINE
5
175
100
AcDbEntity
8
0
100
AcDbSpline
70
4
71
5
72
29
73
23
74
0
42
0.000000001
43
0.0000000001
44
0.0000000001
40
-0.92024196750295295
40
-0.92024196750295295
40
-0.92024196750295295
40
-0.92024196750295295
40
-0.92024196750295295
40
-0.92024196750295295
40
-0.92000000000000026
40
-0.88000000000000023
40
-0.84000000000000019
40
-0.80000000000000016
40
-0.76000000000000012
40
-0.72000000000000008
40
-0.68000000000000005
40
-0.64000000000000001
40
-0.59999999999999998
40
-0.55999999999999994
40
-0.51999999999999991
40
-0.47999999999999993
40
-0.43999999999999995
40
-0.39999999999999997
40
-0.35999999999999999
40
-0.32000000000000001
40
-0.28000000000000003
40
-0.25160269781672534
40
-0.25160269781672534
40
-0.25160269781672534
40
-0.25160269781672534
40
-0.25160269781672534
40
-0.25160269781672534
41
1
41
1
41
1
41
1
41
1
41
1
41
1
41
1
41
1
41
1
41
1
41
1
41
1
41
1
41
1
41
1
41
1
41
1
41
1
41
1
41
1
41
1
41
1
10
-74.264285725999571
20
-142.39417742015956
30
0
10
-74.264829558888295
20
-142.39453528189159
30
0
10
-74.355273594016509
20
-142.45405363003852
30
0
10
-74.53508607152645
20
-142.57334359002544
30
0
10
-74.803009363779594
20
-142.7539408859009
30
0
10
-75.157413927284168
20
-142.99838236379534
30
0
10
-75.59739252562018
20
-143.31008764161251
30
0
10
-76.038521320946927
20
-143.62894683145106
30
0
10
-76.486071360133479
20
-143.95569173548935
30
0
10
-76.945734000578398
20
-144.2909989583365
30
0
10
-77.422407696919905
20
-144.63525949837674
30
0
10
-77.918901699548627
20
-144.98833131732533
30
0
10
-78.434705452040987
20
-145.3492999269252
30
0
10
-78.964536914866073
20
-145.71619703062191
30
0
10
-79.499940046237967
20
-146.08626037203149
30
0
10
-80.031026676410718
20
-146.45621932604769
30
0
10
-80.548204071760679
20
-146.82256891406911
30
0
10
-81.043768106464796
20
-147.18183213879473
30
0
10
-81.486635185164147
20
-147.51061036797051
30
0
10
-81.818557566346044
20
-147.76072284997559
30
0
10
-82.053216804800485
20
-147.93796816987174
30
0
10
-82.198605839151199
20
-148.04748981811193
30
0
10
-82.258538969817664
20
-148.09255204533787
30
0
0
LINE
5
176
100
AcDbEntity
8
0
100
AcDbLine
10
-82.258538969817678
20
-148.0925520453379
30
0
11
-82.258538969817636
21
-145.71814656715094
31
0
0
LINE
5
177
100
AcDbEntity
8
0
100
AcDbLine
10
-82.258538969817636
20
-145.71814656715094
30
0
11
-87.101837051608896
21
-145.71814656715094
31
2.4651903288156619e-31
0
LINE
5
178
100
AcDbEntity
8
0
100
AcDbLine
10
-87.101837051608896
20
-145.71814656715094
30
2.4651903288156619e-31
11
-87.101837051608896
21
-148.21814656715094
31
0
0
LINE
5
179
100
AcDbEntity
8
0
100
AcDbLine
10
-87.101837051608896
20
-148.21814656715094
30
0
11
-86.887913801669882
21
-149.88695356461659
31
0
0
LINE
5
180
100
AcDbEntity
8
0
100
AcDbLine
10
-86.887913801669882
20
-149.88695356461659
30
0
11
-86.042677278188478
21
-151.6995691386899
31
0
0
LWPOLYLINE
5
181
100
AcDbEntity
8
0
100
AcDbPolyline
90
10
70
1
43
0.0
10
-41.337287776637822
20
-138.42428690218523
10
-41.337287776637822
20
-140.40370370218523
10
-42.737287776637828
20
-140.40370370218523
10
-49.524510163188218
20
-140.40370370218523
10
-49.778510163188223
20
-140.4037011860874
10
-49.778510163188223
20
-140.42370118608741
10
-49.778128703968605
20
-140.42370118608741
10
-49.778128703968605
20
-142.9263884983003
10
-53.208702137394326
20
-142.9263884983003
10
-53.208702137394326
20
-138.42428690218523
0
LWPOLYLINE
5
182
100
AcDbEntity
8
0
100
AcDbPolyline
90
6
70
1
43
0.0
10
-48.763128703968604
20
-142.9263884983003
10
-48.763128703968604
20
-140.8491198423871
10
-41.029681200299528
20
-140.8491198423871
10
-41.029681200299528
20
-140.15412006528479
10
-37.475417572326208
20
-140.15412006528479
10
-37.475417572326215
20
-142.9263884983003
0
LWPOLYLINE
5
183
100
AcDbEntity
8
0
100
AcDbPolyline
90
16
70
1
43
0.0
10
-76.848632210734635
20
-132.05075466146465
42
-0.25138067141273801
10
-76.580294689770184
20
-131.55075466146465
10
-67.726126326250821
20
-131.55075466146465
10
-67.726126326250821
20
-133.45075466146466
10
-74.248632210734641
20
-133.45075466146466
42
0.41421356237307771
10
-74.848632210734621
20
-134.05075466146465
10
-74.848632210734621
20
-139.73896151082801
10
-74.848929362165038
20
-139.73896151082801
10
-74.848929362165038
20
-142.13611596998277
10
-74.848632210734621
20
-142.13611596998277
10
-74.848632210734621
20
-142.13658694499944
10
-76.848632210734621
20
-142.13658694499944
10
-76.848632210734621
20
-142.13611596998277
10
-77.477675112435861
20
-142.13611596998277
10
-77.477675112435861
20
-139.73896151082801
10
-76.848632210734621
20
-139.73896151082801
0
SPLINE
5
184
100
AcDbEntity
8
0
100
AcDbSpline
70
0
71
2
72
6
73
3
74
0
42
0.000000001
43
0.0000000001
44
0.0000000001
40
0
40
0
40
0
40
1
40
1
40
1
10
-84.806527390383749
20
-138.90193330358912
30
0
10
-84.80343995193175
20
-139.25463862086832
30
0
10
-84.661540400984748
20
-139.57698462200145
30
0
0
SPLINE
5
185
100
AcDbEntity
8
0
100
AcDbSpline
70
0
71
2
72
6
73
3
74
0
42
0.000000001
43
0.0000000001
44
0.0000000001
40
0
40
0
40
0
40
1
40
1
40
1
10
-84.661540400984748
20
-139.57698462200145
30
0
10
-84.519641451278716
20
-139.89933003232829
30
0
10
-84.255997028612612
20
-140.14698861918507
30
0
0
SPLINE
5
186
100
AcDbEntity
8
0
100
AcDbSpline
70
0
71
2
72
6
73
3
74
0
42
0.000000001
43
0.0000000001
44
0.0000000001
40
0
40
0
40
0
40
1
40
1
40
1
10
-84.255997028612612
20
-140.14698861918507
30
0
10
-83.992376561397762
20
-140.3919105636231
30
0
10
-83.614191408523823
20
-140.53579999070453
30
0
0
SPLINE
5
187
100
AcDbEntity
8
0
100
AcDbSpline
70
0
71
2
72
6
73
3
74
0
42
0.000000001
43
0.0000000001
44
0.0000000001
40
0
40
0
40
0
40
1
40
1
40
1
10
-83.614191408523823
20
-140.53579999070453
30
0
10
-83.236006255649897
20
-140.67968941778594
30
0
10
-82.763169995091133
20
-140.6755504020671
30
0
0
SPLINE
5
188
100
AcDbEntity
8
0
100
AcDbSpline
70
0
71
2
72
6
73
3
74
0
42
0.000000001
43
0.0000000001
44
0.0000000001
40
0
40
0
40
0
40
1
40
1
40
1
10
-82.763169995091133
20
-140.6755504020671
30
0
10
-82.290290224808643
20
-140.67141100548187
30
0
10
-81.906318930864458
20
-140.52362974091028
30
0
0
SPLINE
5
189
100
AcDbEntity
8
0
100
AcDbSpline
70
0
71
2
72
6
73
3
74
0
42
0.000000001
43
0.0000000001
44
0.0000000001
40
0
40
0
40
0
40
1
40
1
40
1
10
-81.906318930864458
20
-140.52362974091028
30
0
10
-81.522347636920273
20
-140.37584847633869
30
0
10
-81.246450029129065
20
-140.11795123155329
30
0
0
SPLINE
5
190
100
AcDbEntity
8
0
100
AcDbSpline
70
0
71
2
72
6
73
3
74
0
42
0.000000001
43
0.0000000001
44
0.0000000001
40
0
40
0
40
0
40
1
40
1
40
1
10
-81.246450029129065
20
-140.11795123155329
30
0
10
-80.973308027222842
20
-139.86281436426327
30
0
10
-80.826115093117636
20
-139.51715461775262
30
0
0
SPLINE
5
191
100
AcDbEntity
8
0
100
AcDbSpline
70
0
71
2
72
6
73
3
74
0
42
0.000000001
43
0.0000000001
44
0.0000000001
40
0
40
0
40
0
40
1
40
1
40
1
10
-80.826115093117636
20
-139.51715461775262
30
0
10
-80.678922159012444
20
-139.17149487124198
30
0
10
-80.682349862436553
20
-138.77991808597503
30
0
0
SPLINE
5
192
100
AcDbEntity
8
0
100
AcDbSpline
70
0
71
2
72
6
73
3
74
0
42
0.000000001
43
0.0000000001
44
0.0000000001
40
0
40
0
40
0
40
1
40
1
40
1
10
-80.682349862436553
20
-138.77991808597503
30
0
10
-80.684902006247881
20
-138.48836419535837
30
0
10
-80.759237935707247
20
-138.25294762273714
30
0
0
SPLINE
5
193
100
AcDbEntity
8
0
100
AcDbSpline
70
0
71
2
72
6
73
3
74
0
42
0.000000001
43
0.0000000001
44
0.0000000001
40
0
40
0
40
0
40
1
40
1
40
1
10
-80.759237935707247
20
-138.25294762273714
30
0
10
-80.83357385994924
20
-138.0175316461395
30
0
10
-80.96608701115008
20
-137.80486248600968
30
0
0
LINE
5
194
100
AcDbEntity
8
0
100
AcDbLine
10
-80.966087011150094
20
-137.80486248600968
30
0
11
-80.778070743358285
21
-137.68933167101034
31
0
0
LINE
5
195
100
AcDbEntity
8
0
100
AcDbLine
10
-80.778070743358285
20
-137.68933167101034
30
0
11
-80.780017262684055
21
-137.46696360535844
31
0
0
LINE
5
196
100
AcDbEntity
8
0
100
AcDbLine
10
-80.780017262684055
20
-137.46696360535844
30
0
11
-82.186714886268163
21
-137.45425904249049
31
0
0
LINE
5
197
100
AcDbEntity
8
0
100
AcDbLine
10
-82.186714886268163
20
-137.45425904249049
30
0
11
-82.184719709959197
21
-137.68218562435652
31
0
0
SPLINE
5
198
100
AcDbEntity
8
0
100
AcDbSpline
70
0
71
2
72
6
73
3
74
0
42
0.000000001
43
0.0000000001
44
0.0000000001
40
0
40
0
40
0
40
1
40
1
40
1
10
-82.184719709959197
20
-137.68218562435652
30
0
10
-81.978640053847897
20
-137.7248156718579
30
0
10
-81.7374270683313
20
-137.81154951062976
30
0
0
SPLINE
5
199
100
AcDbEntity
8
0
100
AcDbSpline
70
0
71
2
72
6
73
3
74
0
42
0.000000001
43
0.0000000001
44
0.0000000001
40
0
40
0
40
0
40
1
40
1
40
1
10
-81.7374270683313
20
-137.81154951062976
30
0
10
-81.496213779585517
20
-137.89828394281659
30
0
10
-81.328392622590684
20
-138.01621592732178
30
0
0
SPLINE
5
200
100
AcDbEntity
8
0
100
AcDbSpline
70
0
71
2
72
6
73
3
74
0
42
0.000000001
43
0.0000000001
44
0.0000000001
40
0
40
0
40
0
40
1
40
1
40
1
10
-81.328392622590684
20
-138.01621592732178
30
0
10
-81.138213132942866
20
-138.14780901873715
30
0
10
-81.029594603711018
20
-138.33010898839791
30
0
0
SPLINE
5
201
100
AcDbEntity
8
0
100
AcDbSpline
70
0
71
2
72
6
73
3
74
0
42
0.000000001
43
0.0000000001
44
0.0000000001
40
0
40
0
40
0
40
1
40
1
40
1
10
-81.029594603711018
20
-138.33010898839791
30
0
10
-80.920976079696501
20
-138.51240836203502
30
0
10
-80.918910563107929
20
-138.74837053425051
30
0
0
SPLINE
5
202
100
AcDbEntity
8
0
100
AcDbSpline
70
0
71
2
72
6
73
3
74
0
42
0.000000001
43
0.0000000001
44
0.0000000001
40
0
40
0
40
0
40
1
40
1
40
1
10
-80.918910563107929
20
-138.74837053425051
30
0
10
-80.916553068098764
20
-139.01768797591615
30
0
10
-81.034133579661813
20
-139.25054943450573
30
0
0
SPLINE
5
203
100
AcDbEntity
8
0
100
AcDbSpline
70
0
71
2
72
6
73
3
74
0
42
0.000000001
43
0.0000000001
44
0.0000000001
40
0
40
0
40
0
40
1
40
1
40
1
10
-81.034133579661813
20
-139.25054943450573
30
0
10
-81.151714091224875
20
-139.48341089309534
30
0
10
-81.383891800755336
20
-139.65479491044169
30
0
0
SPLINE
5
204
100
AcDbEntity
8
0
100
AcDbSpline
70
0
71
2
72
6
73
3
74
0
42
0.000000001
43
0.0000000001
44
0.0000000001
40
0
40
0
40
0
40
1
40
1
40
1
10
-81.383891800755336
20
-139.65479491044169
30
0
10
-81.607847264707857
20
-139.81781086131758
30
0
10
-81.954755914315655
20
-139.9124729440816
30
0
0
SPLINE
5
205
100
AcDbEntity
8
0
100
AcDbSpline
70
0
71
2
72
6
73
3
74
0
42
0.000000001
43
0.0000000001
44
0.0000000001
40
0
40
0
40
0
40
1
40
1
40
1
10
-81.954755914315655
20
-139.9124729440816
30
0
10
-82.301664566532139
20
-140.00713472883382
30
0
10
-82.730070842888978
20
-140.01088482259735
30
0
0
SPLINE
5
206
100
AcDbEntity
8
0
100
AcDbSpline
70
0
71
2
72
6
73
3
74
0
42
0.000000001
43
0.0000000001
44
0.0000000001
40
0
40
0
40
0
40
1
40
1
40
1
10
-82.730070842888978
20
-140.01088482259735
30
0
10
-83.108357493634927
20
-140.01419618960594
30
0
10
-83.42494127579414
20
-139.92117254426253
30
0
0
SPLINE
5
207
100
AcDbEntity
8
0
100
AcDbSpline
70
0
71
2
72
6
73
3
74
0
42
0.000000001
43
0.0000000001
44
0.0000000001
40
0
40
0
40
0
40
1
40
1
40
1
10
-83.42494127579414
20
-139.92117254426253
30
0
10
-83.74152506056204
20
-139.8281486009073
30
0
10
-83.98230019486077
20
-139.65252209746893
30
0
0
SPLINE
5
208
100
AcDbEntity
8
0
100
AcDbSpline
70
0
71
2
72
6
73
3
74
0
42
0.000000001
43
0.0000000001
44
0.0000000001
40
0
40
0
40
0
40
1
40
1
40
1
10
-83.98230019486077
20
-139.65252209746893
30
0
10
-84.220295695403408
20
-139.47691417923909
30
0
10
-84.355951484957842
20
-139.23515037150142
30
0
0
SPLINE
5
209
100
AcDbEntity
8
0
100
AcDbSpline
70
0
71
2
72
6
73
3
74
0
42
0.000000001
43
0.0000000001
44
0.0000000001
40
0
40
0
40
0
40
1
40
1
40
1
10
-84.355951484957842
20
-139.23515037150142
30
0
10
-84.491607274512234
20
-138.99338656376378
30
0
10
-84.494232414233053
20
-138.69349370677867
30
0
0
SPLINE
5
210
100
AcDbEntity
8
0
100
AcDbSpline
70
0
71
2
72
6
73
3
74
0
42
0.000000001
43
0.0000000001
44
0.0000000001
40
0
40
0
40
0
40
1
40
1
40
1
10
-84.494232414233053
20
-138.69349370677867
30
0
10
-84.496200987286926
20
-138.46860624931494
30
0
10
-84.4269739050049
20
-138.27918995352104
30
0
0
SPLINE
5
211
100
AcDbEntity
8
0
100
AcDbSpline
70
0
71
2
72
6
73
3
74
0
42
0.000000001
43
0.0000000001
44
0.0000000001
40
0
40
0
40
0
40
1
40
1
40
1
10
-84.4269739050049
20
-138.27918995352104
30
0
10
-84.357746822722874
20
-138.08977365772711
30
0
10
-84.242219110942997
20
-137.9499020749966
30
0
0
SPLINE
5
212
100
AcDbEntity
8
0
100
AcDbSpline
70
0
71
2
72
6
73
3
74
0
42
0.000000001
43
0.0000000001
44
0.0000000001
40
0
40
0
40
0
40
1
40
1
40
1
10
-84.242219110942997
20
-137.9499020749966
30
0
10
-84.121131608047207
20
-137.81002533718058
30
0
10
-83.966397431188895
20
-137.7031463277967
30
0
0
SPLINE
5
213
100
AcDbEntity
8
0
100
AcDbSpline
70
0
71
2
72
6
73
3
74
0
42
0.000000001
43
0.0000000001
44
0.0000000001
40
0
40
0
40
0
40
1
40
1
40
1
10
-83.966397431188895
20
-137.7031463277967
30
0
10
-83.811663552342395
20
-137.59626732102149
30
0
10
-83.628793063486867
20
-137.52803792286403
30
0
0
LINE
5
214
100
AcDbEntity
8
0
100
AcDbLine
10
-83.628793063486853
20
-137.52803792286406
30
0
11
-83.730683435041243
21
-137.32044386847147
31
0
0
SPLINE
5
215
100
AcDbEntity
8
0
100
AcDbSpline
70
0
71
2
72
6
73
3
74
0
42
0.000000001
43
0.0000000001
44
0.0000000001
40
0
40
0
40
0
40
1
40
1
40
1
10
-83.730683435041243
20
-137.32044386847147
30
0
10
-84.315088705689334
20
-137.56440626387632
30
0
10
-84.563190635878712
20
-137.9609857665007
30
0
0
SPLINE
5
216
100
AcDbEntity
8
0
100
AcDbSpline
70
0
71
2
72
6
73
3
74
0
42
0.000000001
43
0.0000000001
44
0.0000000001
40
0
40
0
40
0
40
1
40
1
40
1
10
-84.563190635878712
20
-137.9609857665007
30
0
10
-84.811292560850774
20
-138.35756586514873
30
0
10
-84.806527390383749
20
-138.90193330358912
30
0
0
LWPOLYLINE
5
217
100
AcDbEntity
8
0
100
AcDbPolyline
90
4
70
1
43
0.0
10
-94.26312870396859
20
-117.84569580356072
42
-1.0002730117816696
10
-93.063128788905217
20
-117.84536827492447
10
-93.063128788905203
20
-119.44536825006948
42
-1.0002729947897242
10
-94.26312870396859
20
-119.44504070104826
0
LWPOLYLINE
5
218
100
AcDbEntity
8
0
100
AcDbPolyline
90
4
70
1
43
0.0
10
-108.63187326918192
20
-148.4762961358351
42
-1.0002730117816696
10
-109.8318731842453
20
-148.47662366447139
10
-109.83187318424534
20
-146.87662368932649
42
-1.0002729947898259
10
-108.63187326918191
20
-146.8769512383476
0
SPLINE
5
219
100
AcDbEntity
8
0
100
AcDbSpline
70
0
71
2
72
6
73
3
74
0
42
0.000000001
43
0.0000000001
44
0.0000000001
40
0
40
0
40
0
40
1
40
1
40
1
10
-84.838523316801172
20
-135.24675651086829
30
0
10
-84.835435873131843
20
-135.59946242417112
30
0
10
-84.693536327402171
20
-135.92180782928062
30
0
0
SPLINE
5
220
100
AcDbEntity
8
0
100
AcDbSpline
70
0
71
2
72
6
73
3
74
0
42
0.000000001
43
0.0000000001
44
0.0000000001
40
0
40
0
40
0
40
1
40
1
40
1
10
-84.693536327402171
20
-135.92180782928062
30
0
10
-84.55163737247878
20
-136.2441538356311
30
0
10
-84.287992955030035
20
-136.49181182646427
30
0
0
SPLINE
5
221
100
AcDbEntity
8
0
100
AcDbSpline
70
0
71
2
72
6
73
3
74
0
42
0.000000001
43
0.0000000001
44
0.0000000001
40
0
40
0
40
0
40
1
40
1
40
1
10
-84.287992955030035
20
-136.49181182646427
30
0
10
-84.024372485206499
20
-136.73673406891407
30
0
10
-83.646187332332573
20
-136.88062349599551
30
0
0
SPLINE
5
222
100
AcDbEntity
8
0
100
AcDbSpline
70
0
71
2
72
6
73
3
74
0
42
0.000000001
43
0.0000000001
44
0.0000000001
40
0
40
0
40
0
40
1
40
1
40
1
10
-83.646187332332573
20
-136.88062349599551
30
0
10
-83.268002179458648
20
-137.02451292307697
30
0
10
-82.795165918899883
20
-137.02037390735811
30
0
0
SPLINE
5
223
100
AcDbEntity
8
0
100
AcDbSpline
70
0
71
2
72
6
73
3
74
0
42
0.000000001
43
0.0000000001
44
0.0000000001
40
0
40
0
40
0
40
1
40
1
40
1
10
-82.795165918899883
20
-137.02037390735811
30
0
10
-82.32228614861738
20
-137.01623451077285
30
0
10
-81.938314852064522
20
-136.86845354421308
30
0
0
SPLINE
5
224
100
AcDbEntity
8
0
100
AcDbSpline
70
0
71
2
72
6
73
3
74
0
42
0.000000001
43
0.0000000001
44
0.0000000001
40
0
40
0
40
0
40
1
40
1
40
1
10
-81.938314852064522
20
-136.86845354421308
30
0
10
-81.554343560729009
20
-136.72067198162969
30
0
10
-81.278445955546488
20
-136.46277443883247
30
0
0
SPLINE
5
225
100
AcDbEntity
8
0
100
AcDbSpline
70
0
71
2
72
6
73
3
74
0
42
0.000000001
43
0.0000000001
44
0.0000000001
40
0
40
0
40
0
40
1
40
1
40
1
10
-81.278445955546488
20
-136.46277443883247
30
0
10
-81.005303953640265
20
-136.20763757154248
30
0
10
-80.858111019535073
20
-135.86197782503183
30
0
0
SPLINE
5
226
100
AcDbEntity
8
0
100
AcDbSpline
70
0
71
2
72
6
73
3
74
0
42
0.000000001
43
0.0000000001
44
0.0000000001
40
0
40
0
40
0
40
1
40
1
40
1
10
-80.858111019535073
20
-135.86197782503183
30
0
10
-80.710918085429867
20
-135.51631807852118
30
0
10
-80.714345783636631
20
-135.12474188927783
30
0
0
SPLINE
5
227
100
AcDbEntity
8
0
100
AcDbSpline
70
0
71
2
72
6
73
3
74
0
42
0.000000001
43
0.0000000001
44
0.0000000001
40
0
40
0
40
0
40
1
40
1
40
1
10
-80.714345783636631
20
-135.12474188927783
30
0
10
-80.716897927447974
20
-134.83318799866117
30
0
10
-80.791233856907326
20
-134.59777142603994
30
0
0
SPLINE
5
228
100
AcDbEntity
8
0
100
AcDbSpline
70
0
71
2
72
6
73
3
74
0
42
0.000000001
43
0.0000000001
44
0.0000000001
40
0
40
0
40
0
40
1
40
1
40
1
10
-80.791233856907326
20
-134.59777142603994
30
0
10
-80.865569786366663
20
-134.36235485341871
30
0
10
-80.998082927132828
20
-134.14968688533611
30
0
0
LINE
5
229
100
AcDbEntity
8
0
100
AcDbLine
10
-80.998082927132842
20
-134.14968688533611
30
0
11
-80.810066669775708
21
-134.03415487828951
31
0
0
LINE
5
230
100
AcDbEntity
8
0
100
AcDbLine
10
-80.810066669775708
20
-134.03415487828951
30
0
11
-80.812013189101478
21
-133.81178681263762
31
0
0
LINE
5
231
100
AcDbEntity
8
0
100
AcDbLine
10
-80.812013189101478
20
-133.81178681263762
30
0
11
-82.218710812685586
21
-133.7990822497697
31
0
0
LINE
5
232
100
AcDbEntity
8
0
100
AcDbLine
10
-82.218710812685586
20
-133.7990822497697
30
0
11
-82.21671563637662
21
-134.02700883163573
31
0
0
SPLINE
5
233
100
AcDbEntity
8
0
100
AcDbSpline
70
0
71
2
72
6
73
3
74
0
42
0.000000001
43
0.0000000001
44
0.0000000001
40
0
40
0
40
0
40
1
40
1
40
1
10
-82.21671563637662
20
-134.02700883163573
30
0
10
-82.010635975047975
20
-134.0696394751607
30
0
10
-81.769422989531364
20
-134.15637331393259
30
0
0
SPLINE
5
234
100
AcDbEntity
8
0
100
AcDbSpline
70
0
71
2
72
6
73
3
74
0
42
0.000000001
43
0.0000000001
44
0.0000000001
40
0
40
0
40
0
40
1
40
1
40
1
10
-81.769422989531364
20
-134.15637331393259
30
0
10
-81.52820970600294
20
-134.2431071500958
30
0
10
-81.360388549008093
20
-134.36103913460099
30
0
0
SPLINE
5
235
100
AcDbEntity
8
0
100
AcDbSpline
70
0
71
2
72
6
73
3
74
0
42
0.000000001
43
0.0000000001
44
0.0000000001
40
0
40
0
40
0
40
1
40
1
40
1
10
-81.360388549008093
20
-134.36103913460099
30
0
10
-81.17020905414293
20
-134.49263282203998
30
0
10
-81.061590530128427
20
-134.67493219567709
30
0
0
SPLINE
5
236
100
AcDbEntity
8
0
100
AcDbSpline
70
0
71
2
72
6
73
3
74
0
42
0.000000001
43
0.0000000001
44
0.0000000001
40
0
40
0
40
0
40
1
40
1
40
1
10
-81.061590530128427
20
-134.67493219567709
30
0
10
-80.952972000896551
20
-134.85723216533782
30
0
10
-80.950906484307993
20
-135.09319433755331
30
0
0
SPLINE
5
237
100
AcDbEntity
8
0
100
AcDbSpline
70
0
71
2
72
6
73
3
74
0
42
0.000000001
43
0.0000000001
44
0.0000000001
40
0
40
0
40
0
40
1
40
1
40
1
10
-80.950906484307993
20
-135.09319433755331
30
0
10
-80.948548989298828
20
-135.36251177921895
30
0
10
-81.066129500861891
20
-135.59537323780856
30
0
0
SPLINE
5
238
100
AcDbEntity
8
0
100
AcDbSpline
70
0
71
2
72
6
73
3
74
0
42
0.000000001
43
0.0000000001
44
0.0000000001
40
0
40
0
40
0
40
1
40
1
40
1
10
-81.066129500861891
20
-135.59537323780856
30
0
10
-81.183710012424953
20
-135.82823469639811
30
0
10
-81.415887721955414
20
-135.9996187137445
30
0
0
SPLINE
5
239
100
AcDbEntity
8
0
100
AcDbSpline
70
0
71
2
72
6
73
3
74
0
42
0.000000001
43
0.0000000001
44
0.0000000001
40
0
40
0
40
0
40
1
40
1
40
1
10
-81.415887721955414
20
-135.9996187137445
30
0
10
-81.639843185907907
20
-136.16263466462038
30
0
10
-81.986751840733078
20
-136.25729615136078
30
0
0
SPLINE
5
240
100
AcDbEntity
8
0
100
AcDbSpline
70
0
71
2
72
6
73
3
74
0
42
0.000000001
43
0.0000000001
44
0.0000000001
40
0
40
0
40
0
40
1
40
1
40
1
10
-81.986751840733078
20
-136.25729615136078
30
0
10
-82.333660490340876
20
-136.35195823412482
30
0
10
-82.762066766697728
20
-136.35570832788835
30
0
0
SPLINE
5
241
100
AcDbEntity
8
0
100
AcDbSpline
70
0
71
2
72
6
73
3
74
0
42
0.000000001
43
0.0000000001
44
0.0000000001
40
0
40
0
40
0
40
1
40
1
40
1
10
-82.762066766697728
20
-136.35570832788835
30
0
10
-83.140353417443663
20
-136.35901969489694
30
0
10
-83.456937199602891
20
-136.26599604955351
30
0
0
SPLINE
5
242
100
AcDbEntity
8
0
100
AcDbSpline
70
0
71
2
72
6
73
3
74
0
42
0.000000001
43
0.0000000001
44
0.0000000001
40
0
40
0
40
0
40
1
40
1
40
1
10
-83.456937199602891
20
-136.26599604955351
30
0
10
-83.77352098176209
20
-136.17297240421013
30
0
10
-84.014296121278193
20
-135.99734530474814
30
0
0
SPLINE
5
243
100
AcDbEntity
8
0
100
AcDbSpline
70
0
71
2
72
6
73
3
74
0
42
0.000000001
43
0.0000000001
44
0.0000000001
40
0
40
0
40
0
40
1
40
1
40
1
10
-84.014296121278193
20
-135.99734530474814
30
0
10
-84.252291616603486
20
-135.82173798254192
30
0
10
-84.387947406157892
20
-135.57997417480425
30
0
0
SPLINE
5
244
100
AcDbEntity
8
0
100
AcDbSpline
70
0
71
2
72
6
73
3
74
0
42
0.000000001
43
0.0000000001
44
0.0000000001
40
0
40
0
40
0
40
1
40
1
40
1
10
-84.387947406157892
20
-135.57997417480425
30
0
10
-84.523603200929657
20
-135.33820977104295
30
0
10
-84.526228340650476
20
-135.03831691405787
30
0
0
SPLINE
5
245
100
AcDbEntity
8
0
100
AcDbSpline
70
0
71
2
72
6
73
3
74
0
42
0.000000001
43
0.0000000001
44
0.0000000001
40
0
40
0
40
0
40
1
40
1
40
1
10
-84.526228340650476
20
-135.03831691405787
30
0
10
-84.52819690848699
20
-134.81343005261775
30
0
10
-84.458969831422323
20
-134.62401316080022
30
0
0
SPLINE
5
246
100
AcDbEntity
8
0
100
AcDbSpline
70
0
71
2
72
6
73
3
74
0
42
0.000000001
43
0.0000000001
44
0.0000000001
40
0
40
0
40
0
40
1
40
1
40
1
10
-84.458969831422323
20
-134.62401316080022
30
0
10
-84.389742743922923
20
-134.43459746102994
30
0
10
-84.274215032143061
20
-134.2947258782994
30
0
0
SPLINE
5
247
100
AcDbEntity
8
0
100
AcDbSpline
70
0
71
2
72
6
73
3
74
0
42
0.000000001
43
0.0000000001
44
0.0000000001
40
0
40
0
40
0
40
1
40
1
40
1
10
-84.274215032143061
20
-134.2947258782994
30
0
10
-84.15312753446463
20
-134.15484854445978
30
0
10
-83.998393357606318
20
-134.04796953507588
30
0
0
SPLINE
5
248
100
AcDbEntity
8
0
100
AcDbSpline
70
0
71
2
72
6
73
3
74
0
42
0.000000001
43
0.0000000001
44
0.0000000001
40
0
40
0
40
0
40
1
40
1
40
1
10
-83.998393357606318
20
-134.04796953507588
30
0
10
-83.843659478759804
20
-133.94109052830066
30
0
10
-83.66078898990429
20
-133.87286113014324
30
0
0
LINE
5
249
100
AcDbEntity
8
0
100
AcDbLine
10
-83.660788989904262
20
-133.87286113014326
30
0
11
-83.762679361458666
21
-133.66526707575068
31
0
0
SPLINE
5
250
100
AcDbEntity
8
0
100
AcDbSpline
70
0
71
2
72
6
73
3
74
0
42
0.000000001
43
0.0000000001
44
0.0000000001
40
0
40
0
40
0
40
1
40
1
40
1
10
-83.762679361458666
20
-133.66526707575068
30
0
10
-84.347084626889398
20
-133.90923006717912
30
0
10
-84.595186551861445
20
-134.30581016582715
30
0
0
SPLINE
5
251
100
AcDbEntity
8
0
100
AcDbSpline
70
0
71
2
72
6
73
3
74
0
42
0.000000001
43
0.0000000001
44
0.0000000001
40
0
40
0
40
0
40
1
40
1
40
1
10
-84.595186551861445
20
-134.30581016582715
30
0
10
-84.843288487268183
20
-134.70238907242793
30
0
10
-84.838523316801172
20
-135.24675651086829
30
0
0
LINE
5
252
100
AcDbEntity
8
0
100
AcDbLine
10
-81.819968562672628
20
-140.92581670063313
30
0
11
-81.818289688058513
21
-141.11760935096558
31
0
0
SPLINE
5
253
100
AcDbEntity
8
0
100
AcDbSpline
70
0
71
2
72
6
73
3
74
0
42
0.000000001
43
0.0000000001
44
0.0000000001
40
0
40
0
40
0
40
1
40
1
40
1
10
-81.818289688058485
20
-141.11760935096558
30
0
10
-81.718004814342379
20
-141.1417932311179
30
0
10
-81.579841430959036
20
-141.20606141994566
30
0
0
SPLINE
5
254
100
AcDbEntity
8
0
100
AcDbSpline
70
0
71
2
72
6
73
3
74
0
42
0.000000001
43
0.0000000001
44
0.0000000001
40
0
40
0
40
0
40
1
40
1
40
1
10
-81.579841430959036
20
-141.20606141994566
30
0
10
-81.441678047575692
20
-141.27032960877341
30
0
10
-81.318668356454381
20
-141.35004138049044
30
0
0
SPLINE
5
255
100
AcDbEntity
8
0
100
AcDbSpline
70
0
71
2
72
6
73
3
74
0
42
0.000000001
43
0.0000000001
44
0.0000000001
40
0
40
0
40
0
40
1
40
1
40
1
10
-81.318668356454381
20
-141.35004138049044
30
0
10
-81.190074843737364
20
-141.43252725783771
30
0
10
-81.093312848440618
20
-141.53058095242267
30
0
0
SPLINE
5
256
100
AcDbEntity
8
0
100
AcDbSpline
70
0
71
2
72
6
73
3
74
0
42
0.000000001
43
0.0000000001
44
0.0000000001
40
0
40
0
40
0
40
1
40
1
40
1
10
-81.093312848440618
20
-141.53058095242267
30
0
10
-80.996550855752574
20
-141.62863434899577
30
0
10
-80.98184823408269
20
-141.72045678608333
30
0
0
SPLINE
5
257
100
AcDbEntity
8
0
100
AcDbSpline
70
0
71
2
72
6
73
3
74
0
42
0.000000001
43
0.0000000001
44
0.0000000001
40
0
40
0
40
0
40
1
40
1
40
1
10
-80.98184823408269
20
-141.72045678608333
30
0
10
-80.969973913586784
20
-141.80670092970098
30
0
10
-80.963268561832663
20
-141.93759731420701
30
0
0
SPLINE
5
258
100
AcDbEntity
8
0
100
AcDbSpline
70
0
71
2
72
6
73
3
74
0
42
0.000000001
43
0.0000000001
44
0.0000000001
40
0
40
0
40
0
40
1
40
1
40
1
10
-80.963268561832663
20
-141.93759731420701
30
0
10
-80.956562909458057
20
-142.06849399411621
30
0
10
-80.955587368509953
20
-142.17993863826689
30
0
0
LINE
5
259
100
AcDbEntity
8
0
100
AcDbLine
10
-80.955587368509953
20
-142.17993863826689
30
0
11
-80.954173099502512
21
-142.3415030570344
31
0
0
LINE
5
260
100
AcDbEntity
8
0
100
AcDbLine
10
-80.954173099502512
20
-142.3415030570344
30
0
11
-84.109021148482967
21
-142.3691193097514
31
0
0
SPLINE
5
261
100
AcDbEntity
8
0
100
AcDbSpline
70
0
71
2
72
6
73
3
74
0
42
0.000000001
43
0.0000000001
44
0.0000000001
40
0
40
0
40
0
40
1
40
1
40
1
10
-84.109021148482967
20
-142.3691193097514
30
0
10
-84.200747990464976
20
-142.36992224910372
30
0
10
-84.277527766712709
20
-142.3316768354064
30
0
0
SPLINE
5
262
100
AcDbEntity
8
0
100
AcDbSpline
70
0
71
2
72
6
73
3
74
0
42
0.000000001
43
0.0000000001
44
0.0000000001
40
0
40
0
40
0
40
1
40
1
40
1
10
-84.277527766712709
20
-142.3316768354064
30
0
10
-84.354307541656112
20
-142.293431570715
30
0
10
-84.396853082320092
20
-142.19651043921075
30
0
0
SPLINE
5
263
100
AcDbEntity
8
0
100
AcDbSpline
70
0
71
2
72
6
73
3
74
0
42
0.000000001
43
0.0000000001
44
0.0000000001
40
0
40
0
40
0
40
1
40
1
40
1
10
-84.396853082320092
20
-142.19651043921075
30
0
10
-84.41674823949063
20
-142.14664800435202
30
0
10
-84.451502570684426
20
-141.9871128238309
30
0
0
SPLINE
5
264
100
AcDbEntity
8
0
100
AcDbSpline
70
0
71
2
72
6
73
3
74
0
42
0.000000001
43
0.0000000001
44
0.0000000001
40
0
40
0
40
0
40
1
40
1
40
1
10
-84.451502570684426
20
-141.9871128238309
30
0
10
-84.486256601257736
20
-141.82757793871292
30
0
10
-84.489815063640478
20
-141.73865498655874
30
0
0
LINE
5
265
100
AcDbEntity
8
0
100
AcDbLine
10
-84.489815063640464
20
-141.73865498655874
30
0
11
-84.687166826210657
21
-141.7403825233734
31
0
0
LINE
5
266
100
AcDbEntity
8
0
100
AcDbLine
10
-84.687166826210657
20
-141.7403825233734
30
0
11
-84.670864722292038
21
-143.60271559472861
31
0
0
LINE
5
267
100
AcDbEntity
8
0
100
AcDbLine
10
-84.670864722292038
20
-143.60271559472861
30
0
11
-84.473512959721859
21
-143.60098805791395
31
0
0
SPLINE
5
268
100
AcDbEntity
8
0
100
AcDbSpline
70
0
71
2
72
6
73
3
74
0
42
0.000000001
43
0.0000000001
44
0.0000000001
40
0
40
0
40
0
40
1
40
1
40
1
10
-84.473512959721859
20
-143.60098805791395
30
0
10
-84.468635129378583
20
-143.52311055783468
30
0
10
-84.453356257733176
20
-143.36313748157693
30
0
0
SPLINE
5
269
100
AcDbEntity
8
0
100
AcDbSpline
70
0
71
2
72
6
73
3
74
0
42
0.000000001
43
0.0000000001
44
0.0000000001
40
0
40
0
40
0
40
1
40
1
40
1
10
-84.453356257733176
20
-143.36313748157693
30
0
10
-84.438077982111409
20
-143.20316441053652
30
0
10
-84.413596972366008
20
-143.14179415036878
30
0
0
SPLINE
5
270
100
AcDbEntity
8
0
100
AcDbSpline
70
0
71
2
72
6
73
3
74
0
42
0.000000001
43
0.0000000001
44
0.0000000001
40
0
40
0
40
0
40
1
40
1
40
1
10
-84.413596972366008
20
-143.14179415036878
30
0
10
-84.378265086149312
20
-143.0497509988659
30
0
10
-84.310541758759584
20
-143.00607101029811
30
0
0
SPLINE
5
271
100
AcDbEntity
8
0
100
AcDbSpline
70
0
71
2
72
6
73
3
74
0
42
0.000000001
43
0.0000000001
44
0.0000000001
40
0
40
0
40
0
40
1
40
1
40
1
10
-84.310541758759584
20
-143.00607101029811
30
0
10
-84.242818729381653
20
-142.96239102433898
30
0
10
-84.128855140436812
20
-142.96139343357584
30
0
0
LINE
5
272
100
AcDbEntity
8
0
100
AcDbLine
10
-84.128855140436812
20
-142.96139343357586
30
0
11
-80.94899049036286
21
-142.93355819573904
31
0
0
LINE
5
273
100
AcDbEntity
8
0
100
AcDbLine
10
-80.94899049036286
20
-142.93355819573904
30
0
11
-80.947579263069059
21
-143.09477513274021
31
0
0
SPLINE
5
274
100
AcDbEntity
8
0
100
AcDbSpline
70
0
71
2
72
6
73
3
74
0
42
0.000000001
43
0.0000000001
44
0.0000000001
40
0
40
0
40
0
40
1
40
1
40
1
10
-80.947579263069059
20
-143.09477513274021
30
0
10
-80.946824985917289
20
-143.18094286248444
30
0
10
-80.949875220228321
20
-143.30884102799021
30
0
0
SPLINE
5
275
100
AcDbEntity
8
0
100
AcDbSpline
70
0
71
2
72
6
73
3
74
0
42
0.000000001
43
0.0000000001
44
0.0000000001
40
0
40
0
40
0
40
1
40
1
40
1
10
-80.949875220228321
20
-143.30884102799021
30
0
10
-80.952925454539354
20
-143.43673919349595
30
0
10
-80.96580160997776
20
-143.55360414567559
30
0
0
SPLINE
5
276
100
AcDbEntity
8
0
100
AcDbSpline
70
0
71
2
72
6
73
3
74
0
42
0.000000001
43
0.0000000001
44
0.0000000001
40
0
40
0
40
0
40
1
40
1
40
1
10
-80.96580160997776
20
-143.55360414567559
30
0
10
-80.976116895100972
20
-143.64542831205867
30
0
10
-81.073929007978734
20
-143.74496796175109
30
0
0
SPLINE
5
277
100
AcDbEntity
8
0
100
AcDbSpline
70
0
71
2
72
6
73
3
74
0
42
0.000000001
43
0.0000000001
44
0.0000000001
40
0
40
0
40
0
40
1
40
1
40
1
10
-81.073929007978734
20
-143.74496796175109
30
0
10
-81.171741121182563
20
-143.84450757419205
30
0
10
-81.296093287541439
20
-143.92899055383589
30
0
0
SPLINE
5
278
100
AcDbEntity
8
0
100
AcDbSpline
70
0
71
2
72
6
73
3
74
0
42
0.000000001
43
0.0000000001
44
0.0000000001
40
0
40
0
40
0
40
1
40
1
40
1
10
-81.296093287541439
20
-143.92899055383589
30
0
10
-81.420445453900342
20
-144.01347353347975
30
0
10
-81.560255648555611
20
-144.07863310738401
30
0
0
SPLINE
5
279
100
AcDbEntity
8
0
100
AcDbSpline
70
0
71
2
72
6
73
3
74
0
42
0.000000001
43
0.0000000001
44
0.0000000001
40
0
40
0
40
0
40
1
40
1
40
1
10
-81.560255648555611
20
-144.07863310738401
30
0
10
-81.70006584337392
20
-144.14379266266252
30
0
10
-81.791573701866568
20
-144.16961201685098
30
0
0
LINE
5
280
100
AcDbEntity
8
0
100
AcDbLine
10
-81.791573701866568
20
-144.16961201685098
30
0
11
-81.789870496763569
21
-144.36418415345574
31
0
0
LINE
5
281
100
AcDbEntity
8
0
100
AcDbLine
10
-81.789870496763569
20
-144.36418415345574
30
0
11
-80.719723808299108
21
-144.35481652593961
31
0
0
LINE
5
282
100
AcDbEntity
8
0
100
AcDbLine
10
-80.719723808299108
20
-144.35481652593961
30
0
11
-80.749821874208152
21
-140.91644907311701
31
0
0
LINE
5
283
100
AcDbEntity
8
0
100
AcDbLine
10
-80.749821874208152
20
-140.91644907311701
30
0
11
-81.819968562672628
21
-140.92581670063313
31
0
0
LWPOLYLINE
5
284
100
AcDbEntity
8
0
100
AcDbPolyline
90
12
70
1
43
0.0
10
-72.181224048263431
20
-141.65804478366107
10
-74.481929362165033
20
-141.65804478366107
10
-74.481929362165033
20
-139.74937611497924
10
-74.004944020182037
20
-139.74937611497924
10
-74.004944020182037
20
-134.46725653083635
42
-0.41421356237309503
10
-73.363128703968613
20
-133.82544121462291
10
-67.647144527028274
20
-133.82544121462291
10
-67.647144527028274
20
-135.82544121462291
10
-72.121313387755194
20
-135.82544121462291
42
0.41421356237307771
10
-72.721313387755217
20
-136.42544121462291
10
-72.721313387755202
20
-139.74937611497924
10
-72.181224048263431
20
-139.74937611497924
0
LWPOLYLINE
5
285
100
AcDbEntity
8
0
100
AcDbPolyline
90
28
70
1
43
0.0
10
-66.434211237620659
20
-140.13658694499944
10
-66.434211237620659
20
-131.16634663310808
10
-87.597526264844205
20
-131.16634663310808
10
-87.597526264844205
20
-131.26634663310807
42
0.41421356237309503
10
-88.197526264844186
20
-131.86634663310809
10
-88.197526264844186
20
-143.63505421232946
42
-0.41421356237311241
10
-88.797526264844194
20
-144.23505421232946
10
-100.65482289754918
20
-144.23505421232946
10
-100.65482289754918
20
-144.23469405696204
10
-100.79695566264928
20
-144.23469404909537
42
-10.93359466578546
10
-102.06679049471236
20
-144.23469397881362
10
-102.96287407599424
20
-144.23469392921794
42
-0.1964694033974165
10
-103.3831295198123
20
-144.06292906793186
10
-103.383129065237
20
-135.84977024658346
10
-101.96287360084305
20
-135.8497703251906
10
-99.654822897549195
20
-135.8497703251906
10
-99.654822897549181
20
-142.83505421232945
10
-91.497526264844197
20
-142.83505421232945
42
0.41421356237311241
10
-90.897526264844188
20
-142.23505421232946
10
-90.897526264844203
20
-130.7663466331081
42
-0.41421356237309503
10
-90.297526264844208
20
-130.16634663310808
10
-65.652046170316567
20
-130.16634663310808
42
-0.41421356237309076
10
-65.052046170316572
20
-130.7663466331081
10
-65.052046170316572
20
-140.13658694499944
10
-64.748632210734613
20
-140.13658694499944
10
-64.748632210734613
20
-142.9263884983003
10
-66.748632210734627
20
-142.9263884983003
10
-66.748632210734627
20
-140.13658694499944
0
LWPOLYLINE
5
286
100
AcDbEntity
8
0
100
AcDbPolyline
90
35
70
1
43
0.0
10
-102.40429765922757
20
-125.87331762484342
10
-101.48109669375378
20
-125.87381333636765
10
-99.03808835416676
20
-125.8738133642926
10
-99.03808835416676
20
-128.03879383574721
10
-99.038555069458681
20
-128.03879383574721
10
-99.038555069458681
20
-128.08879383574723
10
-99.038088376305581
20
-128.08879383574723
10
-99.038088376305609
20
-128.30699315356046
10
-98.313293505140479
20
-128.30699315356082
42
-0.1900017189739211
10
-98.151875364060459
20
-128.71643909653719
10
-98.151873404284828
20
-131.97429805163119
10
-98.151948323769375
20
-131.97429789776783
10
-98.151948323769375
20
-140.86181755061531
10
-93.710726373650161
20
-140.86181755061531
10
-93.710726373650175
20
-128.03018078398256
10
-62.666210896179976
20
-128.03018078398256
42
-0.073955428261929135
10
-62.586145124306995
20
-128.18750668789539
42
-0.091394097554411649
10
-62.542564452241876
20
-128.42393687896316
10
-62.542564452241876
20
-140.13658694499944
10
-62.148632210734633
20
-140.13658694499944
10
-62.148632210734633
20
-142.9263884983003
10
-64.148632210734618
20
-142.9263884983003
10
-64.148632210734618
20
-140.13658694499944
10
-63.868806281179729
20
-140.13658694499944
10
-63.868806281179722
20
-130.4301281197919
42
0.41421356237307771
10
-64.468806281179724
20
-129.83012811979191
10
-90.610726373650166
20
-129.83012811979191
42
0.41421356237311241
10
-91.210726373650175
20
-130.4301281197919
10
-91.210726373650175
20
-142.1618175506153
42
-0.18448308813827502
10
-91.363512778150238
20
-142.5618175506153
10
-98.431948323769362
20
-142.5618175506153
42
-0.41421356237309503
10
-99.251948323769369
20
-141.74181755061531
10
-99.251948323769369
20
-135.57429804782399
10
-103.38312904999017
20
-135.57429781917486
10
-103.38312851306836
20
-125.87331757066791
0
LINE
5
287
100
AcDbEntity
8
0
100
AcDbLine
10
-37.469510386491166
20
-124.56121928837592
30
0
11
-37.469510386491166
21
-142.97645229483859
31
0
0
LINE
5
288
100
AcDbEntity
8
0
100
AcDbLine
10
-37.469510386491166
20
-142.97645229483859
30
0
11
-72.887725029604809
21
-142.97645229483859
31
0
0
SPLINE
5
289
100
AcDbEntity
8
0
100
AcDbSpline
70
0
71
3
72
71
73
67
74
0
42
0.000000001
43
0.0000000001
44
0.0000000001
40
0.1258348497993127
40
0.1258348497993127
40
0.1258348497993127
40
0.1258348497993127
40
0.12906577529342514
40
0.12906577529342514
40
0.12906577529342514
40
0.22571368483430421
40
0.22571368483430421
40
0.22571368483430421
40
0.29941903671564291
40
0.29941903671564291
40
0.29941903671564291
40
0.31748494968122543
40
0.31748494968122543
40
0.31748494968122543
40
0.37384204820452477
40
0.37384204820452477
40
0.37384204820452477
40
0.38699165712618755
40
0.38699165712618755
40
0.38699165712618755
40
0.39024267204635399
40
0.39024267204635399
40
0.39024267204635399
40
0.41111097015498216
40
0.41111097015498216
40
0.41111097015498216
40
0.42343480601870526
40
0.42343480601870526
40
0.42343480601870526
40
0.45573192706891169
40
0.45573192706891169
40
0.45573192706891169
40
0.46385063345139405
40
0.46385063345139405
40
0.46385063345139405
40
0.51458630258648397
40
0.51458630258648397
40
0.51458630258648397
40
0.58026931716823371
40
0.58026931716823371
40
0.58026931716823371
40
0.63273565252220454
40
0.63273565252220454
40
0.63273565252220454
40
0.68239088473938347
40
0.68239088473938347
40
0.68239088473938347
40
0.6941787350171319
40
0.6941787350171319
40
0.6941787350171319
40
0.72587122762056988
40
0.72587122762056988
40
0.72587122762056988
40
0.73230251105974853
40
0.73230251105974853
40
0.73230251105974853
40
0.77729260364170771
40
0.77729260364170771
40
0.77729260364170771
40
0.85439799042186326
40
0.85439799042186326
40
0.85439799042186326
40
0.9356109532975837
40
0.9356109532975837
40
0.9356109532975837
40
0.9948157762130917
40
0.9948157762130917
40
0.9948157762130917
40
0.9948157762130917
10
-80.621850745306091
20
-116.80736468531475
30
0
10
-80.752924309664905
20
-116.72360701319124
30
0
10
-80.88506999948946
20
-116.63970074986423
30
0
10
-81.018252678502108
20
-116.55568490592067
30
0
10
-84.994033453090196
20
-114.04763671536087
30
0
10
-89.923940210294532
20
-111.45507705173327
30
0
10
-94.557413014991511
20
-109.73915131979155
30
0
10
-98.090411505566678
20
-108.43076703085309
30
0
10
-101.48662456120952
20
-107.62306057122305
30
0
10
-104.22810768323849
20
-107.36954496470963
30
0
10
-104.90505615583206
20
-107.30694490665023
30
0
10
-105.5484465103018
20
-107.27429578420438
30
0
10
-106.15297983978756
20
-107.26761779538018
30
0
10
-108.03282739577334
20
-107.24685202390363
30
0
10
-109.56633460906481
20
-107.50415198272782
30
0
10
-110.48957288356583
20
-107.81451474754584
30
0
10
-110.70498891046046
20
-107.88693062927396
30
0
10
-110.88629326552106
20
-107.96158988133401
30
0
10
-111.02647485993072
20
-108.03062028285277
30
0
10
-111.06545641734994
20
-108.04981618779169
30
0
10
-111.1010870055068
20
-108.06811922003961
30
0
10
-111.13341658079264
20
-108.08542878745222
30
0
10
-111.36884630681519
20
-108.21148014066324
30
0
10
-111.41107611014942
20
-108.24918315061866
30
0
10
-111.46099068714442
20
-108.30501020040739
30
0
10
-111.49046788987995
20
-108.33797903163506
30
0
10
-111.5334039659821
20
-108.39486673037345
30
4.4408920985006262e-15
10
-111.60199465053758
20
-108.51114483793559
30
4.4408920985006262e-15
10
-111.70070283979032
20
-108.67847953537418
30
4.4408920985006262e-15
10
-111.93565520372566
20
-109.2712004538064
30
4.4408920985006262e-15
10
-112.09325336631625
20
-110.27687479839932
30
4.4408920985006262e-15
10
-112.13286969021408
20
-110.52967673413389
30
4.4408920985006262e-15
10
-112.16910885958988
20
-110.80960961724081
30
4.4408920985006262e-15
10
-112.2002863394022
20
-111.11777276434236
30
0
10
-112.3962685795313
20
-113.05489225757141
30
0
10
-112.41610715446771
20
-116.13456479711661
30
0
10
-112.34133207455781
20
-119.88808159821026
30
0
10
-112.24440366793542
20
-124.75363845483697
30
0
10
-112.02238669690277
20
-130.74501850808917
30
4.4408920985006262e-15
10
-111.90879182224475
20
-136.34020659832461
30
4.4408920985006262e-15
10
-111.81804348483759
20
-140.81007390701859
30
4.4408920985006262e-15
10
-111.79961243669233
20
-144.96744896585585
30
4.4408920985006262e-15
10
-111.83717705170406
20
-148.26575880137091
30
4.4408920985006262e-15
10
-111.87272022556979
20
-151.38657875148598
30
4.4408920985006262e-15
10
-111.95369090241293
20
-153.71935494372255
30
4.4408920985006262e-15
10
-111.91359011505381
20
-155.2014712303839
30
4.4408920985006262e-15
10
-111.90409811869287
20
-155.5522933295488
30
4.4408920985006262e-15
10
-111.88780373967614
20
-155.85428483307328
30
4.4408920985006262e-15
10
-111.86527728163884
20
-156.11024063114525
30
4.4408920985006262e-15
10
-111.80403473486632
20
-156.80610612891508
30
4.4408920985006262e-15
10
-111.7155189790125
20
-157.11086868204933
30
4.4408920985006262e-15
10
-111.6028108495177
20
-157.34473883978578
30
4.4408920985006262e-15
10
-111.57993925226748
20
-157.39219756419692
30
4.4408920985006262e-15
10
-111.55502535889951
20
-157.43836507322752
30
4.4408920985006262e-15
10
-111.52621627164311
20
-157.48687452208119
30
4.4408920985006262e-15
10
-111.33943499982898
20
-157.80138141607819
30
0
10
-111.00207796437277
20
-158.1730699429136
30
0
10
-110.20942427312548
20
-158.58923640670415
30
0
10
-108.90452416617265
20
-159.2743472806041
30
0
10
-106.52875059409872
20
-159.82983372248651
30
0
10
-103.01067855267917
20
-159.25983263720465
30
0
10
-99.30754945004189
20
-158.65984844626399
30
0
10
-94.26490614770627
20
-156.78156289369213
30
0
10
-88.11817969224316
20
-153.25895145961593
30
0
10
-83.633360859622897
20
-150.68875833096169
30
0
10
-78.544391361084138
20
-147.26181522615511
30
0
10
-72.887725029604823
20
-142.97645229483862
30
0
0
LINE
5
290
100
AcDbEntity
8
0
100
AcDbLine
10
-80.621850745306091
20
-116.80736468531475
30
0
11
-90.624508995986588
21
-116.80736468531475
31
0
0
ARC
5
291
100
AcDbEntity
8
0
100
AcDbCircle
10
-90.624508995986574
20
-118.50736468531478
30
-3.3804221174904884e-62
40
1.7000000000000348
210
-4.5821482690636572e-63
220
-1.9884835985237807e-62
230
1
100
AcDbArc
50
90.000000000000497
51
180
0
LINE
5
292
100
AcDbEntity
8
0
100
AcDbLine
10
-92.324508995986591
20
-118.50736468531477
30
7.1051113407575561e-63
11
-92.324508995986591
21
-122.99239923431243
31
0
0
LINE
5
293
100
AcDbEntity
8
0
100
AcDbLine
10
-92.324508995986591
20
-122.99239923431243
30
0
11
-80.085313420786775
21
-122.99239923431243
31
0
0
ARC
5
294
100
AcDbEntity
8
0
100
AcDbCircle
10
-80.085313420786775
20
-121.29239923431243
30
2.4973343171348271e-62
40
1.6999999999999993
210
9.7170596304329543e-63
220
-1.4690201865498989e-62
230
1
100
AcDbArc
50
-90
51
0
0
LINE
5
295
100
AcDbEntity
8
0
100
AcDbLine
10
-78.385313420786787
20
-121.29239923431243
30
8.3118924512589634e-63
11
-78.385313420786801
21
-118.29093662560275
31
0
0
SPLINE
5
296
100
AcDbEntity
8
0
100
AcDbSpline
70
0
71
3
72
14
73
10
74
0
42
0.000000001
43
0.0000000001
44
0.0000000001
40
0.0067910975925081956
40
0.0067910975925081956
40
0.0067910975925081956
40
0.0067910975925081956
40
0.018092362499673525
40
0.018092362499673525
40
0.018092362499673525
40
0.045000551892551664
40
0.045000551892551664
40
0.045000551892551664
40
0.10644384337157599
40
0.10644384337157599
40
0.10644384337157599
40
0.10644384337157599
10
-72.237625711770136
20
-123.43168284709142
30
0
10
-72.261787549222291
20
-123.39394372022839
30
0
10
-72.316290140386684
20
-123.31280004814032
30
0
10
-72.384197820400388
20
-123.22656188782277
30
0
10
-72.565655852354126
20
-122.99612246112795
30
0
10
-72.899255086037797
20
-122.62362380796714
30
0
10
-73.347422897255811
20
-122.20398995782011
30
0
10
-74.401610586525806
20
-121.21692032061503
30
0
10
-76.161459567843949
20
-119.82313497039421
30
0
10
-78.385313420786801
20
-118.29093662560271
30
0
0
LINE
5
297
100
AcDbEntity
8
0
100
AcDbLine
10
-72.237625711770136
20
-123.43168284709142
30
0
11
-72.210020434199848
21
-123.48805115941451
31
0
0
LINE
5
298
100
AcDbEntity
8
0
100
AcDbLine
10
-72.210020434199848
20
-123.48805115941451
30
0
11
-71.999017501879038
21
-123.75189720077705
31
0
0
LINE
5
299
100
AcDbEntity
8
0
100
AcDbLine
10
-71.999017501879038
20
-123.75189720077705
30
0
11
-71.999017501879038
21
-124.56121928837591
31
0
0
LINE
5
300
100
AcDbEntity
8
0
100
AcDbLine
10
-71.999017501879038
20
-124.56121928837591
30
0
11
-71.921842247531572
21
-124.56121928837591
31
0
0
LINE
5
301
100
AcDbEntity
8
0
100
AcDbLine
10
-71.921842247531572
20
-124.56121928837591
30
0
11
-71.921842247531572
21
-124.56171490738154
31
0
0
LINE
5
302
100
AcDbEntity
8
0
100
AcDbLine
10
-71.921842247531572
20
-124.56171490738154
30
0
11
-63.873168110215616
21
-124.56171490738154
31
0
0
LINE
5
303
100
AcDbEntity
8
0
100
AcDbLine
10
-63.873168110215616
20
-124.56171490738154
30
0
11
-63.873168110215616
21
-124.56121928837591
31
0
0
LINE
5
304
100
AcDbEntity
8
0
100
AcDbLine
10
-63.873168110215616
20
-124.56121928837591
30
0
11
-57.083855148778326
21
-124.56121928837592
31
1.2325951644078309e-31
0
LINE
5
305
100
AcDbEntity
8
0
100
AcDbLine
10
-57.083855148778326
20
-124.56121928837592
30
1.2325951644078309e-31
11
-57.083855148778326
21
-124.56171490738156
31
0
0
LINE
5
306
100
AcDbEntity
8
0
100
AcDbLine
10
-57.083855148778326
20
-124.56171490738156
30
0
11
-47.982972422665711
21
-124.56171490738156
31
0
0
LINE
5
307
100
AcDbEntity
8
0
100
AcDbLine
10
-47.982972422665711
20
-124.56171490738156
30
0
11
-47.982972422665711
21
-124.56121928837592
31
0
0
LINE
5
308
100
AcDbEntity
8
0
100
AcDbLine
10
-47.982972422665711
20
-124.56121928837592
30
0
11
-37.469510386491166
21
-124.56121928837592
31
0
0
LWPOLYLINE
5
309
100
AcDbEntity
8
0
100
AcDbPolyline
90
17
70
1
43
0.0
10
-108.73689042080029
20
-123.18400231575593
10
-72.755916656321332
20
-123.18400231575582
10
-72.763099844671302
20
-124.71219655095763
42
-0.050367580329878182
10
-72.764041680140238
20
-124.91256823324869
42
-0.38363936176191615
10
-73.310908433538742
20
-125.40473256729626
10
-75.222866643345867
20
-125.40502428894833
10
-75.222994463587639
20
-124.56728406959897
10
-105.52939895059677
20
-124.56728406959897
10
-105.52939895059677
20
-127.49636766675535
10
-105.52699296606232
20
-127.50334326143033
42
0.078616080832843133
10
-105.53300301119845
20
-127.54194478727675
10
-105.50358613373871
20
-139.52434473554334
42
-0.045211475902057749
10
-105.51829457246856
20
-139.691232813087
10
-105.51829457246856
20
-141.13081640631955
10
-108.73717345543756
20
-141.13081640631955
10
-108.73717345543756
20
-128.98988950327362
10
-108.73689042080028
20
-128.98988950327362
0
LWPOLYLINE
5
310
100
AcDbEntity
8
0
100
AcDbPolyline
90
6
70
1
43
0.0
10
-37.475417572326215
20
-136.34280481753188
10
-60.114055386734179
20
-136.34280481753188
10
-60.114055386734179
20
-133.66975653083637
10
-41.030002447035642
20
-133.66975653083637
10
-41.030002447035642
20
-133.67008741249469
10
-37.475417572326208
20
-133.67008741249469
0
LWPOLYLINE
5
311
100
AcDbEntity
8
0
100
AcDbPolyline
90
8
70
1
43
0.0
10
-41.030002447035642
20
-133.45937362144292
10
-60.114428589213404
20
-133.45937362144292
10
-60.114428589213404
20
-130.95431816110261
10
-41.191811822433294
20
-130.95431816110261
10
-41.191811822433294
20
-130.95398969321479
10
-37.475417572326208
20
-130.95398969321479
10
-37.475417572326215
20
-133.45955767213459
10
-41.030002447035642
20
-133.45955767213459
0
LWPOLYLINE
5
312
100
AcDbEntity
8
0
100
AcDbPolyline
90
30
70
1
43
0.0
10
-56.333128703968605
20
-138.10876887996011
10
-60.450613077153541
20
-138.10876887996011
10
-60.450613077153541
20
-138.10908546062831
10
-62.146096916741946
20
-138.10908546062831
10
-62.146096916741946
20
-130.66408546062831
10
-62.294268774029021
20
-130.66408546062829
10
-62.294268774029021
20
-127.86408546062829
10
-59.49426877402901
20
-127.8640854606283
10
-59.49426877402901
20
-130.66408546062831
10
-60.450613077153541
20
-130.66408546062831
10
-60.450613077153541
20
-136.68180481753188
10
-54.833128703968619
20
-136.68180481753188
10
-54.833128703968619
20
-136.68176887996012
10
-54.714055386734174
20
-136.68176887996012
10
-54.714055386734174
20
-136.68180481753188
10
-54.614055386734179
20
-136.68180481753188
10
-54.614055386734179
20
-136.68176887996012
10
-41.030002447035642
20
-136.68176887996012
10
-41.030002447035642
20
-136.68154070254204
10
-37.475417572326208
20
-136.68154070254204
10
-37.475417572326215
20
-139.91454070254204
10
-41.030002447035642
20
-139.91454070254204
10
-41.030002447035642
20
-138.10876887996011
10
-54.833128703968619
20
-138.10876887996011
10
-54.833128703968619
20
-140.13658694499946
10
-54.092164885965829
20
-140.13658694499946
10
-54.092164885965829
20
-142.9263884983003
10
-57.092164885965829
20
-142.9263884983003
10
-57.092164885965829
20
-140.13658694499946
10
-56.333128703968605
20
-140.13658694499946
0
CIRCLE
5
313
100
AcDbEntity
8
0
100
AcDbCircle
10
-101.46312870396858
20
-118.64536825230454
30
0
40
4.1999999999999993
210
-1.2325951644078309e-32
220
-3.0258173569694256e-80
230
1
0
LWPOLYLINE
5
314
100
AcDbEntity
8
0
100
AcDbPolyline
90
17
70
1
43
0.0
10
-105.52939895059677
20
-124.56728406959897
10
-75.222994463587639
20
-124.56728406959897
10
-75.222866643345867
20
-125.40502428894833
10
-73.310908433538742
20
-125.40473256729643
42
0.38363936176194652
10
-72.764041680140082
20
-124.91256823324872
42
0.050367580329876135
10
-72.763099844671302
20
-124.71219655095763
10
-72.755916656321332
20
-123.18400231575582
10
-108.73689042080029
20
-123.18400231575593
10
-108.73689042080028
20
-128.98988950327362
10
-108.73717345543756
20
-128.98988950327362
10
-108.73717345543756
20
-141.13081640631955
10
-105.51829457246856
20
-141.13081640631955
10
-105.51829457246856
20
-139.691232813087
42
0.04521147590198854
10
-105.50358613373871
20
-139.52434473554331
10
-105.53300301119845
20
-127.54194478727675
42
-0.078616080832843174
10
-105.52699296606232
20
-127.50334326143033
10
-105.52939895059677
20
-127.49636766675535
0
ARC
5
315
100
AcDbEntity
8
0
100
AcDbCircle
10
-106.44499944823113
20
-139.53321199371433
30
0
40
0.6000000000000022
210
0
220
0
230
1
100
AcDbArc
50
115.95178062462051
51
297.35430259780378
0
ARC
5
316
100
AcDbEntity
8
0
100
AcDbCircle
10
-106.43187326918188
20
-139.52662368709133
30
0
40
0.59999999999998654
210
1.3563519435574053e-34
220
6.6012459522343664e-35
230
1
100
AcDbArc
50
-64.048219375241175
51
117.35430259766537
0
CIRCLE
5
317
100
AcDbEntity
8
0
100
AcDbCircle
10
-73.755594597153134
20
-124.80771944161667
30
0
40
0.39101314871491155
210
6.8368087769470537e-64
220
3.0790249460262094e-48
230
1
0
CIRCLE
5
318
100
AcDbEntity
8
0
100
AcDbCircle
10
-106.47625547589809
20
-126.80195656065749
30
0
40
0.60000000000000497
210
0
220
0
230
1
0
LWPOLYLINE
5
319
100
AcDbEntity
8
0
100
AcDbPolyline
90
58
70
1
43
0.0
10
-92.732191698688098
20
-145.71814656715094
10
-92.732191698688098
20
-152.64952603127148
10
-101.92250936666356
20
-156.53773735233801
42
-0.10039544238731378
10
-102.15629336116557
20
-156.58515700169687
10
-105.80894417003694
20
-156.58515700169684
42
-0.41421356237310375
10
-106.40894417003693
20
-155.98515700169688
10
-106.4089441700369
20
-144.10977684172647
10
-103.69987396298001
20
-142.19277799045048
10
-103.69987395872118
20
-142.1158304922684
10
-103.69996305801493
20
-142.11570457866029
10
-103.69996305801493
20
-130.97429780163898
10
-103.70012879539324
20
-130.9742978016298
10
-103.70012866438759
20
-128.60731755312284
10
-103.70015146070298
20
-128.60731755312159
10
-103.70015129427416
20
-125.60031755312158
10
-101.71116736410931
20
-125.6003176632062
10
-101.71116736411656
20
-125.60044857957732
10
-98.794625666817069
20
-125.60044874099971
10
-98.785120145330779
20
-126.38659847703806
42
-0.033604685764822818
10
-98.779711847591841
20
-126.46697700403566
10
-98.779711847591841
20
-127.45660427465835
42
0.34435097704617973
10
-98.324816344280137
20
-128.03879383574721
10
-97.914555069458686
20
-128.03879383574721
10
-97.914555069458686
20
-140.62216707397926
10
-94.259287056669891
20
-140.62216707397926
42
0.21525043702153696
10
-93.988437318882831
20
-140.02216707397926
10
-93.988437318882802
20
-127.79918078398256
42
-0.41421356237309503
10
-93.763437318882822
20
-127.57418078398258
10
-54.817769000367491
20
-127.5741807839826
42
-0.41421356237307771
10
-54.217769000367483
20
-128.17418078398259
10
-54.217769000367475
20
-130.04549779619214
42
0.41421356237309503
10
-53.617769000367481
20
-130.64549779619216
10
-37.475417572326208
20
-130.64549779619216
10
-37.475417572326215
20
-127.54549779619214
10
-41.030002447035642
20
-127.54549779619214
10
-41.030002447035642
20
-128.91652201500128
10
-52.9177690003675
20
-128.91652201500128
10
-52.917769000367485
20
-126.6373602726142
42
0.0038410327592102718
10
-52.917839815234686
20
-126.62814220199743
10
-52.917839815234686
20
-124.6388345555836
10
-71.978839815234679
20
-124.6388345555836
10
-71.978839815234679
20
-125.83719447261419
10
-97.183409111164778
20
-125.83719447261419
42
-0.34285420522139393
10
-97.861714012637464
20
-125.31011775224455
42
0.34285420522141152
10
-98.44311821389978
20
-124.85833770621343
10
-105.13996305801497
20
-124.85833770621343
10
-105.13996305801497
20
-141.47111204517554
42
0.079347926159184665
10
-106.15867329687048
20
-141.97261130873636
10
-108.00894417003693
20
-143.28190448584559
10
-108.00894417003695
20
-157.58515700169687
42
0.41421356237309503
10
-107.40894417003695
20
-158.18515700169687
10
-101.83175686269486
20
-158.18515700169687
42
0.10039544238724431
10
-101.59797286819284
20
-158.13773735233801
10
-88.251356458640885
20
-152.4910919482968
10
-88.15307683017069
20
-152.70185329169618
10
-86.340461256097413
20
-151.85661676821479
10
-87.185697779578803
20
-150.04400119414149
10
-88.101837051608896
20
-145.71814656715094
0
CIRCLE
5
320
100
AcDbEntity
8
0
100
AcDbCircle
10
-55.583128703968612
20
-125.76536825230474
30
0
40
0.44999999999999929
210
-7.5964541966078376e-64
220
-3.4211388289180104e-48
230
1
0
ARC
5
321
100
AcDbEntity
8
0
100
AcDbCircle
10
-96.476255587656894
20
-126.80195600718582
30
0
40
0.59999999999999942
210
-8.3866333191214035e-33
220
-1.0935069112072374e-32
230
1
100
AcDbArc
50
115.94860560443651
51
297.35116408545298
0
ARC
5
322
100
AcDbEntity
8
0
100
AcDbCircle
10
-96.463128703968579
20
-126.79536825230457
30
6.0511393036487309e-47
40
0.59999999999998344
210
1.3779535812264664e-32
220
1.8907065800334088e-34
230
1
100
AcDbArc
50
-64.051394395564117
51
117.35116408545353
0
CIRCLE
5
323
100
AcDbEntity
8
0
100
AcDbCircle
10
-96.444999559989952
20
-139.53321144024272
30
0
40
0.60000000000000497
210
0
220
0
230
1
0
CIRCLE
5
324
100
AcDbEntity
8
0
100
AcDbCircle
10
-39.631530117082704
20
-129.20457292169399
30
0
40
0.45000000000000367
210
-1.2325951644078312e-32
220
-3.0258173569694267e-80
230
1
0
CIRCLE
5
325
100
AcDbEntity
8
0
100
AcDbCircle
10
-87.779406731743194
20
-151.49736371952181
30
0
40
0.44999999999999929
210
-0
220
0
230
1
0
CIRCLE
5
326
100
AcDbEntity
8
0
100
AcDbCircle
10
-89.44390318401291
20
-146.86562391384803
30
0
40
0.44999999999999929
210
-0
220
0
230
1
0
LWPOLYLINE
5
327
100
AcDbEntity
8
0
100
AcDbPolyline
90
35
70
1
43
0.0
10
-62.666210896179976
20
-128.03018078398256
10
-93.710726373650189
20
-128.03018078398256
10
-93.710726373650189
20
-140.86181755061531
10
-98.151948323769375
20
-140.86181755061531
10
-98.151948323769375
20
-131.97429789776783
10
-98.151873404284828
20
-131.97429805163119
10
-98.151875364059933
20
-128.71643909653719
42
0.19000171897394125
10
-98.313293505140095
20
-128.30699315356046
10
-99.038088376305581
20
-128.30699315356046
10
-99.038088376305581
20
-128.08879383574723
10
-99.038555069458681
20
-128.08879383574723
10
-99.038555069458681
20
-128.03879383574721
10
-99.038088376305581
20
-128.03879383574721
10
-99.03808835416676
20
-125.8738133642926
10
-101.48109669375378
20
-125.87381333636765
10
-102.40429765922757
20
-125.87331762484342
10
-103.38312851306836
20
-125.87331757066791
10
-103.38312904999017
20
-135.57429781917486
10
-99.251948323769369
20
-135.57429804782399
10
-99.251948323769369
20
-141.74181755061531
42
0.41421356237309503
10
-98.431948323769362
20
-142.5618175506153
10
-91.363512778150238
20
-142.5618175506153
42
0.18448308813825964
10
-91.210726373650175
20
-142.1618175506153
10
-91.210726373650175
20
-130.4301281197919
42
-0.41421356237311241
10
-90.610726373650166
20
-129.83012811979191
10
-64.468806281179724
20
-129.83012811979191
42
-0.41421356237307771
10
-63.868806281179729
20
-130.4301281197919
10
-63.868806281179729
20
-140.13658694499944
10
-64.148632210734618
20
-140.13658694499944
10
-64.148632210734618
20
-142.9263884983003
10
-62.148632210734633
20
-142.9263884983003
10
-62.148632210734633
20
-140.13658694499944
10
-62.542564452241876
20
-140.13658694499944
10
-62.542564452241876
20
-128.42393687896316
42
0.091394097554410414
10
-62.586145124307002
20
-128.18750668789536
42
0.073955428261920628
0
CIRCLE
5
328
100
AcDbEntity
8
0
100
AcDbCircle
10
-101.47625558765675
20
-126.80195628392163
30
0
40
0.60000000000000497
210
0
220
0
230
1
0
CIRCLE
5
329
100
AcDbEntity
8
0
100
AcDbCircle
10
-63.203128703968616
20
-141.00536825230472
30
0
40
0.44999999999999929
210
-7.5964541966078376e-64
220
-3.4211388289180104e-48
230
1
0
LWPOLYLINE
5
330
100
AcDbEntity
8
0
100
AcDbPolyline
90
26
70
1
43
0.0
10
-66.434211237620659
20
-131.16634663310808
10
-66.434211237620659
20
-140.13658694499944
10
-66.748632210734627
20
-140.13658694499944
10
-66.748632210734627
20
-142.9263884983003
10
-64.748632210734613
20
-142.9263884983003
10
-64.748632210734613
20
-140.13658694499944
10
-65.052046170316572
20
-140.13658694499944
10
-65.052046170316572
20
-130.7663466331081
42
0.41421356237309503
10
-65.652046170316567
20
-130.16634663310808
10
-90.297526264844208
20
-130.16634663310808
42
0.41421356237309503
10
-90.897526264844174
20
-130.7663466331081
10
-90.897526264844188
20
-142.23505421232946
42
-0.41421356237311241
10
-91.497526264844197
20
-142.83505421232945
10
-99.654822897549181
20
-142.83505421232945
10
-99.654822897549195
20
-135.8497703251906
10
-101.96287360084305
20
-135.8497703251906
10
-103.383129065237
20
-135.84977024658346
10
-103.3831295198123
20
-144.06292906793186
42
0.19646940339745309
10
-102.96287407599425
20
-144.23469392921794
10
-100.65482289754918
20
-144.23469405696204
10
-100.65482289754918
20
-144.23505421232946
10
-88.797526264844194
20
-144.23505421232946
42
0.41421356237309503
10
-88.197526264844186
20
-143.63505421232946
10
-88.197526264844214
20
-131.86634663310809
42
-0.41421356237309503
10
-87.597526264844205
20
-131.26634663310807
10
-87.597526264844205
20
-131.16634663310808
0
CIRCLE
5
331
100
AcDbEntity
8
0
100
AcDbCircle
10
-65.743128703968608
20
-141.00536825230472
30
0
40
0.44999999999999929
210
-7.5964541966078376e-64
220
-3.4211388289180104e-48
230
1
0
CIRCLE
5
332
100
AcDbEntity
8
0
100
AcDbCircle
10
-101.44499944823113
20
-139.53321171697854
30
0
40
0.60000000000000497
210
0
220
0
230
1
0
CIRCLE
5
333
100
AcDbEntity
8
0
100
AcDbCircle
10
-85.824895271781145
20
-146.86562391384803
30
0
40
0.44999999999999929
210
-0
220
0
230
1
0
CIRCLE
5
334
100
AcDbEntity
8
0
100
AcDbCircle
10
-85.399516408304606
20
-150.31320403834715
30
0
40
0.44999999999999929
210
-0
220
0
230
1
0
CIRCLE
5
335
100
AcDbEntity
8
0
100
AcDbCircle
10
-68.2831287039686
20
-141.00536825230472
30
0
40
0.44999999999999929
210
-7.5964541966078376e-64
220
-3.4211388289180104e-48
230
1
0
LINE
5
336
100
AcDbEntity
8
0
100
AcDbLine
10
-71.971224048263437
20
-141.87904478366104
30
0
11
-71.971224048263437
21
-139.98972403500059
31
0
0
ARC
5
337
100
AcDbEntity
8
0
100
AcDbCircle
10
-71.589562554241425
20
-141.00536825230509
30
-4.5261666706585278e-45
40
1.084987867288465
210
2.167923375714952e-33
220
-5.769088248596494e-33
230
1
100
AcDbArc
50
90.000000000003752
51
110.59535002819382
0
LINE
5
338
100
AcDbEntity
8
0
100
AcDbLine
10
-71.589562554241496
20
-139.92038038501661
30
6.2593907550392633e-33
11
-69.034728385980401
21
-139.92038038501661
31
0
0
LINE
5
339
100
AcDbEntity
8
0
100
AcDbLine
10
-69.034728385980401
20
-139.92038038501661
30
0
11
-69.034728385980401
21
-139.9206831202452
31
0
0
LINE
5
340
100
AcDbEntity
8
0
100
AcDbLine
10
-69.034728385980401
20
-139.9206831202452
30
0
11
-67.034728385980387
21
-139.9206831202452
31
0
0
LINE
5
341
100
AcDbEntity
8
0
100
AcDbLine
10
-67.034728385980387
20
-139.9206831202452
30
0
11
-67.034728385980387
21
-142.9263884983003
31
0
0
LINE
5
342
100
AcDbEntity
8
0
100
AcDbLine
10
-67.034728385980387
20
-142.9263884983003
30
0
11
-72.888455716023742
21
-142.9263884983003
31
0
0
LINE
5
343
100
AcDbEntity
8
0
100
AcDbLine
10
-72.888455716023742
20
-142.9263884983003
30
0
11
-72.918074810367358
21
-142.96228494709518
31
0
0
SPLINE
5
344
100
AcDbEntity
8
0
100
AcDbSpline
70
0
71
3
72
11
73
7
74
0
42
0.000000001
43
0.0000000001
44
0.0000000001
40
-1.4849467941200341
40
-1.4849467941200341
40
-1.4849467941200341
40
-1.4849467941200341
40
-0.7875724941765988
40
-0.7875724941765988
40
-0.7875724941765988
40
-0.11311941349423653
40
-0.11311941349423653
40
-0.11311941349423653
40
-0.11311941349423653
10
-84.196912061973279
20
-150.8553375042668
30
0
10
-82.233323633256219
20
-149.61207474226484
30
0
10
-80.28098193223677
20
-148.29614093846115
30
0
10
-78.380575859670145
20
-146.95835823803822
30
0
10
-76.542632096476936
20
-145.66454561228221
30
0
10
-74.714417600141417
20
-144.32295388366074
30
0
10
-72.918074810367358
20
-142.96228494709518
30
0
0
LINE
5
345
100
AcDbEntity
8
0
100
AcDbLine
10
-84.196912061973279
20
-150.8553375042668
30
0
11
-85.91662121331359
21
-151.90809900274925
31
3.0814879110195774e-32
0
LINE
5
346
100
AcDbEntity
8
0
100
AcDbLine
10
-85.91662121331359
20
-151.90809900274925
30
3.0814879110195774e-32
11
-86.042677278188478
21
-151.6995691386899
31
2.1763008371575765e-31
0
LINE
5
347
100
AcDbEntity
8
0
100
AcDbLine
10
-86.042677278188478
20
-151.6995691386899
30
2.1763008371575765e-31
11
-86.887913801669882
21
-149.88695356461659
31
0
0
LINE
5
348
100
AcDbEntity
8
0
100
AcDbLine
10
-86.887913801669882
20
-149.88695356461659
30
0
11
-87.101837051608896
21
-148.21814656715094
31
0
0
LINE
5
349
100
AcDbEntity
8
0
100
AcDbLine
10
-87.101837051608896
20
-148.21814656715094
30
0
11
-87.101837051608896
21
-145.71814656715094
31
0
0
LINE
5
350
100
AcDbEntity
8
0
100
AcDbLine
10
-87.101837051608896
20
-145.71814656715094
30
0
11
-82.258538969817636
21
-145.71814656715094
31
-2.4651903288156619e-31
0
LINE
5
351
100
AcDbEntity
8
0
100
AcDbLine
10
-82.258538969817636
20
-145.71814656715094
30
-2.4651903288156619e-31
11
-82.258538969817636
21
-148.09255204533787
31
0
0
SPLINE
5
352
100
AcDbEntity
8
0
100
AcDbSpline
70
4
71
5
72
29
73
23
74
0
42
0.000000001
43
0.0000000001
44
0.0000000001
40
0.25160269781672534
40
0.25160269781672534
40
0.25160269781672534
40
0.25160269781672534
40
0.25160269781672534
40
0.25160269781672534
40
0.28000000000000003
40
0.32000000000000001
40
0.35999999999999999
40
0.39999999999999997
40
0.43999999999999995
40
0.47999999999999993
40
0.51999999999999991
40
0.55999999999999994
40
0.59999999999999998
40
0.64000000000000001
40
0.68000000000000005
40
0.72000000000000008
40
0.76000000000000012
40
0.80000000000000016
40
0.84000000000000019
40
0.88000000000000023
40
0.92000000000000026
40
0.92024196750295295
40
0.92024196750295295
40
0.92024196750295295
40
0.92024196750295295
40
0.92024196750295295
40
0.92024196750295295
41
1
41
1
41
1
41
1
41
1
41
1
41
1
41
1
41
1
41
1
41
1
41
1
41
1
41
1
41
1
41
1
41
1
41
1
41
1
41
1
41
1
41
1
41
1
10
-82.258538969817664
20
-148.09255204533787
30
0
10
-82.198605839151199
20
-148.04748981811193
30
0
10
-82.053216804800485
20
-147.93796816987174
30
0
10
-81.818557566346044
20
-147.76072284997559
30
0
10
-81.486635185164147
20
-147.51061036797051
30
0
10
-81.043768106464796
20
-147.18183213879473
30
0
10
-80.548204071760679
20
-146.82256891406911
30
0
10
-80.031026676410718
20
-146.45621932604769
30
0
10
-79.499940046237967
20
-146.08626037203149
30
0
10
-78.964536914866073
20
-145.71619703062191
30
0
10
-78.434705452040987
20
-145.3492999269252
30
0
10
-77.918901699548627
20
-144.98833131732533
30
0
10
-77.422407696919905
20
-144.63525949837674
30
0
10
-76.945734000578398
20
-144.2909989583365
30
0
10
-76.486071360133479
20
-143.95569173548935
30
0
10
-76.038521320946927
20
-143.62894683145106
30
0
10
-75.59739252562018
20
-143.31008764161251
30
0
10
-75.157413927284168
20
-142.99838236379534
30
0
10
-74.803009363779594
20
-142.7539408859009
30
0
10
-74.53508607152645
20
-142.57334359002544
30
0
10
-74.355273594016509
20
-142.45405363003852
30
0
10
-74.264829558888295
20
-142.39453528189159
30
0
10
-74.264285725999571
20
-142.39417742015956
30
0
0
SPLINE
5
353
100
AcDbEntity
8
0
100
AcDbSpline
70
0
71
3
72
14
73
10
74
0
42
0.000000001
43
0.0000000001
44
0.0000000001
40
-1
40
-1
40
-1
40
-1
40
-0.8571428571428571
40
-0.7142857142857143
40
-0.5714285714285714
40
-0.42857142857142855
40
-0.2857142857142857
40
-0.14285714285714285
40
-0.0080028830221627687
40
-0.0080028830221627687
40
-0.0080028830221627687
40
-0.0080028830221627687
10
-74.264285725999585
20
-142.39417742015956
30
0
10
-74.230974363101325
20
-142.36915921115877
30
0
10
-74.164289101719604
20
-142.31920605833318
30
0
10
-74.06407422786593
20
-142.24452659278387
30
0
10
-73.963672998374236
20
-142.17009785752134
30
0
10
-73.863086040551806
20
-142.09592031757657
30
0
10
-73.762313982866374
20
-142.02199443641121
30
0
10
-73.663242655936585
20
-141.94969641505094
30
0
10
-73.597707714999117
20
-141.90211540019843
30
0
10
-73.565857298834644
20
-141.879048046837
30
0
0
LINE
5
354
100
AcDbEntity
8
0
100
AcDbLine
10
-73.565857298834644
20
-141.879048046837
30
0
11
-72.595296134652784
21
-141.87904804683714
31
1.5407439555097887e-32
0
LINE
5
355
100
AcDbEntity
8
0
100
AcDbLine
10
-72.595296134652784
20
-141.87904804683714
30
1.5407439555097887e-32
11
-72.171224048263426
21
-141.87904804683714
31
0
0
LINE
5
356
100
AcDbEntity
8
0
100
AcDbLine
10
-72.171224048263426
20
-141.87904804683714
30
0
11
-71.971224048263437
21
-141.87904478366104
31
0
0
CIRCLE
5
357
100
AcDbEntity
8
0
100
AcDbCircle
10
-75.903128703968605
20
-141.00536825230472
30
0
40
0.44999999999999929
210
-7.5964541966078376e-64
220
-3.4211388289180104e-48
230
1
0
CIRCLE
5
358
100
AcDbEntity
8
0
100
AcDbCircle
10
-68.328356483670035
20
-132.60280389131182
30
0
40
0.35059761178512616
210
0
220
-0
230
1
0
LWPOLYLINE
5
359
100
AcDbEntity
8
0
100
AcDbPolyline
90
16
70
1
43
0.0
10
-67.726126326250821
20
-131.55075466146465
10
-76.580294689770184
20
-131.55075466146465
42
0.25138067141273795
10
-76.848632210734621
20
-132.05075466146465
10
-76.848632210734621
20
-139.73896151082801
10
-77.477675112435861
20
-139.73896151082801
10
-77.477675112435861
20
-142.13611596998277
10
-76.848632210734621
20
-142.13611596998277
10
-76.848632210734621
20
-142.13658694499944
10
-74.848632210734621
20
-142.13658694499944
10
-74.848632210734621
20
-142.13611596998277
10
-74.848929362165038
20
-142.13611596998277
10
-74.848929362165038
20
-139.73896151082801
10
-74.848632210734621
20
-139.73896151082801
10
-74.84863221073465
20
-134.05075466146465
42
-0.41421356237307771
10
-74.248632210734641
20
-133.45075466146466
10
-67.726126326250821
20
-133.45075466146466
0
CIRCLE
5
360
100
AcDbEntity
8
0
100
AcDbCircle
10
-73.363128703968613
20
-141.00536825230472
30
0
40
0.44999999999999929
210
-7.5964541966078376e-64
220
-3.4211388289180104e-48
230
1
0
CIRCLE
5
361
100
AcDbEntity
8
0
100
AcDbCircle
10
-68.328356483670035
20
-134.46725653083635
30
0
40
0.35376240929963387
210
-1.2325951644078309e-32
220
-3.4211388289180165e-49
230
1
0
LWPOLYLINE
5
362
100
AcDbEntity
8
0
100
AcDbPolyline
90
12
70
1
43
0.0
10
-74.481929362165033
20
-139.74937611497924
10
-74.481929362165033
20
-141.65804478366107
10
-72.181224048263431
20
-141.65804478366107
10
-72.181224048263431
20
-139.74937611497924
10
-72.721313387755202
20
-139.74937611497924
10
-72.721313387755202
20
-136.42544121462291
42
-0.41421356237307771
10
-72.121313387755194
20
-135.82544121462291
10
-67.647144527028274
20
-135.82544121462291
10
-67.647144527028274
20
-133.82544121462291
10
-73.363128703968613
20
-133.82544121462291
42
0.41421356237309503
10
-74.004944020182037
20
-134.46725653083635
10
-74.004944020182037
20
-139.74937611497924
0
LINE
5
363
100
AcDbEntity
8
0
100
AcDbLine
10
-81.819968562672628
20
-140.92581670063313
30
0
11
-80.749821874208152
21
-140.91644907311701
31
0
0
LINE
5
364
100
AcDbEntity
8
0
100
AcDbLine
10
-80.749821874208152
20
-140.91644907311701
30
0
11
-80.719723808299108
21
-144.35481652593961
31
0
0
LINE
5
365
100
AcDbEntity
8
0
100
AcDbLine
10
-80.719723808299108
20
-144.35481652593961
30
0
11
-81.789870496763569
21
-144.36418415345574
31
0
0
LINE
5
366
100
AcDbEntity
8
0
100
AcDbLine
10
-81.789870496763569
20
-144.36418415345574
30
0
11
-81.791573701866568
21
-144.16961201685098
31
0
0
SPLINE
5
367
100
AcDbEntity
8
0
100
AcDbSpline
70
0
71
2
72
6
73
3
74
0
42
0.000000001
43
0.0000000001
44
0.0000000001
40
-1
40
-1
40
-1
40
0
40
0
40
0
10
-81.791573701866568
20
-144.16961201685098
30
0
10
-81.70006584337392
20
-144.14379266266252
30
0
10
-81.560255648555611
20
-144.07863310738401
30
0
0
SPLINE
5
368
100
AcDbEntity
8
0
100
AcDbSpline
70
0
71
2
72
6
73
3
74
0
42
0.000000001
43
0.0000000001
44
0.0000000001
40
-1
40
-1
40
-1
40
0
40
0
40
0
10
-81.560255648555611
20
-144.07863310738401
30
0
10
-81.420445453900342
20
-144.01347353347975
30
0
10
-81.296093287541439
20
-143.92899055383589
30
0
0
SPLINE
5
369
100
AcDbEntity
8
0
100
AcDbSpline
70
0
71
2
72
6
73
3
74
0
42
0.000000001
43
0.0000000001
44
0.0000000001
40
-1
40
-1
40
-1
40
0
40
0
40
0
10
-81.296093287541439
20
-143.92899055383589
30
0
10
-81.171741121182563
20
-143.84450757419205
30
0
10
-81.073929007978734
20
-143.74496796175109
30
0
0
SPLINE
5
370
100
AcDbEntity
8
0
100
AcDbSpline
70
0
71
2
72
6
73
3
74
0
42
0.000000001
43
0.0000000001
44
0.0000000001
40
-1
40
-1
40
-1
40
0
40
0
40
0
10
-81.073929007978734
20
-143.74496796175109
30
0
10
-80.976116895100972
20
-143.64542831205867
30
0
10
-80.96580160997776
20
-143.55360414567559
30
0
0
SPLINE
5
371
100
AcDbEntity
8
0
100
AcDbSpline
70
0
71
2
72
6
73
3
74
0
42
0.000000001
43
0.0000000001
44
0.0000000001
40
-1
40
-1
40
-1
40
0
40
0
40
0
10
-80.96580160997776
20
-143.55360414567559
30
0
10
-80.952925454539354
20
-143.43673919349595
30
0
10
-80.949875220228321
20
-143.30884102799021
30
0
0
SPLINE
5
372
100
AcDbEntity
8
0
100
AcDbSpline
70
0
71
2
72
6
73
3
74
0
42
0.000000001
43
0.0000000001
44
0.0000000001
40
-1
40
-1
40
-1
40
0
40
0
40
0
10
-80.949875220228321
20
-143.30884102799021
30
0
10
-80.946824985917289
20
-143.18094286248444
30
0
10
-80.947579263069059
20
-143.09477513274021
30
0
0
LINE
5
373
100
AcDbEntity
8
0
100
AcDbLine
10
-80.947579263069059
20
-143.09477513274021
30
0
11
-80.94899049036286
21
-142.93355819573904
31
0
0
LINE
5
374
100
AcDbEntity
8
0
100
AcDbLine
10
-80.94899049036286
20
-142.93355819573904
30
0
11
-84.128855140436812
21
-142.96139343357584
31
0
0
SPLINE
5
375
100
AcDbEntity
8
0
100
AcDbSpline
70
0
71
2
72
6
73
3
74
0
42
0.000000001
43
0.0000000001
44
0.0000000001
40
-1
40
-1
40
-1
40
0
40
0
40
0
10
-84.128855140436812
20
-142.96139343357584
30
0
10
-84.242818729381653
20
-142.96239102433898
30
0
10
-84.310541758759584
20
-143.00607101029811
30
0
0
SPLINE
5
376
100
AcDbEntity
8
0
100
AcDbSpline
70
0
71
2
72
6
73
3
74
0
42
0.000000001
43
0.0000000001
44
0.0000000001
40
-1
40
-1
40
-1
40
0
40
0
40
0
10
-84.310541758759584
20
-143.00607101029811
30
0
10
-84.378265086149312
20
-143.0497509988659
30
0
10
-84.413596972366008
20
-143.14179415036878
30
0
0
SPLINE
5
377
100
AcDbEntity
8
0
100
AcDbSpline
70
0
71
2
72
6
73
3
74
0
42
0.000000001
43
0.0000000001
44
0.0000000001
40
-1
40
-1
40
-1
40
0
40
0
40
0
10
-84.413596972366008
20
-143.14179415036878
30
0
10
-84.438077982111409
20
-143.20316441053652
30
0
10
-84.453356257733176
20
-143.36313748157693
30
0
0
SPLINE
5
378
100
AcDbEntity
8
0
100
AcDbSpline
70
0
71
2
72
6
73
3
74
0
42
0.000000001
43
0.0000000001
44
0.0000000001
40
-1
40
-1
40
-1
40
0
40
0
40
0
10
-84.453356257733176
20
-143.36313748157693
30
0
10
-84.468635129378583
20
-143.52311055783468
30
0
10
-84.473512959721859
20
-143.60098805791395
30
0
0
LINE
5
379
100
AcDbEntity
8
0
100
AcDbLine
10
-84.473512959721859
20
-143.60098805791395
30
0
11
-84.670864722292038
21
-143.60271559472861
31
0
0
LINE
5
380
100
AcDbEntity
8
0
100
AcDbLine
10
-84.670864722292038
20
-143.60271559472861
30
0
11
-84.687166826210657
21
-141.7403825233734
31
0
0
LINE
5
381
100
AcDbEntity
8
0
100
AcDbLine
10
-84.687166826210657
20
-141.7403825233734
30
0
11
-84.489815063640478
21
-141.73865498655874
31
0
0
SPLINE
5
382
100
AcDbEntity
8
0
100
AcDbSpline
70
0
71
2
72
6
73
3
74
0
42
0.000000001
43
0.0000000001
44
0.0000000001
40
-1
40
-1
40
-1
40
0
40
0
40
0
10
-84.489815063640478
20
-141.73865498655874
30
0
10
-84.486256601257736
20
-141.82757793871292
30
0
10
-84.451502570684426
20
-141.9871128238309
30
0
0
SPLINE
5
383
100
AcDbEntity
8
0
100
AcDbSpline
70
0
71
2
72
6
73
3
74
0
42
0.000000001
43
0.0000000001
44
0.0000000001
40
-1
40
-1
40
-1
40
0
40
0
40
0
10
-84.451502570684426
20
-141.9871128238309
30
0
10
-84.41674823949063
20
-142.14664800435202
30
0
10
-84.396853082320092
20
-142.19651043921075
30
0
0
SPLINE
5
384
100
AcDbEntity
8
0
100
AcDbSpline
70
0
71
2
72
6
73
3
74
0
42
0.000000001
43
0.0000000001
44
0.0000000001
40
-1
40
-1
40
-1
40
0
40
0
40
0
10
-84.396853082320092
20
-142.19651043921075
30
0
10
-84.354307541656112
20
-142.293431570715
30
0
10
-84.277527766712709
20
-142.3316768354064
30
0
0
SPLINE
5
385
100
AcDbEntity
8
0
100
AcDbSpline
70
0
71
2
72
6
73
3
74
0
42
0.000000001
43
0.0000000001
44
0.0000000001
40
-1
40
-1
40
-1
40
0
40
0
40
0
10
-84.277527766712709
20
-142.3316768354064
30
0
10
-84.200747990464976
20
-142.36992224910372
30
0
10
-84.109021148482967
20
-142.3691193097514
30
0
0
LINE
5
386
100
AcDbEntity
8
0
100
AcDbLine
10
-84.109021148482967
20
-142.3691193097514
30
0
11
-80.954173099502512
21
-142.3415030570344
31
0
0
LINE
5
387
100
AcDbEntity
8
0
100
AcDbLine
10
-80.954173099502512
20
-142.3415030570344
30
0
11
-80.955587368509953
21
-142.17993863826689
31
0
0
SPLINE
5
388
100
AcDbEntity
8
0
100
AcDbSpline
70
0
71
2
72
6
73
3
74
0
42
0.000000001
43
0.0000000001
44
0.0000000001
40
-1
40
-1
40
-1
40
0
40
0
40
0
10
-80.955587368509953
20
-142.17993863826689
30
0
10
-80.956562909458057
20
-142.06849399411621
30
0
10
-80.963268561832663
20
-141.93759731420701
30
0
0
SPLINE
5
389
100
AcDbEntity
8
0
100
AcDbSpline
70
0
71
2
72
6
73
3
74
0
42
0.000000001
43
0.0000000001
44
0.0000000001
40
-1
40
-1
40
-1
40
0
40
0
40
0
10
-80.963268561832663
20
-141.93759731420701
30
0
10
-80.969973913586784
20
-141.80670092970098
30
0
10
-80.98184823408269
20
-141.72045678608333
30
0
0
SPLINE
5
390
100
AcDbEntity
8
0
100
AcDbSpline
70
0
71
2
72
6
73
3
74
0
42
0.000000001
43
0.0000000001
44
0.0000000001
40
-1
40
-1
40
-1
40
0
40
0
40
0
10
-80.98184823408269
20
-141.72045678608333
30
0
10
-80.996550855752574
20
-141.62863434899577
30
0
10
-81.093312848440618
20
-141.53058095242267
30
0
0
SPLINE
5
391
100
AcDbEntity
8
0
100
AcDbSpline
70
0
71
2
72
6
73
3
74
0
42
0.000000001
43
0.0000000001
44
0.0000000001
40
-1
40
-1
40
-1
40
0
40
0
40
0
10
-81.093312848440618
20
-141.53058095242267
30
0
10
-81.190074843737364
20
-141.43252725783771
30
0
10
-81.318668356454381
20
-141.35004138049044
30
0
0
SPLINE
5
392
100
AcDbEntity
8
0
100
AcDbSpline
70
0
71
2
72
6
73
3
74
0
42
0.000000001
43
0.0000000001
44
0.0000000001
40
-1
40
-1
40
-1
40
0
40
0
40
0
10
-81.318668356454381
20
-141.35004138049044
30
0
10
-81.441678047575692
20
-141.27032960877341
30
0
10
-81.579841430959036
20
-141.20606141994566
30
0
0
SPLINE
5
393
100
AcDbEntity
8
0
100
AcDbSpline
70
0
71
2
72
6
73
3
74
0
42
0.000000001
43
0.0000000001
44
0.0000000001
40
-1
40
-1
40
-1
40
0
40
0
40
0
10
-81.579841430959036
20
-141.20606141994566
30
0
10
-81.718004814342379
20
-141.1417932311179
30
0
10
-81.818289688058485
20
-141.11760935096558
30
0
0
LINE
5
394
100
AcDbEntity
8
0
100
AcDbLine
10
-81.818289688058485
20
-141.11760935096558
30
0
11
-81.819968562672628
21
-140.92581670063313
31
0
0
SPLINE
5
395
100
AcDbEntity
8
0
100
AcDbSpline
70
0
71
2
72
6
73
3
74
0
42
0.000000001
43
0.0000000001
44
0.0000000001
40
-1
40
-1
40
-1
40
0
40
0
40
0
10
-84.806527390383749
20
-138.90193330358912
30
0
10
-84.811292560850774
20
-138.35756586514873
30
0
10
-84.563190635878712
20
-137.9609857665007
30
0
0
SPLINE
5
396
100
AcDbEntity
8
0
100
AcDbSpline
70
0
71
2
72
6
73
3
74
0
42
0.000000001
43
0.0000000001
44
0.0000000001
40
-1
40
-1
40
-1
40
0
40
0
40
0
10
-84.563190635878712
20
-137.9609857665007
30
0
10
-84.315088705689334
20
-137.56440626387632
30
0
10
-83.730683435041243
20
-137.32044386847147
30
0
0
LINE
5
397
100
AcDbEntity
8
0
100
AcDbLine
10
-83.730683435041243
20
-137.32044386847147
30
0
11
-83.628793063486867
21
-137.52803792286403
31
0
0
SPLINE
5
398
100
AcDbEntity
8
0
100
AcDbSpline
70
0
71
2
72
6
73
3
74
0
42
0.000000001
43
0.0000000001
44
0.0000000001
40
-1
40
-1
40
-1
40
0
40
0
40
0
10
-83.628793063486867
20
-137.52803792286403
30
0
10
-83.811663552342395
20
-137.59626732102149
30
0
10
-83.966397431188895
20
-137.7031463277967
30
0
0
SPLINE
5
399
100
AcDbEntity
8
0
100
AcDbSpline
70
0
71
2
72
6
73
3
74
0
42
0.000000001
43
0.0000000001
44
0.0000000001
40
-1
40
-1
40
-1
40
0
40
0
40
0
10
-83.966397431188895
20
-137.7031463277967
30
0
10
-84.121131608047207
20
-137.81002533718058
30
0
10
-84.242219110942997
20
-137.9499020749966
30
0
0
SPLINE
5
400
100
AcDbEntity
8
0
100
AcDbSpline
70
0
71
2
72
6
73
3
74
0
42
0.000000001
43
0.0000000001
44
0.0000000001
40
-1
40
-1
40
-1
40
0
40
0
40
0
10
-84.242219110942997
20
-137.9499020749966
30
0
10
-84.357746822722874
20
-138.08977365772711
30
0
10
-84.4269739050049
20
-138.27918995352104
30
0
0
SPLINE
5
401
100
AcDbEntity
8
0
100
AcDbSpline
70
0
71
2
72
6
73
3
74
0
42
0.000000001
43
0.0000000001
44
0.0000000001
40
-1
40
-1
40
-1
40
0
40
0
40
0
10
-84.4269739050049
20
-138.27918995352104
30
0
10
-84.496200987286926
20
-138.46860624931494
30
0
10
-84.494232414233053
20
-138.69349370677867
30
0
0
SPLINE
5
402
100
AcDbEntity
8
0
100
AcDbSpline
70
0
71
2
72
6
73
3
74
0
42
0.000000001
43
0.0000000001
44
0.0000000001
40
-1
40
-1
40
-1
40
0
40
0
40
0
10
-84.494232414233053
20
-138.69349370677867
30
0
10
-84.491607274512234
20
-138.99338656376378
30
0
10
-84.355951484957842
20
-139.23515037150142
30
0
0
SPLINE
5
403
100
AcDbEntity
8
0
100
AcDbSpline
70
0
71
2
72
6
73
3
74
0
42
0.000000001
43
0.0000000001
44
0.0000000001
40
-1
40
-1
40
-1
40
0
40
0
40
0
10
-84.355951484957842
20
-139.23515037150142
30
0
10
-84.220295695403408
20
-139.47691417923909
30
0
10
-83.98230019486077
20
-139.65252209746893
30
0
0
SPLINE
5
404
100
AcDbEntity
8
0
100
AcDbSpline
70
0
71
2
72
6
73
3
74
0
42
0.000000001
43
0.0000000001
44
0.0000000001
40
-1
40
-1
40
-1
40
0
40
0
40
0
10
-83.98230019486077
20
-139.65252209746893
30
0
10
-83.74152506056204
20
-139.8281486009073
30
0
10
-83.42494127579414
20
-139.92117254426253
30
0
0
SPLINE
5
405
100
AcDbEntity
8
0
100
AcDbSpline
70
0
71
2
72
6
73
3
74
0
42
0.000000001
43
0.0000000001
44
0.0000000001
40
-1
40
-1
40
-1
40
0
40
0
40
0
10
-83.42494127579414
20
-139.92117254426253
30
0
10
-83.108357493634927
20
-140.01419618960594
30
0
10
-82.730070842888978
20
-140.01088482259735
30
0
0
SPLINE
5
406
100
AcDbEntity
8
0
100
AcDbSpline
70
0
71
2
72
6
73
3
74
0
42
0.000000001
43
0.0000000001
44
0.0000000001
40
-1
40
-1
40
-1
40
0
40
0
40
0
10
-82.730070842888978
20
-140.01088482259735
30
0
10
-82.301664566532139
20
-140.00713472883382
30
0
10
-81.954755914315655
20
-139.9124729440816
30
0
0
SPLINE
5
407
100
AcDbEntity
8
0
100
AcDbSpline
70
0
71
2
72
6
73
3
74
0
42
0.000000001
43
0.0000000001
44
0.0000000001
40
-1
40
-1
40
-1
40
0
40
0
40
0
10
-81.954755914315655
20
-139.9124729440816
30
0
10
-81.607847264707857
20
-139.81781086131758
30
0
10
-81.383891800755336
20
-139.65479491044169
30
0
0
SPLINE
5
408
100
AcDbEntity
8
0
100
AcDbSpline
70
0
71
2
72
6
73
3
74
0
42
0.000000001
43
0.0000000001
44
0.0000000001
40
-1
40
-1
40
-1
40
0
40
0
40
0
10
-81.383891800755336
20
-139.65479491044169
30
0
10
-81.151714091224875
20
-139.48341089309534
30
0
10
-81.034133579661813
20
-139.25054943450573
30
0
0
SPLINE
5
409
100
AcDbEntity
8
0
100
AcDbSpline
70
0
71
2
72
6
73
3
74
0
42
0.000000001
43
0.0000000001
44
0.0000000001
40
-1
40
-1
40
-1
40
0
40
0
40
0
10
-81.034133579661813
20
-139.25054943450573
30
0
10
-80.916553068098764
20
-139.01768797591615
30
0
10
-80.918910563107929
20
-138.74837053425051
30
0
0
SPLINE
5
410
100
AcDbEntity
8
0
100
AcDbSpline
70
0
71
2
72
6
73
3
74
0
42
0.000000001
43
0.0000000001
44
0.0000000001
40
-1
40
-1
40
-1
40
0
40
0
40
0
10
-80.918910563107929
20
-138.74837053425051
30
0
10
-80.920976079696501
20
-138.51240836203502
30
0
10
-81.029594603711018
20
-138.33010898839791
30
0
0
SPLINE
5
411
100
AcDbEntity
8
0
100
AcDbSpline
70
0
71
2
72
6
73
3
74
0
42
0.000000001
43
0.0000000001
44
0.0000000001
40
-1
40
-1
40
-1
40
0
40
0
40
0
10
-81.029594603711018
20
-138.33010898839791
30
0
10
-81.138213132942866
20
-138.14780901873715
30
0
10
-81.328392622590684
20
-138.01621592732178
30
0
0
SPLINE
5
412
100
AcDbEntity
8
0
100
AcDbSpline
70
0
71
2
72
6
73
3
74
0
42
0.000000001
43
0.0000000001
44
0.0000000001
40
-1
40
-1
40
-1
40
0
40
0
40
0
10
-81.328392622590684
20
-138.01621592732178
30
0
10
-81.496213779585517
20
-137.89828394281659
30
0
10
-81.7374270683313
20
-137.81154951062976
30
0
0
SPLINE
5
413
100
AcDbEntity
8
0
100
AcDbSpline
70
0
71
2
72
6
73
3
74
0
42
0.000000001
43
0.0000000001
44
0.0000000001
40
-1
40
-1
40
-1
40
0
40
0
40
0
10
-81.7374270683313
20
-137.81154951062976
30
0
10
-81.978640053847897
20
-137.7248156718579
30
0
10
-82.184719709959197
20
-137.68218562435652
30
0
0
LINE
5
414
100
AcDbEntity
8
0
100
AcDbLine
10
-82.184719709959197
20
-137.68218562435652
30
0
11
-82.186714886268163
21
-137.45425904249049
31
0
0
LINE
5
415
100
AcDbEntity
8
0
100
AcDbLine
10
-82.186714886268163
20
-137.45425904249049
30
0
11
-80.780017262684055
21
-137.46696360535844
31
0
0
LINE
5
416
100
AcDbEntity
8
0
100
AcDbLine
10
-80.780017262684055
20
-137.46696360535844
30
0
11
-80.778070743358285
21
-137.68933167101034
31
0
0
LINE
5
417
100
AcDbEntity
8
0
100
AcDbLine
10
-80.778070743358285
20
-137.68933167101034
30
0
11
-80.96608701115008
21
-137.80486248600968
31
0
0
SPLINE
5
418
100
AcDbEntity
8
0
100
AcDbSpline
70
0
71
2
72
6
73
3
74
0
42
0.000000001
43
0.0000000001
44
0.0000000001
40
-1
40
-1
40
-1
40
0
40
0
40
0
10
-80.96608701115008
20
-137.80486248600968
30
0
10
-80.83357385994924
20
-138.0175316461395
30
0
10
-80.759237935707247
20
-138.25294762273714
30
0
0
SPLINE
5
419
100
AcDbEntity
8
0
100
AcDbSpline
70
0
71
2
72
6
73
3
74
0
42
0.000000001
43
0.0000000001
44
0.0000000001
40
-1
40
-1
40
-1
40
0
40
0
40
0
10
-80.759237935707247
20
-138.25294762273714
30
0
10
-80.684902006247881
20
-138.48836419535837
30
0
10
-80.682349862436553
20
-138.77991808597503
30
0
0
SPLINE
5
420
100
AcDbEntity
8
0
100
AcDbSpline
70
0
71
2
72
6
73
3
74
0
42
0.000000001
43
0.0000000001
44
0.0000000001
40
-1
40
-1
40
-1
40
0
40
0
40
0
10
-80.682349862436553
20
-138.77991808597503
30
0
10
-80.678922159012444
20
-139.17149487124198
30
0
10
-80.826115093117636
20
-139.51715461775262
30
0
0
SPLINE
5
421
100
AcDbEntity
8
0
100
AcDbSpline
70
0
71
2
72
6
73
3
74
0
42
0.000000001
43
0.0000000001
44
0.0000000001
40
-1
40
-1
40
-1
40
0
40
0
40
0
10
-80.826115093117636
20
-139.51715461775262
30
0
10
-80.973308027222842
20
-139.86281436426327
30
0
10
-81.246450029129065
20
-140.11795123155329
30
0
0
SPLINE
5
422
100
AcDbEntity
8
0
100
AcDbSpline
70
0
71
2
72
6
73
3
74
0
42
0.000000001
43
0.0000000001
44
0.0000000001
40
-1
40
-1
40
-1
40
0
40
0
40
0
10
-81.246450029129065
20
-140.11795123155329
30
0
10
-81.522347636920273
20
-140.37584847633869
30
0
10
-81.906318930864458
20
-140.52362974091028
30
0
0
SPLINE
5
423
100
AcDbEntity
8
0
100
AcDbSpline
70
0
71
2
72
6
73
3
74
0
42
0.000000001
43
0.0000000001
44
0.0000000001
40
-1
40
-1
40
-1
40
0
40
0
40
0
10
-81.906318930864458
20
-140.52362974091028
30
0
10
-82.290290224808643
20
-140.67141100548187
30
0
10
-82.763169995091133
20
-140.6755504020671
30
0
0
SPLINE
5
424
100
AcDbEntity
8
0
100
AcDbSpline
70
0
71
2
72
6
73
3
74
0
42
0.000000001
43
0.0000000001
44
0.0000000001
40
-1
40
-1
40
-1
40
0
40
0
40
0
10
-82.763169995091133
20
-140.6755504020671
30
0
10
-83.236006255649897
20
-140.67968941778594
30
0
10
-83.614191408523823
20
-140.53579999070453
30
0
0
SPLINE
5
425
100
AcDbEntity
8
0
100
AcDbSpline
70
0
71
2
72
6
73
3
74
0
42
0.000000001
43
0.0000000001
44
0.0000000001
40
-1
40
-1
40
-1
40
0
40
0
40
0
10
-83.614191408523823
20
-140.53579999070453
30
0
10
-83.992376561397762
20
-140.3919105636231
30
0
10
-84.255997028612612
20
-140.14698861918507
30
0
0
SPLINE
5
426
100
AcDbEntity
8
0
100
AcDbSpline
70
0
71
2
72
6
73
3
74
0
42
0.000000001
43
0.0000000001
44
0.0000000001
40
-1
40
-1
40
-1
40
0
40
0
40
0
10
-84.255997028612612
20
-140.14698861918507
30
0
10
-84.519641451278716
20
-139.89933003232829
30
0
10
-84.661540400984748
20
-139.57698462200145
30
0
0
SPLINE
5
427
100
AcDbEntity
8
0
100
AcDbSpline
70
0
71
2
72
6
73
3
74
0
42
0.000000001
43
0.0000000001
44
0.0000000001
40
-1
40
-1
40
-1
40
0
40
0
40
0
10
-84.661540400984748
20
-139.57698462200145
30
0
10
-84.80343995193175
20
-139.25463862086832
30
0
10
-84.806527390383749
20
-138.90193330358912
30
0
0
SPLINE
5
428
100
AcDbEntity
8
0
100
AcDbSpline
70
0
71
2
72
6
73
3
74
0
42
0.000000001
43
0.0000000001
44
0.0000000001
40
-1
40
-1
40
-1
40
0
40
0
40
0
10
-84.838523316801172
20
-135.24675651086829
30
0
10
-84.843288487268183
20
-134.70238907242793
30
0
10
-84.595186551861445
20
-134.30581016582715
30
0
0
SPLINE
5
429
100
AcDbEntity
8
0
100
AcDbSpline
70
0
71
2
72
6
73
3
74
0
42
0.000000001
43
0.0000000001
44
0.0000000001
40
-1
40
-1
40
-1
40
0
40
0
40
0
10
-84.595186551861445
20
-134.30581016582715
30
0
10
-84.347084626889398
20
-133.90923006717912
30
0
10
-83.762679361458666
20
-133.66526707575068
30
0
0
LINE
5
430
100
AcDbEntity
8
0
100
AcDbLine
10
-83.762679361458666
20
-133.66526707575068
30
0
11
-83.66078898990429
21
-133.87286113014324
31
0
0
SPLINE
5
431
100
AcDbEntity
8
0
100
AcDbSpline
70
0
71
2
72
6
73
3
74
0
42
0.000000001
43
0.0000000001
44
0.0000000001
40
-1
40
-1
40
-1
40
0
40
0
40
0
10
-83.66078898990429
20
-133.87286113014324
30
0
10
-83.843659478759804
20
-133.94109052830066
30
0
10
-83.998393357606318
20
-134.04796953507588
30
0
0
SPLINE
5
432
100
AcDbEntity
8
0
100
AcDbSpline
70
0
71
2
72
6
73
3
74
0
42
0.000000001
43
0.0000000001
44
0.0000000001
40
-1
40
-1
40
-1
40
0
40
0
40
0
10
-83.998393357606318
20
-134.04796953507588
30
0
10
-84.15312753446463
20
-134.15484854445978
30
0
10
-84.274215032143061
20
-134.2947258782994
30
0
0
SPLINE
5
433
100
AcDbEntity
8
0
100
AcDbSpline
70
0
71
2
72
6
73
3
74
0
42
0.000000001
43
0.0000000001
44
0.0000000001
40
-1
40
-1
40
-1
40
0
40
0
40
0
10
-84.274215032143061
20
-134.2947258782994
30
0
10
-84.389742743922923
20
-134.43459746102994
30
0
10
-84.458969831422323
20
-134.62401316080022
30
0
0
SPLINE
5
434
100
AcDbEntity
8
0
100
AcDbSpline
70
0
71
2
72
6
73
3
74
0
42
0.000000001
43
0.0000000001
44
0.0000000001
40
-1
40
-1
40
-1
40
0
40
0
40
0
10
-84.458969831422323
20
-134.62401316080022
30
0
10
-84.52819690848699
20
-134.81343005261775
30
0
10
-84.526228340650476
20
-135.03831691405787
30
0
0
SPLINE
5
435
100
AcDbEntity
8
0
100
AcDbSpline
70
0
71
2
72
6
73
3
74
0
42
0.000000001
43
0.0000000001
44
0.0000000001
40
-1
40
-1
40
-1
40
0
40
0
40
0
10
-84.526228340650476
20
-135.03831691405787
30
0
10
-84.523603200929657
20
-135.33820977104295
30
0
10
-84.387947406157892
20
-135.57997417480425
30
0
0
SPLINE
5
436
100
AcDbEntity
8
0
100
AcDbSpline
70
0
71
2
72
6
73
3
74
0
42
0.000000001
43
0.0000000001
44
0.0000000001
40
-1
40
-1
40
-1
40
0
40
0
40
0
10
-84.387947406157892
20
-135.57997417480425
30
0
10
-84.252291616603486
20
-135.82173798254192
30
0
10
-84.014296121278193
20
-135.99734530474814
30
0
0
SPLINE
5
437
100
AcDbEntity
8
0
100
AcDbSpline
70
0
71
2
72
6
73
3
74
0
42
0.000000001
43
0.0000000001
44
0.0000000001
40
-1
40
-1
40
-1
40
0
40
0
40
0
10
-84.014296121278193
20
-135.99734530474814
30
0
10
-83.77352098176209
20
-136.17297240421013
30
0
10
-83.456937199602891
20
-136.26599604955351
30
0
0
SPLINE
5
438
100
AcDbEntity
8
0
100
AcDbSpline
70
0
71
2
72
6
73
3
74
0
42
0.000000001
43
0.0000000001
44
0.0000000001
40
-1
40
-1
40
-1
40
0
40
0
40
0
10
-83.456937199602891
20
-136.26599604955351
30
0
10
-83.140353417443663
20
-136.35901969489694
30
0
10
-82.762066766697728
20
-136.35570832788835
30
0
0
SPLINE
5
439
100
AcDbEntity
8
0
100
AcDbSpline
70
0
71
2
72
6
73
3
74
0
42
0.000000001
43
0.0000000001
44
0.0000000001
40
-1
40
-1
40
-1
40
0
40
0
40
0
10
-82.762066766697728
20
-136.35570832788835
30
0
10
-82.333660490340876
20
-136.35195823412482
30
0
10
-81.986751840733078
20
-136.25729615136078
30
0
0
SPLINE
5
440
100
AcDbEntity
8
0
100
AcDbSpline
70
0
71
2
72
6
73
3
74
0
42
0.000000001
43
0.0000000001
44
0.0000000001
40
-1
40
-1
40
-1
40
0
40
0
40
0
10
-81.986751840733078
20
-136.25729615136078
30
0
10
-81.639843185907907
20
-136.16263466462038
30
0
10
-81.415887721955414
20
-135.9996187137445
30
0
0
SPLINE
5
441
100
AcDbEntity
8
0
100
AcDbSpline
70
0
71
2
72
6
73
3
74
0
42
0.000000001
43
0.0000000001
44
0.0000000001
40
-1
40
-1
40
-1
40
0
40
0
40
0
10
-81.415887721955414
20
-135.9996187137445
30
0
10
-81.183710012424953
20
-135.82823469639811
30
0
10
-81.066129500861891
20
-135.59537323780856
30
0
0
SPLINE
5
442
100
AcDbEntity
8
0
100
AcDbSpline
70
0
71
2
72
6
73
3
74
0
42
0.000000001
43
0.0000000001
44
0.0000000001
40
-1
40
-1
40
-1
40
0
40
0
40
0
10
-81.066129500861891
20
-135.59537323780856
30
0
10
-80.948548989298828
20
-135.36251177921895
30
0
10
-80.950906484307993
20
-135.09319433755331
30
0
0
SPLINE
5
443
100
AcDbEntity
8
0
100
AcDbSpline
70
0
71
2
72
6
73
3
74
0
42
0.000000001
43
0.0000000001
44
0.0000000001
40
-1
40
-1
40
-1
40
0
40
0
40
0
10
-80.950906484307993
20
-135.09319433755331
30
0
10
-80.952972000896551
20
-134.85723216533782
30
0
10
-81.061590530128427
20
-134.67493219567709
30
0
0
SPLINE
5
444
100
AcDbEntity
8
0
100
AcDbSpline
70
0
71
2
72
6
73
3
74
0
42
0.000000001
43
0.0000000001
44
0.0000000001
40
-1
40
-1
40
-1
40
0
40
0
40
0
10
-81.061590530128427
20
-134.67493219567709
30
0
10
-81.17020905414293
20
-134.49263282203998
30
0
10
-81.360388549008093
20
-134.36103913460099
30
0
0
SPLINE
5
445
100
AcDbEntity
8
0
100
AcDbSpline
70
0
71
2
72
6
73
3
74
0
42
0.000000001
43
0.0000000001
44
0.0000000001
40
-1
40
-1
40
-1
40
0
40
0
40
0
10
-81.360388549008093
20
-134.36103913460099
30
0
10
-81.52820970600294
20
-134.2431071500958
30
0
10
-81.769422989531364
20
-134.15637331393259
30
0
0
SPLINE
5
446
100
AcDbEntity
8
0
100
AcDbSpline
70
0
71
2
72
6
73
3
74
0
42
0.000000001
43
0.0000000001
44
0.0000000001
40
-1
40
-1
40
-1
40
0
40
0
40
0
10
-81.769422989531364
20
-134.15637331393259
30
0
10
-82.010635975047975
20
-134.0696394751607
30
0
10
-82.21671563637662
20
-134.02700883163573
30
0
0
LINE
5
447
100
AcDbEntity
8
0
100
AcDbLine
10
-82.21671563637662
20
-134.02700883163573
30
0
11
-82.218710812685586
21
-133.7990822497697
31
0
0
LINE
5
448
100
AcDbEntity
8
0
100
AcDbLine
10
-82.218710812685586
20
-133.7990822497697
30
0
11
-80.812013189101478
21
-133.81178681263762
31
0
0
LINE
5
449
100
AcDbEntity
8
0
100
AcDbLine
10
-80.812013189101478
20
-133.81178681263762
30
0
11
-80.810066669775708
21
-134.03415487828951
31
0
0
LINE
5
450
100
AcDbEntity
8
0
100
AcDbLine
10
-80.810066669775708
20
-134.03415487828951
30
0
11
-80.998082927132828
21
-134.14968688533611
31
0
0
SPLINE
5
451
100
AcDbEntity
8
0
100
AcDbSpline
70
0
71
2
72
6
73
3
74
0
42
0.000000001
43
0.0000000001
44
0.0000000001
40
-1
40
-1
40
-1
40
0
40
0
40
0
10
-80.998082927132828
20
-134.14968688533611
30
0
10
-80.865569786366663
20
-134.36235485341871
30
0
10
-80.791233856907326
20
-134.59777142603994
30
0
0
SPLINE
5
452
100
AcDbEntity
8
0
100
AcDbSpline
70
0
71
2
72
6
73
3
74
0
42
0.000000001
43
0.0000000001
44
0.0000000001
40
-1
40
-1
40
-1
40
0
40
0
40
0
10
-80.791233856907326
20
-134.59777142603994
30
0
10
-80.716897927447974
20
-134.83318799866117
30
0
10
-80.714345783636631
20
-135.12474188927783
30
0
0
SPLINE
5
453
100
AcDbEntity
8
0
100
AcDbSpline
70
0
71
2
72
6
73
3
74
0
42
0.000000001
43
0.0000000001
44
0.0000000001
40
-1
40
-1
40
-1
40
0
40
0
40
0
10
-80.714345783636631
20
-135.12474188927783
30
0
10
-80.710918085429867
20
-135.51631807852118
30
0
10
-80.858111019535073
20
-135.86197782503183
30
0
0
SPLINE
5
454
100
AcDbEntity
8
0
100
AcDbSpline
70
0
71
2
72
6
73
3
74
0
42
0.000000001
43
0.0000000001
44
0.0000000001
40
-1
40
-1
40
-1
40
0
40
0
40
0
10
-80.858111019535073
20
-135.86197782503183
30
0
10
-81.005303953640265
20
-136.20763757154248
30
0
10
-81.278445955546488
20
-136.46277443883247
30
0
0
SPLINE
5
455
100
AcDbEntity
8
0
100
AcDbSpline
70
0
71
2
72
6
73
3
74
0
42
0.000000001
43
0.0000000001
44
0.0000000001
40
-1
40
-1
40
-1
40
0
40
0
40
0
10
-81.278445955546488
20
-136.46277443883247
30
0
10
-81.554343560729009
20
-136.72067198162969
30
0
10
-81.938314852064522
20
-136.86845354421308
30
0
0
SPLINE
5
456
100
AcDbEntity
8
0
100
AcDbSpline
70
0
71
2
72
6
73
3
74
0
42
0.000000001
43
0.0000000001
44
0.0000000001
40
-1
40
-1
40
-1
40
0
40
0
40
0
10
-81.938314852064522
20
-136.86845354421308
30
0
10
-82.32228614861738
20
-137.01623451077285
30
0
10
-82.795165918899883
20
-137.02037390735811
30
0
0
SPLINE
5
457
100
AcDbEntity
8
0
100
AcDbSpline
70
0
71
2
72
6
73
3
74
0
42
0.000000001
43
0.0000000001
44
0.0000000001
40
-1
40
-1
40
-1
40
0
40
0
40
0
10
-82.795165918899883
20
-137.02037390735811
30
0
10
-83.268002179458648
20
-137.02451292307697
30
0
10
-83.646187332332573
20
-136.88062349599551
30
0
0
SPLINE
5
458
100
AcDbEntity
8
0
100
AcDbSpline
70
0
71
2
72
6
73
3
74
0
42
0.000000001
43
0.0000000001
44
0.0000000001
40
-1
40
-1
40
-1
40
0
40
0
40
0
10
-83.646187332332573
20
-136.88062349599551
30
0
10
-84.024372485206499
20
-136.73673406891407
30
0
10
-84.287992955030035
20
-136.49181182646427
30
0
0
SPLINE
5
459
100
AcDbEntity
8
0
100
AcDbSpline
70
0
71
2
72
6
73
3
74
0
42
0.000000001
43
0.0000000001
44
0.0000000001
40
-1
40
-1
40
-1
40
0
40
0
40
0
10
-84.287992955030035
20
-136.49181182646427
30
0
10
-84.55163737247878
20
-136.2441538356311
30
0
10
-84.693536327402171
20
-135.92180782928062
30
0
0
SPLINE
5
460
100
AcDbEntity
8
0
100
AcDbSpline
70
0
71
2
72
6
73
3
74
0
42
0.000000001
43
0.0000000001
44
0.0000000001
40
-1
40
-1
40
-1
40
0
40
0
40
0
10
-84.693536327402171
20
-135.92180782928062
30
0
10
-84.835435873131843
20
-135.59946242417112
30
0
10
-84.838523316801172
20
-135.24675651086829
30
0
0
SPLINE
5
461
100
AcDbEntity
8
0
100
AcDbSpline
70
0
71
3
72
8
73
4
74
0
42
0.000000001
43
0.0000000001
44
0.0000000001
40
0.10827446859731721
40
0.10827446859731721
40
0.10827446859731721
40
0.10827446859731721
40
0.12325930797460798
40
0.12325930797460798
40
0.12325930797460798
40
0.12325930797460798
10
-78.585313420786832
20
-118.15362538706904
30
0
10
-79.134359403828995
20
-117.7779982540973
30
0
10
-79.71057516617833
20
-117.39461406468783
30
0
10
-80.310455359374814
20
-117.00736468531476
30
0
0
LINE
5
462
100
AcDbEntity
8
0
100
AcDbLine
10
-78.585313420786832
20
-118.15362538706904
30
0
11
-78.585313420786775
21
-121.29239923431243
31
0
0
ARC
5
463
100
AcDbEntity
8
0
100
AcDbCircle
10
-80.085313420786775
20
-121.29239923431243
30
0
40
1.5000000000000036
210
-5.6415276467740981e-49
220
-2.5407181807812073e-33
230
1
100
AcDbArc
50
-90
51
0
0
LINE
5
464
100
AcDbEntity
8
0
100
AcDbLine
10
-80.085313420786775
20
-122.79239923431243
30
-3.8110772711718197e-33
11
-92.124508995986588
21
-122.79239923431241
31
0
0
LINE
5
465
100
AcDbEntity
8
0
100
AcDbLine
10
-92.124508995986588
20
-122.79239923431241
30
0
11
-92.124508995986588
21
-118.50736468531477
31
0
0
ARC
5
466
100
AcDbEntity
8
0
100
AcDbCircle
10
-90.624508995986588
20
-118.50736468531477
30
0
40
1.5000000000000036
210
1.2325951644078309e-32
220
-2.5407181807812172e-33
230
1
100
AcDbArc
50
90
51
180
0
LINE
5
467
100
AcDbEntity
8
0
100
AcDbLine
10
-90.624508995986588
20
-117.00736468531476
30
3.8110772711718348e-33
11
-80.310455359374814
21
-117.00736468531476
31
0
0
SPLINE
5
468
100
AcDbEntity
8
0
100
AcDbSpline
70
0
71
2
72
6
73
3
74
0
42
0.000000001
43
0.0000000001
44
0.0000000001
40
0
40
0
40
0
40
1
40
1
40
1
10
-86.796484314278445
20
-119.85112896106152
30
0
10
-86.70422554395833
20
-119.74551009292134
30
0
10
-86.661247152238857
20
-119.62081455940877
30
0
0
SPLINE
5
469
100
AcDbEntity
8
0
100
AcDbSpline
70
0
71
2
72
6
73
3
74
0
42
0.000000001
43
0.0000000001
44
0.0000000001
40
0
40
0
40
0
40
1
40
1
40
1
10
-86.661247152238857
20
-119.62081455940877
30
0
10
-86.618269062929755
20
-119.49611873232568
30
0
10
-86.620711651306323
20
-119.33143907970413
30
0
0
SPLINE
5
470
100
AcDbEntity
8
0
100
AcDbSpline
70
0
71
2
72
6
73
3
74
0
42
0.000000001
43
0.0000000001
44
0.0000000001
40
0
40
0
40
0
40
1
40
1
40
1
10
-86.620711651306323
20
-119.33143907970413
30
0
10
-86.626524388789903
20
-118.9395434992786
30
0
10
-86.920048989223432
20
-118.68952573650219
30
0
0
SPLINE
5
471
100
AcDbEntity
8
0
100
AcDbSpline
70
0
71
2
72
6
73
3
74
0
42
0.000000001
43
0.0000000001
44
0.0000000001
40
0
40
0
40
0
40
1
40
1
40
1
10
-86.920048989223432
20
-118.68952573650219
30
0
10
-87.213573887647414
20
-118.43950797814568
30
0
10
-87.642991829163265
20
-118.44587726090734
30
0
0
SPLINE
5
472
100
AcDbEntity
8
0
100
AcDbSpline
70
0
71
2
72
6
73
3
74
0
42
0.000000001
43
0.0000000001
44
0.0000000001
40
0
40
0
40
0
40
1
40
1
40
1
10
-87.642991829163265
20
-118.44587726090734
30
0
10
-87.841024062551952
20
-118.44881454686683
30
0
10
-88.038144485179672
20
-118.51324633782636
30
0
0
SPLINE
5
473
100
AcDbEntity
8
0
100
AcDbSpline
70
0
71
2
72
6
73
3
74
0
42
0.000000001
43
0.0000000001
44
0.0000000001
40
0
40
0
40
0
40
1
40
1
40
1
10
-88.038144485179672
20
-118.51324633782636
30
0
10
-88.235264912227251
20
-118.57767783079541
30
0
10
-88.377800351685195
20
-118.66736231256105
30
0
0
LINE
5
474
100
AcDbEntity
8
0
100
AcDbLine
10
-88.377800351685195
20
-118.66736231256105
30
0
11
-88.469693247907969
21
-118.51651972404656
31
0
0
LINE
5
475
100
AcDbEntity
8
0
100
AcDbLine
10
-88.469693247907969
20
-118.51651972404656
30
0
11
-88.636457343705445
21
-118.51899322964086
31
0
0
LINE
5
476
100
AcDbEntity
8
0
100
AcDbLine
10
-88.636457343705445
20
-118.51899322964086
30
0
11
-88.65061448798906
21
-119.53251822060018
31
0
0
LINE
5
477
100
AcDbEntity
8
0
100
AcDbLine
10
-88.65061448798906
20
-119.53251822060018
30
0
11
-88.481765651025214
21
-119.53001379336828
31
0
0
SPLINE
5
478
100
AcDbEntity
8
0
100
AcDbSpline
70
0
71
2
72
6
73
3
74
0
42
0.000000001
43
0.0000000001
44
0.0000000001
40
0
40
0
40
0
40
1
40
1
40
1
10
-88.481765651025214
20
-119.53001379336828
30
0
10
-88.43243458074403
20
-119.34163140161817
30
0
10
-88.364843922871842
20
-119.18946559699401
30
0
0
SPLINE
5
479
100
AcDbEntity
8
0
100
AcDbSpline
70
0
71
2
72
6
73
3
74
0
42
0.000000001
43
0.0000000001
44
0.0000000001
40
0
40
0
40
0
40
1
40
1
40
1
10
-88.364843922871842
20
-119.18946559699401
30
0
10
-88.297252971429131
20
-119.03729948995948
30
0
10
-88.184550523317682
20
-118.90427218072321
30
0
0
SPLINE
5
480
100
AcDbEntity
8
0
100
AcDbSpline
70
0
71
2
72
6
73
3
74
0
42
0.000000001
43
0.0000000001
44
0.0000000001
40
0
40
0
40
0
40
1
40
1
40
1
10
-88.184550523317682
20
-118.90427218072321
30
0
10
-88.07797802501382
20
-118.77967599624461
30
0
10
-87.93418378560888
20
-118.70456775187257
30
0
0
SPLINE
5
481
100
AcDbEntity
8
0
100
AcDbSpline
70
0
71
2
72
6
73
3
74
0
42
0.000000001
43
0.0000000001
44
0.0000000001
40
0
40
0
40
0
40
1
40
1
40
1
10
-87.93418378560888
20
-118.70456775187257
30
0
10
-87.790389546203969
20
-118.62945950750053
30
0
10
-87.598610642343075
20
-118.62661497319417
30
0
0
SPLINE
5
482
100
AcDbEntity
8
0
100
AcDbSpline
70
0
71
2
72
6
73
3
74
0
42
0.000000001
43
0.0000000001
44
0.0000000001
40
0
40
0
40
0
40
1
40
1
40
1
10
-87.598610642343075
20
-118.62661497319417
30
0
10
-87.454776613442618
20
-118.62448157467435
30
0
10
-87.346865011336718
20
-118.66046018972709
30
0
0
SPLINE
5
483
100
AcDbEntity
8
0
100
AcDbSpline
70
0
71
2
72
6
73
3
74
0
42
0.000000001
43
0.0000000001
44
0.0000000001
40
0
40
0
40
0
40
1
40
1
40
1
10
-87.346865011336718
20
-118.66046018972709
30
0
10
-87.238953413650705
20
-118.69643850678938
30
0
10
-87.171225885184143
20
-118.76433704434137
30
0
0
SPLINE
5
484
100
AcDbEntity
8
0
100
AcDbSpline
70
0
71
2
72
6
73
3
74
0
42
0.000000001
43
0.0000000001
44
0.0000000001
40
0
40
0
40
0
40
1
40
1
40
1
10
-87.171225885184143
20
-118.76433704434137
30
0
10
-87.10349835671758
20
-118.83223558189337
30
0
10
-87.069810027929137
20
-118.92464920070596
30
0
0
SPLINE
5
485
100
AcDbEntity
8
0
100
AcDbSpline
70
0
71
2
72
6
73
3
74
0
42
0.000000001
43
0.0000000001
44
0.0000000001
40
0
40
0
40
0
40
1
40
1
40
1
10
-87.069810027929137
20
-118.92464920070596
30
0
10
-87.036121699140722
20
-119.01706281951854
30
0
10
-87.034325990008711
20
-119.13812978229642
30
0
0
SPLINE
5
486
100
AcDbEntity
8
0
100
AcDbSpline
70
0
71
2
72
6
73
3
74
0
42
0.000000001
43
0.0000000001
44
0.0000000001
40
0
40
0
40
0
40
1
40
1
40
1
10
-87.034325990008711
20
-119.13812978229642
30
0
10
-87.031694508260685
20
-119.31554465264631
30
0
10
-87.129477469353404
20
-119.47045510004037
30
0
0
SPLINE
5
487
100
AcDbEntity
8
0
100
AcDbSpline
70
0
71
2
72
6
73
3
74
0
42
0.000000001
43
0.0000000001
44
0.0000000001
40
0
40
0
40
0
40
1
40
1
40
1
10
-87.129477469353404
20
-119.47045510004037
30
0
10
-87.227260132455683
20
-119.62536554301451
30
0
10
-87.424116004384516
20
-119.70761328440179
30
0
0
SPLINE
5
488
100
AcDbEntity
8
0
100
AcDbSpline
70
0
71
2
72
6
73
3
74
0
42
0.000000001
43
0.0000000001
44
0.0000000001
40
0
40
0
40
0
40
1
40
1
40
1
10
-87.424116004384516
20
-119.70761328440179
30
0
10
-87.558811451956586
20
-119.76359354941766
30
0
10
-87.732944079341223
20
-119.83157728652944
30
0
0
SPLINE
5
489
100
AcDbEntity
8
0
100
AcDbSpline
70
0
71
2
72
6
73
3
74
0
42
0.000000001
43
0.0000000001
44
0.0000000001
40
0
40
0
40
0
40
1
40
1
40
1
10
-87.732944079341223
20
-119.83157728652944
30
0
10
-87.907076706725832
20
-119.89956102364121
30
0
10
-88.033371951177855
20
-119.9595864972983
30
0
0
SPLINE
5
490
100
AcDbEntity
8
0
100
AcDbSpline
70
0
71
2
72
6
73
3
74
0
42
0.000000001
43
0.0000000001
44
0.0000000001
40
0
40
0
40
0
40
1
40
1
40
1
10
-88.033371951177855
20
-119.9595864972983
30
0
10
-88.281849109694036
20
-120.07583001925498
30
0
10
-88.417767208536603
20
-120.26023556567559
30
0
0
SPLINE
5
491
100
AcDbEntity
8
0
100
AcDbSpline
70
0
71
2
72
6
73
3
74
0
42
0.000000001
43
0.0000000001
44
0.0000000001
40
0
40
0
40
0
40
1
40
1
40
1
10
-88.417767208536603
20
-120.26023556567559
30
0
10
-88.553685009388715
20
-120.44464110767628
30
0
10
-88.549326901584138
20
-120.7384653501193
30
0
0
SPLINE
5
492
100
AcDbEntity
8
0
100
AcDbSpline
70
0
71
2
72
6
73
3
74
0
42
0.000000001
43
0.0000000001
44
0.0000000001
40
0
40
0
40
0
40
1
40
1
40
1
10
-88.549326901584138
20
-120.7384653501193
30
0
10
-88.546822960541519
20
-120.907281408134
30
0
10
-88.475869166766927
20
-121.05213083754893
30
0
0
SPLINE
5
493
100
AcDbEntity
8
0
100
AcDbSpline
70
0
71
2
72
6
73
3
74
0
42
0.000000001
43
0.0000000001
44
0.0000000001
40
0
40
0
40
0
40
1
40
1
40
1
10
-88.475869166766927
20
-121.05213083754893
30
0
10
-88.404915375202307
20
-121.19698011796864
30
0
10
-88.276057732077703
20
-121.30971192397669
30
0
0
SPLINE
5
494
100
AcDbEntity
8
0
100
AcDbSpline
70
0
71
2
72
6
73
3
74
0
42
0.000000001
43
0.0000000001
44
0.0000000001
40
0
40
0
40
0
40
1
40
1
40
1
10
-88.276057732077703
20
-121.30971192397669
30
0
10
-88.153546472544392
20
-121.41628285853956
30
0
10
-87.987954954266044
20
-121.47531838126854
30
0
0
SPLINE
5
495
100
AcDbEntity
8
0
100
AcDbSpline
70
0
71
2
72
6
73
3
74
0
42
0.000000001
43
0.0000000001
44
0.0000000001
40
0
40
0
40
0
40
1
40
1
40
1
10
-87.987954954266044
20
-121.47531838126854
30
0
10
-87.822363440407599
20
-121.53435360600707
30
0
10
-87.643092089573628
20
-121.5316945882667
30
0
0
SPLINE
5
496
100
AcDbEntity
8
0
100
AcDbSpline
70
0
71
2
72
6
73
3
74
0
42
0.000000001
43
0.0000000001
44
0.0000000001
40
0
40
0
40
0
40
1
40
1
40
1
10
-87.643092089573628
20
-121.5316945882667
30
0
10
-87.438805930676239
20
-121.52866454181427
30
0
10
-87.278180656964167
20
-121.46373175830135
30
0
0
SPLINE
5
497
100
AcDbEntity
8
0
100
AcDbSpline
70
0
71
2
72
6
73
3
74
0
42
0.000000001
43
0.0000000001
44
0.0000000001
40
0
40
0
40
0
40
1
40
1
40
1
10
-87.278180656964167
20
-121.46373175830135
30
0
10
-87.117555383252068
20
-121.39879897478846
30
0
10
-86.985380916799357
20
-121.3134382722935
30
0
0
LINE
5
498
100
AcDbEntity
8
0
100
AcDbLine
10
-86.985380916799357
20
-121.3134382722935
30
0
11
-86.897811795427359
21
-121.45392018579321
31
0
0
LINE
5
499
100
AcDbEntity
8
0
100
AcDbLine
10
-86.897811795427359
20
-121.45392018579321
30
0
11
-86.731047699629883
21
-121.45144668019893
31
0
0
LINE
5
500
100
AcDbEntity
8
0
100
AcDbLine
10
-86.731047699629883
20
-121.45144668019893
30
0
11
-86.728934030017527
21
-120.46937533897689
31
0
0
LINE
5
501
100
AcDbEntity
8
0
100
AcDbLine
10
-86.728934030017527
20
-120.46937533897689
30
0
11
-86.897782866981373
21
-120.47187976620877
31
0
0
SPLINE
5
502
100
AcDbEntity
8
0
100
AcDbSpline
70
0
71
2
72
6
73
3
74
0
42
0.000000001
43
0.0000000001
44
0.0000000001
40
0
40
0
40
0
40
1
40
1
40
1
10
-86.897782866981373
20
-120.47187976620877
30
0
10
-86.941138575753513
20
-120.64140866832633
30
0
10
-86.996175600552675
20
-120.79651577456355
30
0
0
SPLINE
5
503
100
AcDbEntity
8
0
100
AcDbSpline
70
0
71
2
72
6
73
3
74
0
42
0.000000001
43
0.0000000001
44
0.0000000001
40
0
40
0
40
0
40
1
40
1
40
1
10
-86.996175600552675
20
-120.79651577456355
30
0
10
-87.051212625351852
20
-120.95162288080076
30
0
10
-87.141077764849243
20
-121.0780563064491
30
0
0
SPLINE
5
504
100
AcDbEntity
8
0
100
AcDbSpline
70
0
71
2
72
6
73
3
74
0
42
0.000000001
43
0.0000000001
44
0.0000000001
40
0
40
0
40
0
40
1
40
1
40
1
10
-87.141077764849243
20
-121.0780563064491
30
0
10
-87.228920595806571
20
-121.20028978395254
30
0
10
-87.357095929244238
20
-121.27412376313887
30
0
0
SPLINE
5
505
100
AcDbEntity
8
0
100
AcDbSpline
70
0
71
2
72
6
73
3
74
0
42
0.000000001
43
0.0000000001
44
0.0000000001
40
0
40
0
40
0
40
1
40
1
40
1
10
-87.357095929244238
20
-121.27412376313887
30
0
10
-87.48527126268192
20
-121.34795774232522
30
0
10
-87.67288128019095
20
-121.35074044219614
30
0
0
SPLINE
5
506
100
AcDbEntity
8
0
100
AcDbSpline
70
0
71
2
72
6
73
3
74
0
42
0.000000001
43
0.0000000001
44
0.0000000001
40
0
40
0
40
0
40
1
40
1
40
1
10
-87.67288128019095
20
-121.35074044219614
30
0
10
-87.870913513579637
20
-121.35367772815565
30
0
10
-88.012464703646614
20
-121.22859170271838
30
0
0
SPLINE
5
507
100
AcDbEntity
8
0
100
AcDbSpline
70
0
71
2
72
6
73
3
74
0
42
0.000000001
43
0.0000000001
44
0.0000000001
40
0
40
0
40
0
40
1
40
1
40
1
10
-88.012464703646614
20
-121.22859170271838
30
0
10
-88.154015595723166
20
-121.1035056728612
30
0
10
-88.156736452318853
20
-120.92006513768494
30
0
0
SPLINE
5
508
100
AcDbEntity
8
0
100
AcDbSpline
70
0
71
2
72
6
73
3
74
0
42
0.000000001
43
0.0000000001
44
0.0000000001
40
0
40
0
40
0
40
1
40
1
40
1
10
-88.156736452318853
20
-120.92006513768494
30
0
10
-88.159580984415257
20
-120.72828638281926
30
0
10
-88.071815748912599
20
-120.60084150380544
30
0
0
SPLINE
5
509
100
AcDbEntity
8
0
100
AcDbSpline
70
0
71
2
72
6
73
3
74
0
42
0.000000001
43
0.0000000001
44
0.0000000001
40
0
40
0
40
0
40
1
40
1
40
1
10
-88.071815748912599
20
-120.60084150380544
30
0
10
-87.98405081140038
20
-120.47339662921152
30
0
10
-87.81432336684
20
-120.38956368003909
30
0
0
SPLINE
5
510
100
AcDbEntity
8
0
100
AcDbSpline
70
0
71
2
72
6
73
3
74
0
42
0.000000001
43
0.0000000001
44
0.0000000001
40
0
40
0
40
0
40
1
40
1
40
1
10
-87.81432336684
20
-120.38956368003909
30
0
10
-87.663233129333662
20
-120.3143472187752
30
0
10
-87.517060715504925
20
-120.2590114593186
30
0
0
SPLINE
5
511
100
AcDbEntity
8
0
100
AcDbSpline
70
0
71
2
72
6
73
3
74
0
42
0.000000001
43
0.0000000001
44
0.0000000001
40
0
40
0
40
0
40
1
40
1
40
1
10
-87.517060715504925
20
-120.2590114593186
30
0
10
-87.370888005895665
20
-120.20367554644686
30
0
10
-87.234204250236132
20
-120.14118292299838
30
0
0
SPLINE
5
512
100
AcDbEntity
8
0
100
AcDbSpline
70
0
71
2
72
6
73
3
74
0
42
0.000000001
43
0.0000000001
44
0.0000000001
40
0
40
0
40
0
40
1
40
1
40
1
10
-87.234204250236132
20
-120.14118292299838
30
0
10
-87.109934993540051
20
-120.08512943921423
30
0
10
-86.995262907685515
20
-120.0146232467519
30
0
0
SPLINE
5
513
100
AcDbEntity
8
0
100
AcDbSpline
70
0
71
2
72
6
73
3
74
0
42
0.000000001
43
0.0000000001
44
0.0000000001
40
0
40
0
40
0
40
1
40
1
40
1
10
-86.995262907685515
20
-120.0146232467519
30
0
10
-86.880590523840539
20
-119.94411704986967
30
0
10
-86.796484314278445
20
-119.85112896106152
30
0
0
LINE
5
514
100
AcDbEntity
8
0
100
AcDbLine
10
-88.860856275068144
20
-120.68030742479812
30
0
11
-89.004690303968573
21
-120.68244082331793
31
0
0
SPLINE
5
515
100
AcDbEntity
8
0
100
AcDbSpline
70
0
71
2
72
6
73
3
74
0
42
0.000000001
43
0.0000000001
44
0.0000000001
40
0
40
0
40
0
40
1
40
1
40
1
10
-89.004690303968601
20
-120.68244082331793
30
0
10
-89.022370736970871
20
-120.75776355272096
30
0
10
-89.069941184034903
20
-120.86167713655576
30
0
0
SPLINE
5
516
100
AcDbEntity
8
0
100
AcDbSpline
70
0
71
2
72
6
73
3
74
0
42
0.000000001
43
0.0000000001
44
0.0000000001
40
0
40
0
40
0
40
1
40
1
40
1
10
-89.069941184034903
20
-120.86167713655576
30
0
10
-89.117511780094176
20
-120.9655907226005
30
0
10
-89.176733554623326
20
-121.05820956740868
30
0
0
SPLINE
5
517
100
AcDbEntity
8
0
100
AcDbSpline
70
0
71
2
72
6
73
3
74
0
42
0.000000001
43
0.0000000001
44
0.0000000001
40
0
40
0
40
0
40
1
40
1
40
1
10
-89.176733554623326
20
-121.05820956740868
30
0
10
-89.238010712422223
20
-121.15502899996616
30
0
10
-89.311108471562918
20
-121.22804604858067
30
0
0
SPLINE
5
518
100
AcDbEntity
8
0
100
AcDbSpline
70
0
71
2
72
6
73
3
74
0
42
0.000000001
43
0.0000000001
44
0.0000000001
40
0
40
0
40
0
40
1
40
1
40
1
10
-89.311108471562918
20
-121.22804604858067
30
0
10
-89.384206230703626
20
-121.30106309719515
30
0
10
-89.453004688245557
20
-121.31250864575578
30
0
0
SPLINE
5
519
100
AcDbEntity
8
0
100
AcDbSpline
70
0
71
2
72
6
73
3
74
0
42
0.000000001
43
0.0000000001
44
0.0000000001
40
0
40
0
40
0
40
1
40
1
40
1
10
-89.453004688245557
20
-121.31250864575578
30
0
10
-89.517632402124093
20
-121.32180713252535
30
0
10
-89.615772570062248
20
-121.32743288467388
30
0
0
SPLINE
5
520
100
AcDbEntity
8
0
100
AcDbSpline
70
0
71
2
72
6
73
3
74
0
42
0.000000001
43
0.0000000001
44
0.0000000001
40
0
40
0
40
0
40
1
40
1
40
1
10
-89.615772570062248
20
-121.32743288467388
30
0
10
-89.713912589005162
20
-121.33305863461246
30
0
10
-89.797490118637043
20
-121.33429828686562
30
0
0
LINE
5
521
100
AcDbEntity
8
0
100
AcDbLine
10
-89.797490118637043
20
-121.33429828686562
30
0
11
-89.918654673286284
21
-121.33609544351569
31
0
0
LINE
5
522
100
AcDbEntity
8
0
100
AcDbLine
10
-89.918654673286284
20
-121.33609544351569
30
0
11
-89.953747549650998
21
-118.97012877279791
31
0
0
SPLINE
5
523
100
AcDbEntity
8
0
100
AcDbSpline
70
0
71
2
72
6
73
3
74
0
42
0.000000001
43
0.0000000001
44
0.0000000001
40
0
40
0
40
0
40
1
40
1
40
1
10
-89.953747549650998
20
-118.97012877279791
30
0
10
-89.954767870874392
20
-118.90133857210682
30
0
10
-89.926434441935314
20
-118.84358069071195
30
0
0
SPLINE
5
524
100
AcDbEntity
8
0
100
AcDbSpline
70
0
71
2
72
6
73
3
74
0
42
0.000000001
43
0.0000000001
44
0.0000000001
40
0
40
0
40
0
40
1
40
1
40
1
10
-89.926434441935314
20
-118.84358069071195
30
0
10
-89.898101017416124
20
-118.78582251132663
30
0
10
-89.825605412747947
20
-118.75347221365669
30
0
0
SPLINE
5
525
100
AcDbEntity
8
0
100
AcDbSpline
70
0
71
2
72
6
73
3
74
0
42
0.000000001
43
0.0000000001
44
0.0000000001
40
0
40
0
40
0
40
1
40
1
40
1
10
-89.825605412747947
20
-118.75347221365669
30
0
10
-89.788299932426966
20
-118.73832367880561
30
0
10
-89.6688092163037
20
-118.71153133589615
30
0
0
SPLINE
5
526
100
AcDbEntity
8
0
100
AcDbSpline
70
0
71
2
72
6
73
3
74
0
42
0.000000001
43
0.0000000001
44
0.0000000001
40
0
40
0
40
0
40
1
40
1
40
1
10
-89.6688092163037
20
-118.71153133589615
30
0
10
-89.549318504600336
20
-118.68473869499624
30
0
10
-89.482643813298083
20
-118.68166485002459
30
0
0
LINE
5
527
100
AcDbEntity
8
0
100
AcDbLine
10
-89.482643813298083
20
-118.68166485002459
30
0
11
-89.48483905067323
21
-118.53366163678183
31
0
0
LINE
5
528
100
AcDbEntity
8
0
100
AcDbLine
10
-89.48483905067323
20
-118.53366163678183
30
0
11
-90.881488874460445
21
-118.55437725386875
31
0
0
LINE
5
529
100
AcDbEntity
8
0
100
AcDbLine
10
-90.881488874460445
20
-118.55437725386875
30
0
11
-90.879293637085311
21
-118.70238046711151
31
0
0
SPLINE
5
530
100
AcDbEntity
8
0
100
AcDbSpline
70
0
71
2
72
6
73
3
74
0
42
0.000000001
43
0.0000000001
44
0.0000000001
40
0
40
0
40
0
40
1
40
1
40
1
10
-90.879293637085311
20
-118.70238046711151
30
0
10
-90.820864372150609
20
-118.70568392460632
30
0
10
-90.700817119589075
20
-118.71641334680631
30
0
0
SPLINE
5
531
100
AcDbEntity
8
0
100
AcDbSpline
70
0
71
2
72
6
73
3
74
0
42
0.000000001
43
0.0000000001
44
0.0000000001
40
0
40
0
40
0
40
1
40
1
40
1
10
-90.700817119589075
20
-118.71641334680631
30
0
10
-90.580769867027527
20
-118.72714276900629
30
0
10
-90.534631465014343
20
-118.74522343741208
30
0
0
SPLINE
5
532
100
AcDbEntity
8
0
100
AcDbSpline
70
0
71
2
72
6
73
3
74
0
42
0.000000001
43
0.0000000001
44
0.0000000001
40
0
40
0
40
0
40
1
40
1
40
1
10
-90.534631465014343
20
-118.74522343741208
30
0
10
-90.46543924389583
20
-118.77130236632308
30
0
10
-90.432371226318281
20
-118.82189451586817
30
0
0
SPLINE
5
533
100
AcDbEntity
8
0
100
AcDbSpline
70
0
71
2
72
6
73
3
74
0
42
0.000000001
43
0.0000000001
44
0.0000000001
40
0
40
0
40
0
40
1
40
1
40
1
10
-90.432371226318281
20
-118.82189451586817
30
0
10
-90.399303129823195
20
-118.87248696229874
30
0
10
-90.398035457598397
20
-118.95795360236862
30
0
0
LINE
5
534
100
AcDbEntity
8
0
100
AcDbLine
10
-90.398035457598411
20
-118.95795360236862
30
0
11
-90.362664313014548
21
-121.34268115564112
31
0
0
LINE
5
535
100
AcDbEntity
8
0
100
AcDbLine
10
-90.362664313014548
20
-121.34268115564112
30
0
11
-90.483568349515565
21
-121.34447444819145
31
0
0
SPLINE
5
536
100
AcDbEntity
8
0
100
AcDbSpline
70
0
71
2
72
6
73
3
74
0
42
0.000000001
43
0.0000000001
44
0.0000000001
40
0
40
0
40
0
40
1
40
1
40
1
10
-90.483568349515565
20
-121.34447444819145
30
0
10
-90.54818944036198
20
-121.34543293166448
30
0
10
-90.644125195831322
20
-121.34372838395356
30
0
0
SPLINE
5
537
100
AcDbEntity
8
0
100
AcDbSpline
70
0
71
2
72
6
73
3
74
0
42
0.000000001
43
0.0000000001
44
0.0000000001
40
0
40
0
40
0
40
1
40
1
40
1
10
-90.644125195831322
20
-121.34372838395356
30
0
10
-90.740060951300677
20
-121.34202383624263
30
0
10
-90.827766778470107
20
-121.33289961603455
30
0
0
SPLINE
5
538
100
AcDbEntity
8
0
100
AcDbSpline
70
0
71
2
72
6
73
3
74
0
42
0.000000001
43
0.0000000001
44
0.0000000001
40
0
40
0
40
0
40
1
40
1
40
1
10
-90.827766778470107
20
-121.33289961603455
30
0
10
-90.896680656871865
20
-121.32558156857331
30
0
10
-90.971779879970867
20
-121.25267772963474
30
0
0
SPLINE
5
539
100
AcDbEntity
8
0
100
AcDbSpline
70
0
71
2
72
6
73
3
74
0
42
0.000000001
43
0.0000000001
44
0.0000000001
40
0
40
0
40
0
40
1
40
1
40
1
10
-90.971779879970867
20
-121.25267772963474
30
0
10
-91.04687907024099
20
-121.17977359215323
30
0
10
-91.110806988929397
20
-121.0868964465395
30
0
0
SPLINE
5
540
100
AcDbEntity
8
0
100
AcDbSpline
70
0
71
2
72
6
73
3
74
0
42
0.000000001
43
0.0000000001
44
0.0000000001
40
0
40
0
40
0
40
1
40
1
40
1
10
-91.110806988929397
20
-121.0868964465395
30
0
10
-91.174734909827762
20
-120.99401915193054
30
0
10
-91.224240999806923
20
-120.88946039174684
30
0
0
SPLINE
5
541
100
AcDbEntity
8
0
100
AcDbSpline
70
0
71
2
72
6
73
3
74
0
42
0.000000001
43
0.0000000001
44
0.0000000001
40
0
40
0
40
0
40
1
40
1
40
1
10
-91.224240999806923
20
-120.88946039174684
30
0
10
-91.273747089786099
20
-120.78490163156312
30
0
10
-91.293528386686219
20
-120.71638970047238
30
0
0
LINE
5
542
100
AcDbEntity
8
0
100
AcDbLine
10
-91.293528386686233
20
-120.71638970047235
30
0
11
-91.439447033366378
21
-120.71855401879969
31
0
0
LINE
5
543
100
AcDbEntity
8
0
100
AcDbLine
10
-91.439447033366378
20
-120.71855401879969
30
0
11
-91.427543283550264
21
-121.52110650919113
31
0
0
LINE
5
544
100
AcDbEntity
8
0
100
AcDbLine
10
-91.427543283550264
20
-121.52110650919113
30
0
11
-88.848952525252031
21
-121.48285991518955
31
0
0
LINE
5
545
100
AcDbEntity
8
0
100
AcDbLine
10
-88.848952525252031
20
-121.48285991518955
30
0
11
-88.860856275068144
21
-120.68030742479812
31
0
0
LINE
5
546
100
AcDbEntity
8
0
100
AcDbLine
10
-79.504004683997508
20
-118.38562227900832
30
0
11
-80.811018199138033
21
-118.40500837783276
31
0
0
LINE
5
547
100
AcDbEntity
8
0
100
AcDbLine
10
-80.811018199138033
20
-118.40500837783276
30
0
11
-80.8088229617629
21
-118.55301159107552
31
0
0
SPLINE
5
548
100
AcDbEntity
8
0
100
AcDbSpline
70
0
71
2
72
6
73
3
74
0
42
0.000000001
43
0.0000000001
44
0.0000000001
40
0
40
0
40
0
40
1
40
1
40
1
10
-80.8088229617629
20
-118.55301159107552
30
0
10
-80.73791680469725
20
-118.55404478697054
30
0
10
-80.626207771825108
20
-118.56489788467124
30
0
0
SPLINE
5
549
100
AcDbEntity
8
0
100
AcDbSpline
70
0
71
2
72
6
73
3
74
0
42
0.000000001
43
0.0000000001
44
0.0000000001
40
0
40
0
40
0
40
1
40
1
40
1
10
-80.626207771825108
20
-118.56489788467124
30
0
10
-80.514498734533063
20
-118.57575128036238
30
0
10
-80.472468571978183
20
-118.59806298522554
30
0
0
SPLINE
5
550
100
AcDbEntity
8
0
100
AcDbSpline
70
0
71
2
72
6
73
3
74
0
42
0.000000001
43
0.0000000001
44
0.0000000001
40
0
40
0
40
0
40
1
40
1
40
1
10
-80.472468571978183
20
-118.59806298522554
30
0
10
-80.407260097553518
20
-118.63671100913329
30
0
10
-80.376275629180554
20
-118.68733406263641
30
0
0
SPLINE
5
551
100
AcDbEntity
8
0
100
AcDbSpline
70
0
71
2
72
6
73
3
74
0
42
0.000000001
43
0.0000000001
44
0.0000000001
40
0
40
0
40
0
40
1
40
1
40
1
10
-80.376275629180554
20
-118.68733406263641
30
0
10
-80.345292352769363
20
-118.73795713381911
30
0
10
-80.344148353835308
20
-118.81508570319482
30
0
0
LINE
5
552
100
AcDbEntity
8
0
100
AcDbLine
10
-80.344148353835308
20
-118.81508570319482
30
0
11
-80.31224011885142
21
-120.96634340315467
31
0
0
LINE
5
553
100
AcDbEntity
8
0
100
AcDbLine
10
-80.31224011885142
20
-120.96634340315467
30
0
11
-80.343508852423525
21
-120.9668071923597
31
0
0
LINE
5
554
100
AcDbEntity
8
0
100
AcDbLine
10
-80.343508852423525
20
-120.9668071923597
30
0
11
-81.389812665705946
21
-118.46154839215725
31
0
0
LINE
5
555
100
AcDbEntity
8
0
100
AcDbLine
10
-81.389812665705946
20
-118.46154839215725
30
0
11
-81.494040188330587
21
-118.46309433260119
31
0
0
LINE
5
556
100
AcDbEntity
8
0
100
AcDbLine
10
-81.494040188330587
20
-118.46309433260119
30
0
11
-82.416865012785649
21
-121.04968518972186
31
0
0
LINE
5
557
100
AcDbEntity
8
0
100
AcDbLine
10
-82.416865012785649
20
-121.04968518972186
30
0
11
-82.443963668044105
21
-121.05008712681185
31
0
0
LINE
5
558
100
AcDbEntity
8
0
100
AcDbLine
10
-82.443963668044105
20
-121.05008712681185
30
0
11
-82.470151917197597
21
-119.28447167774975
31
0
0
SPLINE
5
559
100
AcDbEntity
8
0
100
AcDbSpline
70
0
71
2
72
6
73
3
74
0
42
0.000000001
43
0.0000000001
44
0.0000000001
40
0
40
0
40
0
40
1
40
1
40
1
10
-82.470151917197597
20
-119.28447167774975
30
0
10
-82.473954933872008
20
-119.02807175754006
30
0
10
-82.443623233708948
20
-118.89418100132568
30
0
0
SPLINE
5
560
100
AcDbEntity
8
0
100
AcDbSpline
70
0
71
2
72
6
73
3
74
0
42
0.000000001
43
0.0000000001
44
0.0000000001
40
0
40
0
40
0
40
1
40
1
40
1
10
-82.443623233708948
20
-118.89418100132568
30
0
10
-82.413291529125999
20
-118.76029054310175
30
0
10
-82.347451497905823
20
-118.70093375026553
30
0
0
SPLINE
5
561
100
AcDbEntity
8
0
100
AcDbSpline
70
0
71
2
72
6
73
3
74
0
42
0.000000001
43
0.0000000001
44
0.0000000001
40
0
40
0
40
0
40
1
40
1
40
1
10
-82.347451497905823
20
-118.70093375026553
30
0
10
-82.302240661042973
20
-118.65647784549847
30
0
10
-82.158994090218414
20
-118.61473794070281
30
0
0
SPLINE
5
562
100
AcDbEntity
8
0
100
AcDbSpline
70
0
71
2
72
6
73
3
74
0
42
0.000000001
43
0.0000000001
44
0.0000000001
40
0
40
0
40
0
40
1
40
1
40
1
10
-82.158994090218414
20
-118.61473794070281
30
0
10
-82.015747519393841
20
-118.57299803590718
30
0
10
-81.972003043983861
20
-118.57026430021995
30
0
0
LINE
5
563
100
AcDbEntity
8
0
100
AcDbLine
10
-81.972003043983861
20
-118.57026430021992
30
0
11
-81.974198281359008
21
-118.42226108697717
31
0
0
LINE
5
564
100
AcDbEntity
8
0
100
AcDbLine
10
-81.974198281359008
20
-118.42226108697717
30
0
11
-83.168646501171182
21
-118.43997757648683
31
0
0
LINE
5
565
100
AcDbEntity
8
0
100
AcDbLine
10
-83.168646501171182
20
-118.43997757648683
30
0
11
-83.166451263796034
21
-118.58798078972958
31
0
0
SPLINE
5
566
100
AcDbEntity
8
0
100
AcDbSpline
70
0
71
2
72
6
73
3
74
0
42
0.000000001
43
0.0000000001
44
0.0000000001
40
0
40
0
40
0
40
1
40
1
40
1
10
-83.166451263796034
20
-118.58798078972958
30
0
10
-83.072522581750761
20
-118.5949275104883
30
0
10
-82.968997322634849
20
-118.61632709776019
30
0
0
SPLINE
5
567
100
AcDbEntity
8
0
100
AcDbSpline
70
0
71
2
72
6
73
3
74
0
42
0.000000001
43
0.0000000001
44
0.0000000001
40
0
40
0
40
0
40
1
40
1
40
1
10
-82.968997322634849
20
-118.61632709776019
30
0
10
-82.865472063518965
20
-118.63772668503211
30
0
10
-82.808508605724981
20
-118.68275200532898
30
0
0
SPLINE
5
568
100
AcDbEntity
8
0
100
AcDbSpline
70
0
71
2
72
6
73
3
74
0
42
0.000000001
43
0.0000000001
44
0.0000000001
40
0
40
0
40
0
40
1
40
1
40
1
10
-82.808508605724981
20
-118.68275200532898
30
0
10
-82.734683489976661
20
-118.74003753207126
30
0
10
-82.705790947291945
20
-118.86053954814487
30
0
0
SPLINE
5
569
100
AcDbEntity
8
0
100
AcDbSpline
70
0
71
2
72
6
73
3
74
0
42
0.000000001
43
0.0000000001
44
0.0000000001
40
0
40
0
40
0
40
1
40
1
40
1
10
-82.705790947291945
20
-118.86053954814487
30
0
10
-82.676899000588136
20
-118.98104157305831
30
0
10
-82.672694037983945
20
-119.26454074450734
30
0
0
LINE
5
570
100
AcDbEntity
8
0
100
AcDbLine
10
-82.672694037983959
20
-119.26454074450734
30
0
11
-82.650246966649533
21
-120.77792545770207
31
0
0
SPLINE
5
571
100
AcDbEntity
8
0
100
AcDbSpline
70
0
71
2
72
6
73
3
74
0
42
0.000000001
43
0.0000000001
44
0.0000000001
40
0
40
0
40
0
40
1
40
1
40
1
10
-82.650246966649533
20
-120.77792545770207
30
0
10
-82.648299080275805
20
-120.90925223156603
30
0
10
-82.678330462859932
20
-120.99309820882522
30
0
0
SPLINE
5
572
100
AcDbEntity
8
0
100
AcDbSpline
70
0
71
2
72
6
73
3
74
0
42
0.000000001
43
0.0000000001
44
0.0000000001
40
0
40
0
40
0
40
1
40
1
40
1
10
-82.678330462859932
20
-120.99309820882522
30
0
10
-82.708361849863948
20
-121.07694388809395
30
0
10
-82.765956268472536
20
-121.12992337570128
30
0
0
SPLINE
5
573
100
AcDbEntity
8
0
100
AcDbSpline
70
0
71
2
72
6
73
3
74
0
42
0.000000001
43
0.0000000001
44
0.0000000001
40
0
40
0
40
0
40
1
40
1
40
1
10
-82.765956268472536
20
-121.12992337570128
30
0
10
-82.829742475744027
20
-121.18716480372396
30
0
10
-82.923145538568747
20
-121.21565540489877
30
0
0
SPLINE
5
574
100
AcDbEntity
8
0
100
AcDbSpline
70
0
71
2
72
6
73
3
74
0
42
0.000000001
43
0.0000000001
44
0.0000000001
40
0
40
0
40
0
40
1
40
1
40
1
10
-82.923145538568747
20
-121.21565540489877
30
0
10
-83.016548601393495
20
-121.24414600607358
30
0
10
-83.108207034546183
20
-121.2496753207233
30
0
0
LINE
5
575
100
AcDbEntity
8
0
100
AcDbLine
10
-83.108207034546183
20
-121.24967532072327
30
0
11
-83.10601179717105
21
-121.39767853396604
31
0
0
LINE
5
576
100
AcDbEntity
8
0
100
AcDbLine
10
-83.10601179717105
20
-121.39767853396604
30
0
11
-82.097447038218675
21
-121.38271913541247
31
0
0
LINE
5
577
100
AcDbEntity
8
0
100
AcDbLine
10
-82.097447038218675
20
-121.38271913541247
30
0
11
-81.283073534971223
21
-119.14987573025222
31
0
0
LINE
5
578
100
AcDbEntity
8
0
100
AcDbLine
10
-81.283073534971223
20
-119.14987573025222
30
0
11
-80.532185226265
21
-120.9964829090186
31
0
0
SPLINE
5
579
100
AcDbEntity
8
0
100
AcDbSpline
70
0
71
2
72
6
73
3
74
0
42
0.000000001
43
0.0000000001
44
0.0000000001
40
0
40
0
40
0
40
1
40
1
40
1
10
-80.532185226265
20
-120.9964829090186
30
0
10
-80.49109491619248
20
-121.09810396965828
30
0
10
-80.461315452521433
20
-121.20927559989795
30
0
0
SPLINE
5
580
100
AcDbEntity
8
0
100
AcDbSpline
70
0
71
2
72
6
73
3
74
0
42
0.000000001
43
0.0000000001
44
0.0000000001
40
0
40
0
40
0
40
1
40
1
40
1
10
-80.461315452521433
20
-121.20927559989795
30
0
10
-80.431534801308516
20
-121.32044691446754
30
0
10
-80.428893037514598
20
-121.35797053688854
30
0
0
LINE
5
581
100
AcDbEntity
8
0
100
AcDbLine
10
-80.428893037514598
20
-121.35797053688854
30
0
11
-79.464299152923076
21
-121.34366333030229
31
0
0
LINE
5
582
100
AcDbEntity
8
0
100
AcDbLine
10
-79.464299152923076
20
-121.34366333030229
30
0
11
-79.466494390298209
21
-121.19566011705955
31
0
0
SPLINE
5
583
100
AcDbEntity
8
0
100
AcDbSpline
70
0
71
2
72
6
73
3
74
0
42
0.000000001
43
0.0000000001
44
0.0000000001
40
0
40
0
40
0
40
1
40
1
40
1
10
-79.466494390298209
20
-121.19566011705953
30
0
10
-79.524893292327391
20
-121.19444140901842
30
0
10
-79.615817944352841
20
-121.17910992827886
30
0
0
SPLINE
5
584
100
AcDbEntity
8
0
100
AcDbSpline
70
0
71
2
72
6
73
3
74
0
42
0.000000001
43
0.0000000001
44
0.0000000001
40
0
40
0
40
0
40
1
40
1
40
1
10
-79.615817944352841
20
-121.17910992827886
30
0
10
-79.706743788340106
20
-121.16377846521893
30
0
10
-79.748651465146111
20
-121.14980514672
30
0
0
SPLINE
5
585
100
AcDbEntity
8
0
100
AcDbSpline
70
0
71
2
72
6
73
3
74
0
42
0.000000001
43
0.0000000001
44
0.0000000001
40
0
40
0
40
0
40
1
40
1
40
1
10
-79.748651465146111
20
-121.14980514672
30
0
10
-79.819896541744342
20
-121.12584156825788
30
0
10
-79.84577797007411
20
-121.06784522139911
30
0
0
SPLINE
5
586
100
AcDbEntity
8
0
100
AcDbSpline
70
0
71
2
72
6
73
3
74
0
42
0.000000001
43
0.0000000001
44
0.0000000001
40
0
40
0
40
0
40
1
40
1
40
1
10
-79.84577797007411
20
-121.06784522139911
30
0
10
-79.871658206442092
20
-121.00984885686074
30
0
10
-79.872678527665485
20
-120.94105865616964
30
0
0
LINE
5
587
100
AcDbEntity
8
0
100
AcDbLine
10
-79.872678527665485
20
-120.94105865616964
30
0
11
-79.904308494430239
21
-118.80856183876453
31
0
0
SPLINE
5
588
100
AcDbEntity
8
0
100
AcDbSpline
70
0
71
2
72
6
73
3
74
0
42
0.000000001
43
0.0000000001
44
0.0000000001
40
0
40
0
40
0
40
1
40
1
40
1
10
-79.904308494430239
20
-118.80856183876453
30
0
10
-79.905390654508963
20
-118.73560245373112
30
0
10
-79.881118197440259
20
-118.68520211130257
30
0
0
SPLINE
5
589
100
AcDbEntity
8
0
100
AcDbSpline
70
0
71
2
72
6
73
3
74
0
42
0.000000001
43
0.0000000001
44
0.0000000001
40
0
40
0
40
0
40
1
40
1
40
1
10
-79.881118197440259
20
-118.68520211130257
30
0
10
-79.856844543989851
20
-118.63480204918486
30
0
10
-79.786527036961871
20
-118.59622875648364
30
0
0
SPLINE
5
590
100
AcDbEntity
8
0
100
AcDbSpline
70
0
71
2
72
6
73
3
74
0
42
0.000000001
43
0.0000000001
44
0.0000000001
40
0
40
0
40
0
40
1
40
1
40
1
10
-79.786527036961871
20
-118.59622875648364
30
0
10
-79.749314457289273
20
-118.57482689431473
30
0
10
-79.653687519188608
20
-118.55568581277966
30
0
0
SPLINE
5
591
100
AcDbEntity
8
0
100
AcDbSpline
70
0
71
2
72
6
73
3
74
0
42
0.000000001
43
0.0000000001
44
0.0000000001
40
0
40
0
40
0
40
1
40
1
40
1
10
-79.653687519188608
20
-118.55568581277966
30
0
10
-79.558060581087929
20
-118.53654473124462
30
0
10
-79.501809446622374
20
-118.53362549225108
30
0
0
LINE
5
592
100
AcDbEntity
8
0
100
AcDbLine
10
-79.501809446622374
20
-118.53362549225105
30
0
11
-79.504004683997508
21
-118.38562227900832
31
0
0
SPLINE
5
593
100
AcDbEntity
8
0
100
AcDbSpline
70
0
71
2
72
6
73
3
74
0
42
0.000000001
43
0.0000000001
44
0.0000000001
40
0
40
0
40
0
40
1
40
1
40
1
10
-83.407541802601187
20
-119.90511338831888
30
0
10
-83.413138110720965
20
-119.52780950610577
30
0
10
-83.558999604986198
20
-119.25266643905718
30
0
0
SPLINE
5
594
100
AcDbEntity
8
0
100
AcDbSpline
70
0
71
2
72
6
73
3
74
0
42
0.000000001
43
0.0000000001
44
0.0000000001
40
0
40
0
40
0
40
1
40
1
40
1
10
-83.558999604986198
20
-119.25266643905718
30
0
10
-83.704861094831514
20
-118.97752366999904
30
0
10
-83.934705719139032
20
-118.80370692028782
30
0
0
SPLINE
5
595
100
AcDbEntity
8
0
100
AcDbSpline
70
0
71
2
72
6
73
3
74
0
42
0.000000001
43
0.0000000001
44
0.0000000001
40
0
40
0
40
0
40
1
40
1
40
1
10
-83.934705719139032
20
-118.80370692028782
30
0
10
-84.166634488632027
20
-118.6299210833744
30
0
10
-84.453516995109865
20
-118.54660558637995
30
0
0
SPLINE
5
596
100
AcDbEntity
8
0
100
AcDbSpline
70
0
71
2
72
6
73
3
74
0
42
0.000000001
43
0.0000000001
44
0.0000000001
40
0
40
0
40
0
40
1
40
1
40
1
10
-84.453516995109865
20
-118.54660558637995
30
0
10
-84.740398901186907
20
-118.46329037853614
30
0
10
-85.044743696357031
20
-118.4678045309971
30
0
0
LINE
5
597
100
AcDbEntity
8
0
100
AcDbLine
10
-85.044743696357031
20
-118.46780453099709
30
0
11
-86.270460053760431
21
-118.48598480087196
31
0
0
LINE
5
598
100
AcDbEntity
8
0
100
AcDbLine
10
-86.270460053760431
20
-118.48598480087196
30
0
11
-86.268264816385297
21
-118.63398801411471
31
0
0
SPLINE
5
599
100
AcDbEntity
8
0
100
AcDbSpline
70
0
71
2
72
6
73
3
74
0
42
0.000000001
43
0.0000000001
44
0.0000000001
40
0
40
0
40
0
40
1
40
1
40
1
10
-86.268264816385283
20
-118.63398801411472
30
0
10
-86.207812686388351
20
-118.6330913661821
30
0
10
-86.110711110537878
20
-118.64311852708329
30
0
0
SPLINE
5
600
100
AcDbEntity
8
0
100
AcDbSpline
70
0
71
2
72
6
73
3
74
0
42
0.000000001
43
0.0000000001
44
0.0000000001
40
0
40
0
40
0
40
1
40
1
40
1
10
-86.110711110537878
20
-118.64311852708329
30
0
10
-86.013609530267502
20
-118.65314598597496
30
0
10
-85.982124362911691
20
-118.66727419297278
30
0
0
SPLINE
5
601
100
AcDbEntity
8
0
100
AcDbSpline
70
0
71
2
72
6
73
3
74
0
42
0.000000001
43
0.0000000001
44
0.0000000001
40
0
40
0
40
0
40
1
40
1
40
1
10
-85.982124362911691
20
-118.66727419297278
30
0
10
-85.919186146219403
20
-118.69344558549125
30
0
10
-85.890256093356086
20
-118.74618431063816
30
0
0
SPLINE
5
602
100
AcDbEntity
8
0
100
AcDbSpline
70
0
71
2
72
6
73
3
74
0
42
0.000000001
43
0.0000000001
44
0.0000000001
40
0
40
0
40
0
40
1
40
1
40
1
10
-85.890256093356086
20
-118.74618431063816
30
0
10
-85.861326636473677
20
-118.79892304462486
30
0
10
-85.86021355917724
20
-118.8739668728342
30
0
0
LINE
5
603
100
AcDbEntity
8
0
100
AcDbLine
10
-85.86021355917724
20
-118.8739668728342
30
0
11
-85.828552675194757
21
-121.00854813341525
31
0
0
SPLINE
5
604
100
AcDbEntity
8
0
100
AcDbSpline
70
0
71
2
72
6
73
3
74
0
42
0.000000001
43
0.0000000001
44
0.0000000001
40
0
40
0
40
0
40
1
40
1
40
1
10
-85.828552675194757
20
-121.00854813341525
30
0
10
-85.827501436753636
20
-121.07942277728228
30
0
10
-85.850638767166117
20
-121.13606128641025
30
0
0
SPLINE
5
605
100
AcDbEntity
8
0
100
AcDbSpline
70
0
71
2
72
6
73
3
74
0
42
0.000000001
43
0.0000000001
44
0.0000000001
40
0
40
0
40
0
40
1
40
1
40
1
10
-85.850638767166117
20
-121.13606128641025
30
0
10
-85.873776097578599
20
-121.19269979553823
30
0
10
-85.944156039442788
20
-121.22710391273694
30
0
0
SPLINE
5
606
100
AcDbEntity
8
0
100
AcDbSpline
70
0
71
2
72
6
73
3
74
0
42
0.000000001
43
0.0000000001
44
0.0000000001
40
0
40
0
40
0
40
1
40
1
40
1
10
-85.944156039442788
20
-121.22710391273694
30
0
10
-86.008313871407282
20
-121.259330541536
30
0
10
-86.083140967842468
20
-121.27503561061539
30
0
0
SPLINE
5
607
100
AcDbEntity
8
0
100
AcDbSpline
70
0
71
2
72
6
73
3
74
0
42
0.000000001
43
0.0000000001
44
0.0000000001
40
0
40
0
40
0
40
1
40
1
40
1
10
-86.083140967842468
20
-121.27503561061539
30
0
10
-86.157968660258547
20
-121.29074068853458
30
0
10
-86.212105328301817
20
-121.29571346674604
30
0
0
LINE
5
608
100
AcDbEntity
8
0
100
AcDbLine
10
-86.212105328301817
20
-121.29571346674604
30
0
11
-86.209910090926684
21
-121.4437166799888
31
0
0
LINE
5
609
100
AcDbEntity
8
0
100
AcDbLine
10
-86.209910090926684
20
-121.4437166799888
30
0
11
-84.917487380027211
21
-121.42454699726844
31
0
0
SPLINE
5
610
100
AcDbEntity
8
0
100
AcDbSpline
70
0
71
2
72
6
73
3
74
0
42
0.000000001
43
0.0000000001
44
0.0000000001
40
0
40
0
40
0
40
1
40
1
40
1
10
-84.917487380027211
20
-121.42454699726844
30
0
10
-84.650664945947426
20
-121.42058939008557
30
0
10
-84.393401578759622
20
-121.33441562546275
30
0
0
SPLINE
5
611
100
AcDbEntity
8
0
100
AcDbSpline
70
0
71
2
72
6
73
3
74
0
42
0.000000001
43
0.0000000001
44
0.0000000001
40
0
40
0
40
0
40
1
40
1
40
1
10
-84.393401578759622
20
-121.33441562546275
30
0
10
-84.136138807552754
20
-121.24824186967976
30
0
10
-83.946431463356333
20
-121.10573249081526
30
0
0
SPLINE
5
612
100
AcDbEntity
8
0
100
AcDbSpline
70
0
71
2
72
6
73
3
74
0
42
0.000000001
43
0.0000000001
44
0.0000000001
40
0
40
0
40
0
40
1
40
1
40
1
10
-83.946431463356333
20
-121.10573249081526
30
0
10
-83.688613836837249
20
-120.91634250351818
30
0
10
-83.54506323298061
20
-120.61397180873033
30
0
0
SPLINE
5
613
100
AcDbEntity
8
0
100
AcDbSpline
70
0
71
2
72
6
73
3
74
0
42
0.000000001
43
0.0000000001
44
0.0000000001
40
0
40
0
40
0
40
1
40
1
40
1
10
-83.54506323298061
20
-120.61397180873033
30
0
10
-83.401512631333915
20
-120.31160096494727
30
0
10
-83.407541802601187
20
-119.90511338831888
30
0
0
SPLINE
5
614
100
AcDbEntity
8
0
100
AcDbSpline
70
0
71
2
72
6
73
3
74
0
42
0.000000001
43
0.0000000001
44
0.0000000001
40
0
40
0
40
0
40
1
40
1
40
1
10
-83.918241443245336
20
-119.91373072161807
30
0
10
-83.913823430292766
20
-120.21159377758288
30
0
10
-83.989468218018587
20
-120.45333891442034
30
0
0
SPLINE
5
615
100
AcDbEntity
8
0
100
AcDbSpline
70
0
71
2
72
6
73
3
74
0
42
0.000000001
43
0.0000000001
44
0.0000000001
40
0
40
0
40
0
40
1
40
1
40
1
10
-83.989468218018587
20
-120.45333891442034
30
0
10
-84.065113003534449
20
-120.69508420025304
30
0
10
-84.214627716685669
20
-120.87648254564762
30
0
0
SPLINE
5
616
100
AcDbEntity
8
0
100
AcDbSpline
70
0
71
2
72
6
73
3
74
0
42
0.000000001
43
0.0000000001
44
0.0000000001
40
0
40
0
40
0
40
1
40
1
40
1
10
-84.214627716685669
20
-120.87648254564762
30
0
10
-84.355928933034704
20
-121.04941871333128
30
0
10
-84.563974371129603
20
-121.15041859875235
30
0
0
SPLINE
5
617
100
AcDbEntity
8
0
100
AcDbSpline
70
0
71
2
72
6
73
3
74
0
42
0.000000001
43
0.0000000001
44
0.0000000001
40
0
40
0
40
0
40
1
40
1
40
1
10
-84.563974371129603
20
-121.15041859875235
30
0
10
-84.772019809224517
20
-121.25141848417341
30
0
10
-85.028419729434205
20
-121.25522150084784
30
0
0
SPLINE
5
618
100
AcDbEntity
8
0
100
AcDbSpline
70
0
71
2
72
6
73
3
74
0
42
0.000000001
43
0.0000000001
44
0.0000000001
40
0
40
0
40
0
40
1
40
1
40
1
10
-85.028419729434205
20
-121.25522150084784
30
0
10
-85.113886369504087
20
-121.25648917307262
30
0
10
-85.22128738191482
20
-121.25495468221388
30
0
0
SPLINE
5
619
100
AcDbEntity
8
0
100
AcDbSpline
70
0
71
2
72
6
73
3
74
0
42
0.000000001
43
0.0000000001
44
0.0000000001
40
0
40
0
40
0
40
1
40
1
40
1
10
-85.22128738191482
20
-121.25495468221388
30
0
10
-85.328687798344646
20
-121.2534201825153
30
0
10
-85.380832476874659
20
-121.25210870956136
30
0
0
LINE
5
620
100
AcDbEntity
8
0
100
AcDbLine
10
-85.380832476874659
20
-121.25210870956136
30
0
11
-85.414537866298673
21
-118.97968660394753
31
0
0
SPLINE
5
621
100
AcDbEntity
8
0
100
AcDbSpline
70
0
71
2
72
6
73
3
74
0
42
0.000000001
43
0.0000000001
44
0.0000000001
40
0
40
0
40
0
40
1
40
1
40
1
10
-85.414537866298673
20
-118.97968660394753
30
0
10
-85.417349551889941
20
-118.79012236508785
30
0
10
-85.307949593867164
20
-118.71558954344533
30
0
0
SPLINE
5
622
100
AcDbEntity
8
0
100
AcDbSpline
70
0
71
2
72
6
73
3
74
0
42
0.000000001
43
0.0000000001
44
0.0000000001
40
0
40
0
40
0
40
1
40
1
40
1
10
-85.307949593867164
20
-118.71558954344533
30
0
10
-85.198549635844373
20
-118.6410567218028
30
0
10
-84.969248966874019
20
-118.63765565105817
30
0
0
SPLINE
5
623
100
AcDbEntity
8
0
100
AcDbSpline
70
0
71
2
72
6
73
3
74
0
42
0.000000001
43
0.0000000001
44
0.0000000001
40
0
40
0
40
0
40
1
40
1
40
1
10
-84.969248966874019
20
-118.63765565105817
30
0
10
-84.704510677979727
20
-118.6337289566731
30
0
10
-84.505088007718371
20
-118.72451502566577
30
0
0
SPLINE
5
624
100
AcDbEntity
8
0
100
AcDbSpline
70
0
71
2
72
6
73
3
74
0
42
0.000000001
43
0.0000000001
44
0.0000000001
40
0
40
0
40
0
40
1
40
1
40
1
10
-84.505088007718371
20
-118.72451502566577
30
0
10
-84.305665337457057
20
-118.81530109465844
30
0
10
-84.180205358180814
20
-118.98011075996756
30
0
0
SPLINE
5
625
100
AcDbEntity
8
0
100
AcDbSpline
70
0
71
2
72
6
73
3
74
0
42
0.000000001
43
0.0000000001
44
0.0000000001
40
0
40
0
40
0
40
1
40
1
40
1
10
-84.180205358180814
20
-118.98011075996756
30
0
10
-84.048368073675647
20
-119.15316603788827
30
0
10
-83.985544443479782
20
-119.38244850007897
30
0
0
SPLINE
5
626
100
AcDbEntity
8
0
100
AcDbSpline
70
0
71
2
72
6
73
3
74
0
42
0.000000001
43
0.0000000001
44
0.0000000001
40
0
40
0
40
0
40
1
40
1
40
1
10
-83.985544443479782
20
-119.38244850007897
30
0
10
-83.922720808863986
20
-119.6117312602601
30
0
10
-83.918241443245336
20
-119.91373072161807
30
0
0
LWPOLYLINE
5
627
100
AcDbEntity
8
0
100
AcDbPolyline
90
30
70
1
43
0.0
10
-62.146096916741946
20
-138.10908546062831
10
-60.450613077153541
20
-138.10908546062831
10
-60.450613077153541
20
-138.10876887996011
10
-56.333128703968605
20
-138.10876887996011
10
-56.333128703968605
20
-140.13658694499946
10
-57.092164885965829
20
-140.13658694499946
10
-57.092164885965829
20
-142.9263884983003
10
-54.092164885965829
20
-142.9263884983003
10
-54.092164885965829
20
-140.13658694499946
10
-54.833128703968619
20
-140.13658694499946
10
-54.833128703968619
20
-138.10876887996011
10
-41.030002447035642
20
-138.10876887996011
10
-41.030002447035642
20
-139.91454070254204
10
-37.475417572326208
20
-139.91454070254204
10
-37.475417572326215
20
-136.68154070254204
10
-41.030002447035642
20
-136.68154070254204
10
-41.030002447035642
20
-136.68176887996012
10
-54.614055386734179
20
-136.68176887996012
10
-54.614055386734179
20
-136.68180481753188
10
-54.714055386734174
20
-136.68180481753188
10
-54.714055386734174
20
-136.68176887996012
10
-54.833128703968619
20
-136.68176887996012
10
-54.833128703968619
20
-136.68180481753188
10
-60.450613077153541
20
-136.68180481753188
10
-60.450613077153541
20
-130.66408546062831
10
-59.49426877402901
20
-130.66408546062831
10
-59.49426877402901
20
-127.8640854606283
10
-62.294268774029021
20
-127.86408546062829
10
-62.294268774029021
20
-130.66408546062829
10
-62.146096916741946
20
-130.66408546062831
0
CIRCLE
5
628
100
AcDbEntity
8
0
100
AcDbCircle
10
-61.577314287258972
20
-129.03884636268711
30
0
40
0.37098291370551095
210
1.2325951644078309e-32
220
-3.0790249460262088e-48
230
1
0
CIRCLE
5
629
100
AcDbEntity
8
0
100
AcDbCircle
10
-55.583128703968612
20
-141.00536825230472
30
0
40
0.44999999999999929
210
-7.5964541966078376e-64
220
-3.4211388289180104e-48
230
1
0
CIRCLE
5
630
100
AcDbEntity
8
0
100
AcDbCircle
10
-39.631530117082704
20
-138.25909186261907
30
0
40
0.45000000000000367
210
-1.2325951644078312e-32
220
-3.0258173569694267e-80
230
1
0
CIRCLE
5
631
100
AcDbEntity
8
0
100
AcDbCircle
10
-53.695996436216937
20
-132.18840681409918
30
0
40
0.44999999999999929
210
-0
220
0
230
1
0
CIRCLE
5
632
100
AcDbEntity
8
0
100
AcDbCircle
10
-38.591099339787299
20
-132.20677368267471
30
0
40
0.45000000000000367
210
-1.2325951644078312e-32
220
-3.0258173569694267e-80
230
1
0
LWPOLYLINE
5
633
100
AcDbEntity
8
0
100
AcDbPolyline
90
8
70
1
43
0.0
10
-41.191811822433294
20
-130.95431816110261
10
-60.114428589213404
20
-130.95431816110261
10
-60.114428589213404
20
-133.45937362144292
10
-41.030002447035642
20
-133.45937362144292
10
-41.030002447035642
20
-133.45955767213459
10
-37.475417572326208
20
-133.45955767213459
10
-37.475417572326215
20
-130.95398969321479
10
-41.191811822433294
20
-130.95398969321479
0
CIRCLE
5
634
100
AcDbEntity
8
0
100
AcDbCircle
10
-53.815721257244661
20
-135.00816225481262
30
0
40
0.44999999999999929
210
-0
220
0
230
1
0
CIRCLE
5
635
100
AcDbEntity
8
0
100
AcDbCircle
10
-38.727075372530749
20
-135.00644611501329
30
0
40
0.45000000000000367
210
-1.2325951644078312e-32
220
-3.0258173569694267e-80
230
1
0
LWPOLYLINE
5
636
100
AcDbEntity
8
0
100
AcDbPolyline
90
6
70
1
43
0.0
10
-60.114055386734165
20
-136.34280481753188
10
-37.475417572326229
20
-136.34280481753188
10
-37.475417572326215
20
-133.67008741249469
10
-41.030002447035642
20
-133.67008741249469
10
-41.030002447035642
20
-133.66975653083637
10
-60.114055386734179
20
-133.66975653083637
0
CIRCLE
5
637
100
AcDbEntity
8
0
100
AcDbCircle
10
-51.46769909520404
20
-140.99769274832198
30
0
40
0.44999999999999929
210
-0
220
0
230
1
0
CIRCLE
5
638
100
AcDbEntity
8
0
100
AcDbCircle
10
-42.183236735225272
20
-139.14018541888257
30
0
40
0.44999999999999929
210
-0
220
0
230
1
0
LWPOLYLINE
5
639
100
AcDbEntity
8
0
100
AcDbPolyline
90
9
70
1
43
0.0
10
-41.337287776637822
20
-138.42428690218523
10
-53.208702137394326
20
-138.42428690218523
10
-53.208702137394326
20
-142.9263884983003
10
-49.778128703968605
20
-142.9263884983003
10
-49.778128703968605
20
-140.42370118608741
10
-49.778510163188223
20
-140.42370118608741
10
-49.778510163188223
20
-140.4037011860874
10
-49.524510163188218
20
-140.40370370218525
10
-41.337287776637822
20
-140.40370370218523
0
LWPOLYLINE
5
640
100
AcDbEntity
8
0
100
AcDbPolyline
90
6
70
1
43
0.0
10
-41.029681200299528
20
-140.8491198423871
10
-48.763128703968604
20
-140.8491198423871
10
-48.763128703968604
20
-142.9263884983003
10
-37.475417572326208
20
-142.9263884983003
10
-37.475417572326215
20
-140.15412006528479
10
-41.029681200299528
20
-140.15412006528479
0
LWPOLYLINE
5
641
100
AcDbEntity
8
0
100
AcDbPolyline
90
4
70
1
43
0.0
10
-45.89192603307729
20
-124.66094884735797
10
-52.491198297015359
20
-124.66094884735797
10
-52.491198297015359
20
-128.59941328906879
10
-45.89192603307729
20
-128.59941328906879
0
LWPOLYLINE
5
642
100
AcDbEntity
8
0
100
AcDbPolyline
90
6
70
1
43
0.0
10
-41.289067647761556
20
-128.59905030639419
10
-41.289067647761556
20
-127.26399246998656
10
-37.670026045376758
20
-127.26399246998656
10
-37.670026045376765
20
-124.65137737605426
10
-45.638239866132821
20
-124.65137737605426
10
-45.638239866132821
20
-128.59905030639419
0
CIRCLE
5
643
100
AcDbEntity
8
0
100
AcDbCircle
10
-101.46312870396858
20
-118.64536825230454
30
0
40
4.0000000000000036
210
0
220
-0
230
1
0
CIRCLE
5
644
100
AcDbEntity
8
0
100
AcDbCircle
10
-101.46312870396858
20
-118.64536825230454
30
0
40
3.5000000000000004
210
1.2325951644078309e-32
220
-1.5094937227365557e-48
230
1
0
ENDSEC
0
SECTION
2
OBJECTS
0
DICTIONARY
5
C
100
AcDbDictionary
3
ACAD_GROUP
350
D
3
ACAD_MLINESTYLE
350
17
0
DICTIONARY
5
D
100
AcDbDictionary
0
DICTIONARY
5
1A
330
C
100
AcDbDictionary
0
DICTIONARY
5
17
100
AcDbDictionary
0
ENDSEC
0
EOF
